Grade 1 UC .ufo
<glyph name="quotedbl" format="2">
  <advance width="1022"/>
  <unicode hex="0022"/>
  <outline>
    <contour>
      <point x="249.882" y="909.678" type="line"/>
      <point x="144.818" y="1393.244" type="line"/>
      <point x="144.818" y="1451.97"/>
      <point x="218.966" y="1558.0"/>
      <point x="297.536" y="1558.0" type="qcurve" smooth="yes"/>
      <point x="376.106" y="1558.0"/>
      <point x="450.254" y="1451.97"/>
      <point x="450.254" y="1393.244" type="qcurve"/>
      <point x="343.19" y="909.678" type="line"/>
    </contour>
    <contour>
      <point x="677.596" y="909.678" type="line"/>
      <point x="572.186" y="1393.244" type="line"/>
      <point x="572.186" y="1451.97"/>
      <point x="646.68" y="1558.0"/>
      <point x="724.904" y="1558.0" type="qcurve" smooth="yes"/>
      <point x="803.474" y="1558.0"/>
      <point x="877.622" y="1451.97"/>
      <point x="877.622" y="1393.244" type="qcurve"/>
      <point x="770.904" y="909.678" type="line"/>
    </contour>
  </outline>
</glyph>
<glyph name="ampersand" format="2">
  <advance width="1691"/>
  <unicode hex="0026"/>
  <outline>
    <contour>
      <point x="588.836" y="-28.0" type="qcurve" smooth="yes"/>
      <point x="300.836" y="-28.0"/>
      <point x="56.038" y="215.198"/>
      <point x="64.422" y="374.0" type="qcurve" smooth="yes"/>
      <point x="70.46" y="495.536"/>
      <point x="268.03" y="732.616"/>
      <point x="652.102" y="932.0" type="qcurve"/>
      <point x="741.296" y="961.114"/>
      <point x="857.608" y="1119.27"/>
      <point x="857.608" y="1209.27" type="qcurve" smooth="yes"/>
      <point x="857.608" y="1289.772"/>
      <point x="757.988" y="1396.928"/>
      <point x="660.946" y="1396.928" type="qcurve" smooth="yes"/>
      <point x="566.52" y="1396.928"/>
      <point x="451.554" y="1289.27"/>
      <point x="450.86199999999997" y="1198.768" type="qcurve" smooth="yes"/>
      <point x="450.17" y="1106.768"/>
      <point x="565.056" y="957.384"/>
      <point x="693.862" y="927.384" type="qcurve"/>
      <point x="1208.862" y="271.384" type="line" smooth="yes"/>
      <point x="1266.862" y="197.384"/>
      <point x="1365.094" y="116.75999999999999"/>
      <point x="1432.482" y="116.75999999999999" type="qcurve" smooth="yes"/>
      <point x="1487.946" y="116.75999999999999"/>
      <point x="1557.406" y="152.03"/>
      <point x="1591.482" y="192.22" type="qcurve"/>
      <point x="1668.862" y="119.92" type="line"/>
      <point x="1623.862" y="50.92"/>
      <point x="1481.908" y="-36.346"/>
      <point x="1363.996" y="-37.0" type="qcurve" smooth="yes"/>
      <point x="1250.0" y="-37.654"/>
      <point x="1090.974" y="34.422"/>
      <point x="986.628" y="169.768" type="qcurve" smooth="yes"/>
      <point x="493.738" y="805.506" type="line"/>
      <point x="396.194" y="845.16"/>
      <point x="229.076" y="1037.35"/>
      <point x="235.0" y="1177.734" type="qcurve" smooth="yes"/>
      <point x="240.924" y="1318.422"/>
      <point x="459.452" y="1519.806"/>
      <point x="653.098" y="1519.806" type="qcurve" smooth="yes"/>
      <point x="831.052" y="1519.806"/>
      <point x="1023.014" y="1341.194"/>
      <point x="1020.246" y="1194.886" type="qcurve" smooth="yes"/>
      <point x="1017.478" y="1065.236"/>
      <point x="813.102" y="873.7"/>
      <point x="692.102" y="834.7" type="qcurve"/>
      <point x="484.212" y="717.62"/>
      <point x="336.162" y="521.27"/>
      <point x="334.622" y="403.0" type="qcurve" smooth="yes"/>
      <point x="332.774" y="275.692"/>
      <point x="498.702" y="136.38"/>
      <point x="656.862" y="136.38" type="qcurve" smooth="yes"/>
      <point x="914.946" y="136.38"/>
      <point x="1401.448" y="566.734"/>
      <point x="1545.448" y="865.734" type="qcurve"/>
      <point x="1672.862" y="851.08" type="line"/>
      <point x="1541.862" y="527.08"/>
      <point x="916.486" y="-28.0"/>
    </contour>
    <contour>
      <point x="1116.296" y="845.81" type="line"/>
      <point x="1143.026" y="907.384"/>
      <point x="1241.102" y="981.0"/>
      <point x="1288.102" y="981.0" type="qcurve" smooth="yes"/>
      <point x="1334.102" y="981.0"/>
      <point x="1467.832" y="923.0"/>
      <point x="1511.022" y="923.0" type="qcurve" smooth="yes"/>
      <point x="1541.022" y="923.0"/>
      <point x="1581.098" y="930.076"/>
      <point x="1610.098" y="951.114" type="qcurve"/>
      <point x="1696.862" y="862.08" type="line"/>
      <point x="1626.398" y="765.46"/>
      <point x="1553.402" y="734.16"/>
      <point x="1506.402" y="734.16" type="qcurve" smooth="yes"/>
      <point x="1482.022" y="734.16"/>
      <point x="1348.258" y="809.16"/>
      <point x="1308.258" y="809.16" type="qcurve" smooth="yes"/>
      <point x="1268.258" y="809.16"/>
      <point x="1205.102" y="788.16"/>
      <point x="1182.102" y="768.16" type="qcurve"/>
    </contour>
  </outline>
</glyph>
<glyph name="parenleft" format="2">
  <advance width="663"/>
  <unicode hex="0028"/>
  <outline>
    <contour>
      <point x="59.696" y="665.426" type="qcurve" smooth="yes"/>
      <point x="59.696" y="924.038"/>
      <point x="372.798" y="1410.346"/>
      <point x="562.976" y="1525.654" type="qcurve"/>
      <point x="644.778" y="1457.426" type="line"/>
      <point x="531.504" y="1330.54"/>
      <point x="357.804" y="903.156"/>
      <point x="357.804" y="665.772" type="qcurve" smooth="yes"/>
      <point x="357.804" y="427.696"/>
      <point x="528.196" y="3.9240000000000004"/>
      <point x="645.124" y="-122.768" type="qcurve"/>
      <point x="566.436" y="-194.456" type="line"/>
      <point x="373.144" y="-74.996"/>
      <point x="59.696" y="397.16"/>
    </contour>
  </outline>
</glyph>
<glyph name="parenright" format="2">
  <advance width="663"/>
  <unicode hex="0029"/>
  <outline>
    <contour>
      <point x="603.006" y="665.426" type="qcurve" smooth="yes"/>
      <point x="603.006" y="397.16"/>
      <point x="289.558" y="-74.996"/>
      <point x="95.92" y="-194.456" type="qcurve"/>
      <point x="17.578" y="-122.768" type="line"/>
      <point x="134.506" y="3.9240000000000004"/>
      <point x="304.552" y="427.696"/>
      <point x="304.552" y="665.772" type="qcurve" smooth="yes"/>
      <point x="304.552" y="903.156"/>
      <point x="131.198" y="1330.54"/>
      <point x="17.924" y="1457.426" type="qcurve"/>
      <point x="99.726" y="1525.654" type="line"/>
      <point x="289.904" y="1410.346"/>
      <point x="603.006" y="924.038"/>
    </contour>
  </outline>
</glyph>
<glyph name="asterisk" format="2">
  <advance width="867"/>
  <unicode hex="002A"/>
  <outline>
    <contour>
      <point x="437.924" y="657.426" type="qcurve" smooth="yes"/>
      <point x="377.886" y="657.426"/>
      <point x="321.658" y="738.388"/>
      <point x="336.312" y="791.848" type="qcurve" smooth="yes"/>
      <point x="414.35" y="1057.316" type="line"/>
      <point x="410.312" y="1060.662" type="line"/>
      <point x="217.768" y="860.236" type="line" smooth="yes"/>
      <point x="184.654" y="827.506"/>
      <point x="82.962" y="825.734"/>
      <point x="51.616" y="881.772" type="qcurve" smooth="yes"/>
      <point x="19.27" y="936.464"/>
      <point x="73.118" y="1023.654"/>
      <point x="118.232" y="1035.73" type="qcurve" smooth="yes"/>
      <point x="384.738" y="1101.118" type="line"/>
      <point x="383.738" y="1107.118" type="line"/>
      <point x="118.232" y="1173.814" type="line" smooth="yes"/>
      <point x="73.464" y="1185.89"/>
      <point x="19.27" y="1273.08"/>
      <point x="51.616" y="1329.118" type="qcurve" smooth="yes"/>
      <point x="82.962" y="1383.81"/>
      <point x="185.0" y="1382.384"/>
      <point x="217.768" y="1350.0" type="qcurve" smooth="yes"/>
      <point x="409.004" y="1148.882" type="line"/>
      <point x="413.35" y="1152.228" type="line"/>
      <point x="336.312" y="1418.042" type="line" smooth="yes"/>
      <point x="321.658" y="1474.156"/>
      <point x="379.886" y="1552.118"/>
      <point x="437.924" y="1552.118" type="qcurve" smooth="yes"/>
      <point x="497.962" y="1552.118"/>
      <point x="554.19" y="1471.502"/>
      <point x="539.536" y="1418.042" type="qcurve" smooth="yes"/>
      <point x="461.498" y="1152.92" type="line"/>
      <point x="466.536" y="1149.574" type="line"/>
      <point x="658.388" y="1350.0" type="line" smooth="yes"/>
      <point x="691.194" y="1382.384"/>
      <point x="792.886" y="1383.81"/>
      <point x="824.232" y="1328.118" type="qcurve" smooth="yes"/>
      <point x="856.578" y="1273.08"/>
      <point x="803.384" y="1185.89"/>
      <point x="757.616" y="1173.814" type="qcurve" smooth="yes"/>
      <point x="491.11" y="1109.118" type="line"/>
      <point x="492.11" y="1102.772" type="line"/>
      <point x="757.616" y="1036.076" type="line" smooth="yes"/>
      <point x="803.038" y="1023.654"/>
      <point x="856.578" y="936.464"/>
      <point x="824.232" y="880.772" type="qcurve" smooth="yes"/>
      <point x="792.886" y="825.734"/>
      <point x="691.194" y="827.16"/>
      <point x="658.388" y="859.89" type="qcurve" smooth="yes"/>
      <point x="467.536" y="1060.662" type="line"/>
      <point x="463.498" y="1057.316" type="line"/>
      <point x="539.882" y="791.848" type="line" smooth="yes"/>
      <point x="553.882" y="738.388"/>
      <point x="501.616" y="657.426"/>
    </contour>
  </outline>
</glyph>
<glyph name="period" format="2">
  <advance width="615"/>
  <unicode hex="002E"/>
  <outline>
    <contour>
      <point x="128.278" y="151.79399999999998" type="qcurve" smooth="yes"/>
      <point x="128.278" y="222.596"/>
      <point x="229.0" y="326.93399999999997"/>
      <point x="307.224" y="326.93399999999997" type="qcurve" smooth="yes"/>
      <point x="385.448" y="326.93399999999997"/>
      <point x="486.516" y="222.596"/>
      <point x="486.516" y="151.79399999999998" type="qcurve" smooth="yes"/>
      <point x="486.516" y="82.684"/>
      <point x="385.448" y="-22.0"/>
      <point x="307.224" y="-22.0" type="qcurve"/>
      <point x="229.0" y="-22.0"/>
      <point x="128.278" y="82.684"/>
    </contour>
  </outline>
</glyph>
<glyph name="slash" format="2">
  <advance width="750"/>
  <unicode hex="002F"/>
  <outline>
    <contour>
      <point x="-41.24" y="-102.43" type="line"/>
      <point x="575.106" y="1572.3" type="line"/>
      <point x="775.9639999999999" y="1505.08" type="line"/>
      <point x="159.964" y="-168.958" type="line"/>
    </contour>
  </outline>
</glyph>
<glyph name="four" format="2">
  <advance width="1285"/>
  <unicode hex="0034"/>
  <outline>
    <contour>
      <point x="39.35" y="547.772" type="line"/>
      <point x="763.156" y="1532.814" type="line"/>
      <point x="941.12" y="1502.734" type="line"/>
      <point x="980.04" y="1472.894" type="line"/>
      <point x="974.386" y="499.304" type="line"/>
      <point x="974.04" y="139.38" type="line"/>
      <point x="1196.85" y="104.38" type="line"/>
      <point x="1196.85" y="0.0" type="line"/>
      <point x="462.814" y="0.0" type="line"/>
      <point x="462.814" y="104.38" type="line"/>
      <point x="694.586" y="139.38" type="line"/>
      <point x="701.164" y="497.304" type="line"/>
      <point x="699.088" y="1238.948" type="line"/>
      <point x="222.148" y="584.034" type="line"/>
      <point x="226.072" y="571.266" type="line"/>
      <point x="1240.508" y="554.262" type="line"/>
      <point x="1240.508" y="439.232" type="line"/>
      <point x="59.35" y="427.966" type="line"/>
    </contour>
  </outline>
</glyph>
<glyph name="colon" format="2">
  <advance width="688"/>
  <unicode hex="003A"/>
  <outline>
    <contour>
      <point x="164.818" y="151.79399999999998" type="qcurve" smooth="yes"/>
      <point x="164.818" y="222.596"/>
      <point x="265.54" y="326.93399999999997"/>
      <point x="343.764" y="326.93399999999997" type="qcurve" smooth="yes"/>
      <point x="421.988" y="326.93399999999997"/>
      <point x="523.056" y="222.596"/>
      <point x="523.056" y="151.79399999999998" type="qcurve" smooth="yes"/>
      <point x="523.056" y="82.684"/>
      <point x="421.988" y="-22.0"/>
      <point x="343.764" y="-22.0" type="qcurve" smooth="yes"/>
      <point x="265.54" y="-22.0"/>
      <point x="164.818" y="82.684"/>
    </contour>
    <contour>
      <point x="164.818" y="876.354" type="qcurve" smooth="yes"/>
      <point x="164.818" y="947.156"/>
      <point x="265.54" y="1051.494"/>
      <point x="343.764" y="1051.494" type="qcurve" smooth="yes"/>
      <point x="421.988" y="1051.494"/>
      <point x="523.056" y="947.156"/>
      <point x="523.056" y="876.354" type="qcurve" smooth="yes"/>
      <point x="523.056" y="807.244"/>
      <point x="421.988" y="702.56"/>
      <point x="343.764" y="702.56" type="qcurve" smooth="yes"/>
      <point x="265.54" y="702.56"/>
      <point x="164.818" y="807.244"/>
    </contour>
  </outline>
</glyph>
<glyph name="less" format="2">
  <advance width="1044"/>
  <unicode hex="003C"/>
  <outline>
    <contour>
      <point x="145.818" y="634.0" type="qcurve"/>
      <point x="147.78" y="636.616"/>
      <point x="666.536" y="1055.642"/>
      <point x="736.342" y="1111.794" type="qcurve" smooth="yes"/>
      <point x="811.068" y="1172.174"/>
      <point x="924.288" y="1054.498"/>
      <point x="860.292" y="988.118" type="qcurve" smooth="yes"/>
      <point x="732.866" y="856.962"/>
      <point x="481.20799999999997" y="637.0"/>
      <point x="478.592" y="637.0" type="qcurve"/>
      <point x="481.20799999999997" y="637.0"/>
      <point x="740.364" y="420.27"/>
      <point x="861.022" y="296.498" type="qcurve" smooth="yes"/>
      <point x="924.98" y="230.118"/>
      <point x="811.338" y="111.902"/>
      <point x="742.148" y="168.746" type="qcurve" smooth="yes"/>
      <point x="672.688" y="226.20600000000002"/>
      <point x="147.126" y="631.384"/>
    </contour>
  </outline>
</glyph>
<glyph name="greater" format="2">
  <advance width="1044"/>
  <unicode hex="003E"/>
  <outline>
    <contour>
      <point x="182.738" y="288.65" type="qcurve" smooth="yes"/>
      <point x="306.012" y="416.346"/>
      <point x="563.206" y="637.0"/>
      <point x="565.822" y="637.0" type="qcurve"/>
      <point x="563.206" y="637.0"/>
      <point x="309.586" y="853.038"/>
      <point x="184.776" y="980.27" type="qcurve" smooth="yes"/>
      <point x="120.126" y="1046.65"/>
      <point x="232.038" y="1166.942"/>
      <point x="306.764" y="1105.254" type="qcurve" smooth="yes"/>
      <point x="376.57" y="1047.794"/>
      <point x="897.288" y="640.54"/>
      <point x="898.596" y="637.924" type="qcurve"/>
      <point x="896.634" y="635.308"/>
      <point x="373.034" y="218.358"/>
      <point x="303.574" y="162.20600000000002" type="qcurve" smooth="yes"/>
      <point x="234.384" y="106.67"/>
      <point x="119.434" y="222.27"/>
    </contour>
  </outline>
</glyph>
<glyph name="A" format="2">
  <advance width="1551"/>
  <unicode hex="0041"/>
  <outline>
    <contour>
      <point x="-12.89" y="0.0" type="line"/>
      <point x="-12.89" y="109.688" type="line"/>
      <point x="162.654" y="144.34199999999998" type="line"/>
      <point x="328.46" y="597.09" type="line"/>
      <point x="653.362" y="1505.232" type="line"/>
      <point x="892.656" y="1505.232" type="line"/>
      <point x="1219.174" y="627.204" type="line"/>
      <point x="1399.364" y="144.34199999999998" type="line"/>
      <point x="1564.216" y="109.688" type="line"/>
      <point x="1564.216" y="0.0" type="line"/>
      <point x="915.412" y="0.0" type="line"/>
      <point x="915.412" y="109.688" type="line"/>
      <point x="1085.07" y="141.726" type="line"/>
      <point x="942.496" y="562.132" type="line"/>
      <point x="702.362" y="1194.788" type="line"/>
      <point x="455.3" y="560.09" type="line"/>
      <point x="324.38" y="141.072" type="line"/>
      <point x="494.114" y="109.688" type="line"/>
      <point x="494.114" y="0.0" type="line"/>
    </contour>
    <contour>
      <point x="703.6320000000001" y="561.688" type="line"/>
      <point x="1050.48" y="575.958" type="line"/>
      <point x="1088.598" y="448.0" type="line"/>
      <point x="703.6320000000001" y="448.0" type="line"/>
    </contour>
    <contour>
      <point x="337.966" y="448.0" type="line"/>
      <point x="375.814" y="574.958" type="line"/>
      <point x="703.6320000000001" y="561.688" type="line"/>
      <point x="703.6320000000001" y="448.0" type="line"/>
    </contour>
  </outline>
</glyph>
<glyph name="B" format="2">
  <advance width="1393"/>
  <unicode hex="0042"/>
  <outline>
    <contour>
      <point x="68.16" y="0.0" type="line"/>
      <point x="68.16" y="110.38" type="line"/>
      <point x="265.78" y="146.034" type="line"/>
      <point x="267.78" y="773.62" type="line"/>
      <point x="265.78" y="1341.62" type="line"/>
      <point x="68.16" y="1375.62" type="line"/>
      <point x="68.16" y="1500.0" type="line"/>
      <point x="809.56" y="1500.0" type="line" smooth="yes"/>
      <point x="1031.248" y="1500.0"/>
      <point x="1239.054" y="1313.962"/>
      <point x="1239.054" y="1170.962" type="qcurve" smooth="yes"/>
      <point x="1239.054" y="1035.962"/>
      <point x="1112.746" y="854.0"/>
      <point x="997.2860000000001" y="830.346" type="qcurve"/>
      <point x="997.2860000000001" y="823.346" type="line"/>
      <point x="1136.016" y="794.692"/>
      <point x="1326.21" y="604.0"/>
      <point x="1326.21" y="433.0" type="qcurve" smooth="yes"/>
      <point x="1326.21" y="246.0"/>
      <point x="1074.552" y="0.346"/>
      <point x="830.058" y="0.0" type="qcurve" smooth="yes"/>
    </contour>
    <contour>
      <point x="555.808" y="147.11" type="line"/>
      <point x="585.694" y="127.11" type="line"/>
      <point x="708.318" y="127.11" type="line" smooth="yes"/>
      <point x="875.288" y="127.11"/>
      <point x="1031.566" y="273.768"/>
      <point x="1031.566" y="440.0" type="qcurve" smooth="yes"/>
      <point x="1031.566" y="586.768"/>
      <point x="891.022" y="732.81"/>
      <point x="763.246" y="732.81" type="qcurve" smooth="yes"/>
      <point x="564.462" y="732.81" type="line"/>
      <point x="555.116" y="719.848" type="line"/>
    </contour>
    <contour>
      <point x="554.462" y="869.114" type="line"/>
      <point x="563.116" y="856.498" type="line"/>
      <point x="697.318" y="856.498" type="line" smooth="yes"/>
      <point x="824.786" y="856.498"/>
      <point x="948.68" y="991.0"/>
      <point x="948.68" y="1129.0" type="qcurve" smooth="yes"/>
      <point x="948.68" y="1255.692"/>
      <point x="823.942" y="1363.08"/>
      <point x="706.28" y="1363.08" type="qcurve" smooth="yes"/>
      <point x="582.656" y="1363.08" type="line"/>
      <point x="557.462" y="1346.81" type="line"/>
    </contour>
  </outline>
</glyph>
<glyph name="F" format="2">
  <advance width="1220"/>
  <unicode hex="0046"/>
  <outline>
    <contour>
      <point x="68.16" y="0.0" type="line"/>
      <point x="68.16" y="110.38" type="line"/>
      <point x="265.78" y="146.688" type="line"/>
      <point x="267.78" y="757.924" type="line"/>
      <point x="265.78" y="1341.62" type="line"/>
      <point x="68.16" y="1375.62" type="line"/>
      <point x="68.16" y="1500.0" type="line"/>
      <point x="1175.892" y="1500.0" type="line"/>
      <point x="1175.892" y="1140.962" type="line"/>
      <point x="1049.63" y="1140.962" type="line"/>
      <point x="1014.63" y="1368.16" type="line"/>
      <point x="595.496" y="1368.16" type="line"/>
      <point x="556.846" y="1346.776" type="line"/>
      <point x="556.922" y="760.0" type="line"/>
      <point x="558.922" y="143.418" type="line"/>
      <point x="771.006" y="110.726" type="line"/>
      <point x="771.006" y="0.0" type="line"/>
    </contour>
    <contour>
      <point x="411.486" y="705.194" type="line"/>
      <point x="411.486" y="818.958" type="line"/>
      <point x="894.234" y="826.996" type="line"/>
      <point x="926.466" y="990.422" type="line"/>
      <point x="1048.23" y="990.422" type="line"/>
      <point x="1048.23" y="528.228" type="line"/>
      <point x="926.466" y="528.228" type="line"/>
      <point x="894.234" y="697.156" type="line"/>
    </contour>
  </outline>
</glyph>
<glyph name="G" format="2">
  <advance width="1638"/>
  <unicode hex="0047"/>
  <outline>
    <contour>
      <point x="74.81" y="740.194" type="qcurve" smooth="yes"/>
      <point x="74.81" y="1078.726"/>
      <point x="522.958" y="1519.654"/>
      <point x="868.524" y="1519.654" type="qcurve" smooth="yes"/>
      <point x="1007.178" y="1519.654"/>
      <point x="1198.33" y="1466.38"/>
      <point x="1250.634" y="1438.072" type="qcurve"/>
      <point x="1277.828" y="1500.0" type="line"/>
      <point x="1402.588" y="1500.0" type="line"/>
      <point x="1402.588" y="1037.886" type="line"/>
      <point x="1268.52" y="1037.886" type="line"/>
      <point x="1229.136" y="1195.422" type="line" smooth="yes"/>
      <point x="1207.25" y="1282.658"/>
      <point x="1039.824" y="1372.928"/>
      <point x="905.208" y="1372.928" type="qcurve" smooth="yes"/>
      <point x="658.504" y="1372.928"/>
      <point x="386.294" y="1066.688"/>
      <point x="387.602" y="765.924" type="qcurve" smooth="yes"/>
      <point x="388.90999999999997" y="449.05"/>
      <point x="670.238" y="111.608"/>
      <point x="920.562" y="111.608" type="qcurve" smooth="yes"/>
      <point x="1011.304" y="111.608"/>
      <point x="1167.936" y="162.27"/>
      <point x="1227.864" y="208.008" type="qcurve"/>
      <point x="1227.864" y="518.848" type="line"/>
      <point x="1047.548" y="552.118" type="line"/>
      <point x="1047.548" y="667.688" type="line"/>
      <point x="1623.976" y="667.688" type="line"/>
      <point x="1623.976" y="552.118" type="line"/>
      <point x="1505.778" y="518.848" type="line"/>
      <point x="1505.778" y="212.08" type="line"/>
      <point x="1409.018" y="107.084"/>
      <point x="1080.186" y="-28.962"/>
      <point x="876.882" y="-28.962" type="qcurve" smooth="yes"/>
      <point x="527.882" y="-28.962"/>
      <point x="74.81" y="377.738"/>
    </contour>
  </outline>
</glyph>
<glyph name="H" format="2">
  <advance width="1810"/>
  <unicode hex="0048"/>
  <outline>
    <contour>
      <point x="68.16" y="0.0" type="line"/>
      <point x="68.16" y="110.38" type="line"/>
      <point x="265.78" y="145.38" type="line"/>
      <point x="267.78" y="754.0" type="line"/>
      <point x="265.78" y="1341.62" type="line"/>
      <point x="68.16" y="1375.62" type="line"/>
      <point x="68.16" y="1500.0" type="line"/>
      <point x="753.774" y="1500.0" type="line"/>
      <point x="753.774" y="1375.62" type="line"/>
      <point x="556.846" y="1341.62" type="line"/>
      <point x="554.846" y="754.0" type="line"/>
      <point x="556.846" y="145.38" type="line"/>
      <point x="753.774" y="110.38" type="line"/>
      <point x="753.774" y="0.0" type="line"/>
    </contour>
    <contour>
      <point x="412.178" y="709.08" type="line"/>
      <point x="412.178" y="851.46" type="line"/>
      <point x="905.292" y="843.46" type="line"/>
      <point x="1403.634" y="851.46" type="line"/>
      <point x="1403.634" y="709.08" type="line"/>
      <point x="905.292" y="709.08" type="line"/>
    </contour>
    <contour>
      <point x="1056.118" y="0.0" type="line"/>
      <point x="1056.118" y="110.38" type="line"/>
      <point x="1253.046" y="145.38" type="line"/>
      <point x="1255.046" y="754.0" type="line"/>
      <point x="1253.046" y="1341.62" type="line"/>
      <point x="1056.118" y="1375.62" type="line"/>
      <point x="1056.118" y="1500.0" type="line"/>
      <point x="1741.732" y="1500.0" type="line"/>
      <point x="1741.732" y="1375.62" type="line"/>
      <point x="1544.112" y="1341.62" type="line"/>
      <point x="1542.112" y="754.0" type="line"/>
      <point x="1544.112" y="145.38" type="line"/>
      <point x="1741.732" y="110.38" type="line"/>
      <point x="1741.732" y="0.0" type="line"/>
    </contour>
  </outline>
</glyph>
<glyph name="J" format="2">
  <advance width="817"/>
  <unicode hex="004A"/>
  <outline>
    <contour>
      <point x="14.510000000000002" y="-214.38" type="qcurve"/>
      <point x="14.510000000000002" y="-72.08" type="line"/>
      <point x="41.510000000000005" y="-73.08"/>
      <point x="94.59" y="-71.08"/>
      <point x="132.59" y="-66.08" type="qcurve" smooth="yes"/>
      <point x="206.59" y="-56.08"/>
      <point x="274.59000000000003" y="24.92"/>
      <point x="274.59000000000003" y="118.92" type="qcurve" smooth="yes"/>
      <point x="274.32" y="806.32" type="line"/>
      <point x="272.32" y="1341.62" type="line"/>
      <point x="74.51" y="1375.62" type="line"/>
      <point x="74.51" y="1500.0" type="line"/>
      <point x="749.234" y="1500.0" type="line"/>
      <point x="749.234" y="1375.62" type="line"/>
      <point x="563.732" y="1341.62" type="line"/>
      <point x="562.078" y="806.32" type="line"/>
      <point x="572.002" y="192.46" type="line" smooth="yes"/>
      <point x="575.31" y="-25.54"/>
      <point x="368.25" y="-211.072"/>
      <point x="194.11" y="-218.072" type="qcurve" smooth="yes"/>
      <point x="135.11" y="-220.726"/>
      <point x="37.97" y="-217.072"/>
    </contour>
  </outline>
</glyph>
<glyph name="N" format="2">
  <advance width="1627"/>
  <unicode hex="004E"/>
  <outline>
    <contour>
      <point x="68.16" y="0.0" type="line"/>
      <point x="68.16" y="110.38" type="line"/>
      <point x="264.742" y="145.38" type="line"/>
      <point x="266.742" y="754.0" type="line"/>
      <point x="264.742" y="1341.966" type="line"/>
      <point x="68.16" y="1375.966" type="line"/>
      <point x="68.16" y="1500.0" type="line"/>
      <point x="586.196" y="1500.0" type="line"/>
      <point x="948.1659999999999" y="864.794" type="line"/>
      <point x="1244.946" y="371.512" type="line"/>
      <point x="1245.908" y="770.954" type="line"/>
      <point x="1243.908" y="1341.966" type="line"/>
      <point x="1034.592" y="1375.966" type="line"/>
      <point x="1034.592" y="1500.0" type="line"/>
      <point x="1573.292" y="1500.0" type="line"/>
      <point x="1573.292" y="1375.966" type="line"/>
      <point x="1377.748" y="1341.966" type="line"/>
      <point x="1375.748" y="762.65" type="line"/>
      <point x="1371.748" y="0.0" type="line"/>
      <point x="1141.796" y="0.0" type="line"/>
      <point x="720.552" y="703.21" type="line"/>
      <point x="397.198" y="1256.72" type="line"/>
      <point x="396.582" y="735.662" type="line"/>
      <point x="398.582" y="145.38" type="line"/>
      <point x="600.666" y="110.38" type="line"/>
      <point x="600.666" y="0.0" type="line"/>
    </contour>
  </outline>
</glyph>
<glyph name="O" format="2">
  <advance width="1747"/>
  <unicode hex="004F"/>
  <outline>
    <contour>
      <point x="74.81" y="739.076" type="qcurve" smooth="yes"/>
      <point x="74.81" y="1070.076"/>
      <point x="515.76" y="1522.422"/>
      <point x="873.52" y="1522.422" type="qcurve" smooth="yes"/>
      <point x="1231.626" y="1522.422"/>
      <point x="1672.23" y="1099.076"/>
      <point x="1672.23" y="754.076" type="qcurve" smooth="yes"/>
      <point x="1672.23" y="425.076"/>
      <point x="1235.972" y="-28.924"/>
      <point x="877.866" y="-28.924" type="qcurve" smooth="yes"/>
      <point x="524.646" y="-28.924"/>
      <point x="74.81" y="398.076"/>
    </contour>
    <contour>
      <point x="388.294" y="773.768" type="qcurve" smooth="yes"/>
      <point x="388.294" y="465.198"/>
      <point x="659.082" y="115.532"/>
      <point x="875.52" y="115.532" type="qcurve" smooth="yes"/>
      <point x="1111.844" y="115.532"/>
      <point x="1359.092" y="423.544"/>
      <point x="1359.092" y="748.46" type="qcurve" smooth="yes"/>
      <point x="1359.092" y="1039.03"/>
      <point x="1093.92" y="1372.042"/>
      <point x="874.828" y="1372.042" type="qcurve" smooth="yes"/>
      <point x="638.504" y="1372.042"/>
      <point x="388.294" y="1065.456"/>
    </contour>
  </outline>
</glyph>
<glyph name="Q" format="2">
  <advance width="1747"/>
  <unicode hex="0051"/>
  <outline>
    <contour>
      <point x="74.81" y="744.962" type="qcurve" smooth="yes"/>
      <point x="74.81" y="1070.076"/>
      <point x="527.532" y="1522.422"/>
      <point x="873.52" y="1522.422" type="qcurve" smooth="yes"/>
      <point x="1219.854" y="1522.422"/>
      <point x="1672.23" y="1099.076"/>
      <point x="1672.23" y="755.384" type="qcurve" smooth="yes"/>
      <point x="1672.23" y="412.65"/>
      <point x="1210.466" y="-21.73"/>
      <point x="875.25" y="-21.73" type="qcurve" smooth="yes"/>
      <point x="525.182" y="-21.73"/>
      <point x="74.81" y="413.118"/>
    </contour>
    <contour>
      <point x="387.256" y="774.422" type="qcurve" smooth="yes"/>
      <point x="388.56399999999996" y="477.696"/>
      <point x="655.428" y="112.262"/>
      <point x="871.866" y="112.262" type="qcurve" smooth="yes"/>
      <point x="1105.574" y="112.262"/>
      <point x="1356.746" y="442.62"/>
      <point x="1358.054" y="749.768" type="qcurve" smooth="yes"/>
      <point x="1359.362" y="1040.992"/>
      <point x="1093.574" y="1372.042"/>
      <point x="874.482" y="1372.042" type="qcurve" smooth="yes"/>
      <point x="638.158" y="1372.042"/>
      <point x="385.948" y="1073.646"/>
    </contour>
    <contour>
      <point x="292.506" y="-339.9" type="qcurve"/>
      <point x="218.97" y="-277.284" type="line"/>
      <point x="281.16" y="-163.60399999999998"/>
      <point x="465.574" y="-47.73"/>
      <point x="556.57" y="-40.346" type="qcurve"/>
      <point x="758.934" y="359.14" type="line"/>
      <point x="881.356" y="300.646" type="line"/>
      <point x="685.22" y="-66.924" type="line"/>
      <point x="1329.79" y="-252.548" type="line"/>
      <point x="1410.204" y="-252.548"/>
      <point x="1517.774" y="-168.354"/>
      <point x="1551.812" y="-104.666" type="qcurve"/>
      <point x="1644.926" y="-154.936" type="line"/>
      <point x="1597.694" y="-281.426"/>
      <point x="1437.086" y="-455.988"/>
      <point x="1295.398" y="-455.988" type="qcurve"/>
      <point x="560.414" y="-234.828" type="line"/>
      <point x="472.08" y="-234.828"/>
      <point x="348.814" y="-278.904"/>
    </contour>
  </outline>
</glyph>
<glyph name="R" format="2">
  <advance width="1485"/>
  <unicode hex="0052"/>
  <outline>
    <contour>
      <point x="68.16" y="0.0" type="line"/>
      <point x="68.16" y="110.38" type="line"/>
      <point x="265.78" y="146.034" type="line"/>
      <point x="267.78" y="780.16" type="line"/>
      <point x="265.78" y="1341.62" type="line"/>
      <point x="68.16" y="1375.62" type="line"/>
      <point x="68.16" y="1500.0" type="line"/>
      <point x="853.712" y="1500.0" type="line" smooth="yes"/>
      <point x="1068.48" y="1500.0"/>
      <point x="1280.092" y="1311.194"/>
      <point x="1280.092" y="1142.772" type="qcurve" smooth="yes"/>
      <point x="1280.092" y="960.81"/>
      <point x="1029.4" y="720.776"/>
      <point x="856.21" y="720.776" type="qcurve" smooth="yes"/>
      <point x="785.096" y="720.776"/>
      <point x="464.68" y="729.084"/>
      <point x="409.756" y="734.43" type="qcurve"/>
      <point x="409.40999999999997" y="850.19" type="line"/>
      <point x="711.74" y="850.19" type="line" smooth="yes"/>
      <point x="849.402" y="850.19"/>
      <point x="973.41" y="993.582"/>
      <point x="973.41" y="1132.156" type="qcurve" smooth="yes"/>
      <point x="973.41" y="1246.772"/>
      <point x="861.828" y="1364.7"/>
      <point x="741.09" y="1364.7" type="qcurve" smooth="yes"/>
      <point x="585.078" y="1364.7" type="line"/>
      <point x="558.5" y="1347.392" type="line"/>
      <point x="555.192" y="778.776" type="line"/>
      <point x="556.846" y="146.034" type="line"/>
      <point x="760.39" y="110.38" type="line"/>
      <point x="760.39" y="0.0" type="line"/>
    </contour>
    <contour>
      <point x="691.238" y="764.928" type="line"/>
      <point x="965.194" y="811.54" type="line"/>
      <point x="1256.328" y="334.376" type="line" smooth="yes"/>
      <point x="1339.948" y="196.182"/>
      <point x="1460.066" y="112.764"/>
      <point x="1521.218" y="110.38" type="qcurve"/>
      <point x="1521.218" y="0.0" type="line"/>
      <point x="1165.532" y="0.0" type="line"/>
      <point x="1125.806" y="32.456" type="line"/>
    </contour>
  </outline>
</glyph>
<glyph name="U" format="2">
  <advance width="1636"/>
  <unicode hex="0055"/>
  <outline>
    <contour>
      <point x="50.506" y="1375.966" type="line"/>
      <point x="50.506" y="1500.0" type="line"/>
      <point x="729.58" y="1500.0" type="line"/>
      <point x="729.58" y="1375.966" type="line"/>
      <point x="539.534" y="1341.966" type="line"/>
      <point x="535.226" y="794.0" type="line"/>
      <point x="538.534" y="475.73" type="line" smooth="yes"/>
      <point x="540.188" y="295.494"/>
      <point x="742.698" y="138.22"/>
      <point x="908.896" y="138.22" type="qcurve" smooth="yes"/>
      <point x="1060.554" y="138.22"/>
      <point x="1275.254" y="312.224"/>
      <point x="1276.254" y="494.0" type="qcurve" smooth="yes"/>
      <point x="1277.908" y="794.0" type="line"/>
      <point x="1276.254" y="1341.966" type="line"/>
      <point x="1075.554" y="1375.966" type="line"/>
      <point x="1075.554" y="1500.0" type="line"/>
      <point x="1615.95" y="1500.0" type="line"/>
      <point x="1615.95" y="1375.966" type="line"/>
      <point x="1422.482" y="1341.966" type="line"/>
      <point x="1420.828" y="794.0" type="line"/>
      <point x="1423.482" y="487.81" type="line" smooth="yes"/>
      <point x="1426.136" y="233.346"/>
      <point x="1105.908" y="-29.27"/>
      <point x="848.224" y="-29.27" type="qcurve" smooth="yes"/>
      <point x="569.772" y="-29.27"/>
      <point x="239.586" y="234.042"/>
      <point x="241.24" y="475.81" type="qcurve" smooth="yes"/>
      <point x="242.894" y="794.0" type="line"/>
      <point x="241.24" y="1341.966" type="line"/>
    </contour>
  </outline>
</glyph>
<glyph name="Z" format="2">
  <advance width="1255"/>
  <unicode hex="005A"/>
  <outline>
    <contour>
      <point x="78.304" y="0.0" type="line"/>
      <point x="47.266" y="98.92" type="line"/>
      <point x="843.978" y="1357.738" type="line"/>
      <point x="835.324" y="1368.16" type="line"/>
      <point x="273.916" y="1368.16" type="line"/>
      <point x="234.11" y="1066.996" type="line"/>
      <point x="100.692" y="1066.996" type="line"/>
      <point x="100.692" y="1500.0" type="line"/>
      <point x="1189.576" y="1500.0" type="line"/>
      <point x="1189.576" y="1398.62" type="line"/>
      <point x="392.168" y="135.798" type="line"/>
      <point x="400.514" y="125.3" type="line"/>
      <point x="1028.508" y="125.3" type="line"/>
      <point x="1104.854" y="395.646" type="line"/>
      <point x="1234.23" y="395.646" type="line"/>
      <point x="1193.192" y="0.0" type="line"/>
    </contour>
  </outline>
</glyph>
<glyph name="bracketright" format="2">
  <advance width="675"/>
  <unicode hex="005D"/>
  <outline>
    <contour>
      <point x="57.08" y="-480.0" type="line"/>
      <point x="57.08" y="-361.0" type="line"/>
      <point x="292.206" y="-342.0" type="line"/>
      <point x="304.206" y="508.0" type="line"/>
      <point x="292.206" y="1362.0" type="line"/>
      <point x="57.08" y="1381.0" type="line"/>
      <point x="57.08" y="1500.0" type="line"/>
      <point x="577.014" y="1500.0" type="line"/>
      <point x="577.014" y="1382.0" type="line"/>
      <point x="558.014" y="1362.0" type="line"/>
      <point x="546.014" y="508.0" type="line"/>
      <point x="558.014" y="-342.0" type="line"/>
      <point x="577.014" y="-362.0" type="line"/>
      <point x="577.014" y="-480.0" type="line"/>
    </contour>
  </outline>
</glyph>
<glyph name="h" format="2">
  <advance width="1401"/>
  <unicode hex="0068"/>
  <outline>
    <contour>
      <point x="61.122" y="0.0" type="line"/>
      <point x="61.122" y="93.84" type="line"/>
      <point x="205.198" y="128.84" type="line"/>
      <point x="207.198" y="539.11" type="line"/>
      <point x="205.198" y="1362.16" type="line"/>
      <point x="45.426" y="1392.16" type="line"/>
      <point x="45.426" y="1500.0" type="line"/>
      <point x="413.808" y="1534.0" type="line"/>
      <point x="445.808" y="1534.0" type="line"/>
      <point x="483.842" y="1496.81" type="line"/>
      <point x="483.188" y="870.3" type="line"/>
      <point x="544.7239999999999" y="943.224"/>
      <point x="750.64" y="1039.3"/>
      <point x="868.902" y="1039.3" type="qcurve" smooth="yes"/>
      <point x="1035.012" y="1039.3"/>
      <point x="1198.316" y="884.418"/>
      <point x="1198.316" y="754.418" type="qcurve" smooth="yes"/>
      <point x="1198.316" y="685.262"/>
      <point x="1195.046" y="539.11"/>
      <point x="1195.046" y="538.764" type="qcurve"/>
      <point x="1200.392" y="128.84" type="line"/>
      <point x="1349.084" y="93.84" type="line"/>
      <point x="1349.084" y="0.0" type="line"/>
      <point x="776.204" y="0.0" type="line"/>
      <point x="776.204" y="93.84" type="line"/>
      <point x="918.98" y="128.84" type="line"/>
      <point x="921.672" y="521.118" type="line"/>
      <point x="921.672" y="689.506" type="line" smooth="yes"/>
      <point x="921.672" y="758.966"/>
      <point x="827.284" y="855.856"/>
      <point x="743.01" y="855.856" type="qcurve" smooth="yes"/>
      <point x="670.584" y="855.856"/>
      <point x="527.96" y="784.7"/>
      <point x="482.534" y="721.54" type="qcurve"/>
      <point x="481.496" y="521.118" type="line"/>
      <point x="483.842" y="128.84" type="line"/>
      <point x="618.036" y="93.84" type="line"/>
      <point x="618.036" y="0.0" type="line"/>
    </contour>
  </outline>
</glyph>
<glyph name="i" format="2">
  <advance width="712"/>
  <unicode hex="0069"/>
  <outline>
    <contour>
      <point x="65.236" y="0.0" type="line"/>
      <point x="65.236" y="93.84" type="line"/>
      <point x="226.316" y="128.84" type="line"/>
      <point x="228.316" y="535.65" type="line"/>
      <point x="223.046" y="847.19" type="line"/>
      <point x="61.966" y="877.19" type="line"/>
      <point x="61.966" y="984.684" type="line"/>
      <point x="423.698" y="1017.992" type="line"/>
      <point x="481.424" y="1017.992" type="line"/>
      <point x="511.344" y="975.532" type="line"/>
      <point x="504.344" y="535.65" type="line"/>
      <point x="506.344" y="128.84" type="line"/>
      <point x="667.424" y="93.84" type="line"/>
      <point x="667.424" y="0.0" type="line"/>
    </contour>
    <contour>
      <point x="161.008" y="1334.232" type="qcurve" smooth="yes"/>
      <point x="161.008" y="1401.882"/>
      <point x="254.726" y="1479.722"/>
      <point x="342.022" y="1479.722" type="qcurve" smooth="yes"/>
      <point x="424.626" y="1479.722"/>
      <point x="524.766" y="1399.958"/>
      <point x="524.42" y="1334.232" type="qcurve" smooth="yes"/>
      <point x="524.42" y="1268.658"/>
      <point x="430.702" y="1192.894"/>
      <point x="342.714" y="1192.894" type="qcurve" smooth="yes"/>
      <point x="260.456" y="1192.894"/>
      <point x="161.008" y="1272.658"/>
    </contour>
  </outline>
</glyph>
<glyph name="j" format="2">
  <advance width="648"/>
  <unicode hex="006A"/>
  <outline>
    <contour>
      <point x="-12.0" y="-479.0" type="qcurve"/>
      <point x="-12.0" y="-333.7" type="line"/>
      <point x="110.08" y="-330.7"/>
      <point x="208.198" y="-237.78"/>
      <point x="208.198" y="-122.7" type="qcurve" smooth="yes"/>
      <point x="206.544" y="535.65" type="line"/>
      <point x="201.928" y="847.19" type="line"/>
      <point x="40.848" y="877.19" type="line"/>
      <point x="40.848" y="984.684" type="line"/>
      <point x="402.926" y="1017.992" type="line"/>
      <point x="460.306" y="1017.992" type="line"/>
      <point x="490.226" y="975.532" type="line"/>
      <point x="484.226" y="535.65" type="line"/>
      <point x="486.572" y="-115.08" type="line" smooth="yes"/>
      <point x="487.572" y="-294.08"/>
      <point x="264.778" y="-491.73"/>
    </contour>
    <contour>
      <point x="140.236" y="1334.232" type="qcurve" smooth="yes"/>
      <point x="140.236" y="1401.882"/>
      <point x="233.954" y="1479.722"/>
      <point x="321.25" y="1479.722" type="qcurve" smooth="yes"/>
      <point x="403.854" y="1479.722"/>
      <point x="503.99399999999997" y="1399.958"/>
      <point x="503.648" y="1334.232" type="qcurve" smooth="yes"/>
      <point x="503.648" y="1268.658"/>
      <point x="409.93" y="1192.894"/>
      <point x="321.942" y="1192.894" type="qcurve" smooth="yes"/>
      <point x="239.684" y="1192.894"/>
      <point x="140.236" y="1272.658"/>
    </contour>
  </outline>
</glyph>
<glyph name="k" format="2">
  <advance width="1300"/>
  <unicode hex="006B"/>
  <outline>
    <contour>
      <point x="61.122" y="0.0" type="line"/>
      <point x="61.122" y="93.84" type="line"/>
      <point x="205.198" y="128.84" type="line"/>
      <point x="207.198" y="528.73" type="line"/>
      <point x="205.198" y="1362.16" type="line"/>
      <point x="45.426" y="1392.16" type="line"/>
      <point x="45.426" y="1500.0" type="line"/>
      <point x="413.808" y="1534.0" type="line"/>
      <point x="445.808" y="1534.0" type="line"/>
      <point x="483.842" y="1496.81" type="line"/>
      <point x="483.572" y="522.57" type="line"/>
      <point x="483.842" y="128.84" type="line"/>
      <point x="618.036" y="93.84" type="line"/>
      <point x="618.036" y="0.0" type="line"/>
    </contour>
    <contour>
      <point x="449.11199999999997" y="400.624" type="line"/>
      <point x="430.73199999999997" y="522.426" type="line"/>
      <point x="836.956" y="880.0" type="line"/>
      <point x="696.184" y="910.0" type="line"/>
      <point x="696.184" y="1017.3" type="line"/>
      <point x="1180.936" y="1017.3" type="line"/>
      <point x="1180.936" y="910.0" type="line"/>
      <point x="1014.978" y="875.0" type="line"/>
    </contour>
    <contour>
      <point x="580.922" y="569.97" type="line"/>
      <point x="775.4639999999999" y="745.782" type="line"/>
      <point x="1167.278" y="128.84" type="line"/>
      <point x="1283.894" y="93.84" type="line"/>
      <point x="1283.894" y="0.0" type="line"/>
      <point x="872.444" y="0.0" type="line"/>
      <point x="859.06" y="89.38" type="line"/>
      <point x="868.06" y="121.38" type="line"/>
    </contour>
  </outline>
</glyph>
<glyph name="r" format="2">
  <advance width="955"/>
  <unicode hex="0072"/>
  <anchor x="310.0" y="0" name="bottom"/>
  <outline>
    <contour>
      <point x="62.16" y="0.0" type="line"/>
      <point x="62.16" y="93.84" type="line"/>
      <point x="208.776" y="128.84" type="line"/>
      <point x="210.776" y="532.19" type="line"/>
      <point x="209.122" y="847.19" type="line"/>
      <point x="61.122" y="877.19" type="line"/>
      <point x="61.122" y="984.684" type="line"/>
      <point x="422.922" y="1021.452" type="line"/>
      <point x="457.922" y="994.452" type="line"/>
      <point x="481.884" y="875.224" type="line"/>
      <point x="536.538" y="931.376"/>
      <point x="715.382" y="1019.03"/>
      <point x="834.804" y="1019.03" type="qcurve" smooth="yes"/>
      <point x="924.154" y="1019.03" type="line"/>
      <point x="924.154" y="711.35" type="line"/>
      <point x="799.2" y="711.35" type="line"/>
      <point x="767.276" y="845.084" type="line"/>
      <point x="696.428" y="848.506"/>
      <point x="546.614" y="796.81"/>
      <point x="488.188" y="729.152" type="qcurve"/>
      <point x="487.496" y="532.19" type="line"/>
      <point x="489.496" y="128.84" type="line"/>
      <point x="649.226" y="93.84" type="line"/>
      <point x="649.226" y="0.0" type="line"/>
    </contour>
  </outline>
</glyph>
<glyph name="t" format="2">
  <advance width="745"/>
  <unicode hex="0074"/>
  <outline>
    <contour>
      <point x="24.616" y="872.692" type="line"/>
      <point x="24.616" y="966.76" type="line"/>
      <point x="155.072" y="995.452"/>
      <point x="289.026" y="1133.57"/>
      <point x="328.946" y="1218.406" type="qcurve"/>
      <point x="434.074" y="1218.406" type="line"/>
      <point x="476.07" y="1170.448" type="line"/>
      <point x="471.07" y="991.3" type="line"/>
      <point x="682.762" y="991.3" type="line"/>
      <point x="682.762" y="872.0" type="line"/>
      <point x="468.378" y="872.0" type="line"/>
      <point x="459.07" y="535.65" type="line"/>
      <point x="463.416" y="230.878" type="line" smooth="yes"/>
      <point x="464.416" y="171.76"/>
      <point x="518.994" y="128.376"/>
      <point x="589.808" y="128.376" type="qcurve" smooth="yes"/>
      <point x="683.222" y="128.376" type="line"/>
      <point x="683.222" y="29.346" type="line"/>
      <point x="349.604" y="-10.422" type="line"/>
      <point x="253.92" y="-10.422"/>
      <point x="178.274" y="79.228"/>
      <point x="178.966" y="171.304" type="qcurve" smooth="yes"/>
      <point x="181.388" y="535.65" type="line"/>
      <point x="181.388" y="858.616" type="line"/>
    </contour>
  </outline>
</glyph>
<glyph name="u" format="2">
  <advance width="1388"/>
  <unicode hex="0075"/>
  <outline>
    <contour>
      <point x="43.89" y="877.19" type="line"/>
      <point x="43.89" y="984.684" type="line"/>
      <point x="389.774" y="1017.992" type="line"/>
      <point x="439.652" y="1017.992" type="line"/>
      <point x="470.88" y="977.494" type="line"/>
      <point x="469.226" y="481.65" type="line"/>
      <point x="469.226" y="308.76" type="line" smooth="yes"/>
      <point x="469.226" y="245.182"/>
      <point x="560.154" y="153.136"/>
      <point x="642.698" y="153.136" type="qcurve" smooth="yes"/>
      <point x="713.086" y="152.79"/>
      <point x="861.938" y="220.832"/>
      <point x="905.98" y="285.76" type="qcurve"/>
      <point x="906.98" y="481.65" type="line"/>
      <point x="904.98" y="847.19" type="line"/>
      <point x="767.672" y="877.19" type="line"/>
      <point x="767.672" y="984.684" type="line"/>
      <point x="1104.594" y="1017.992" type="line"/>
      <point x="1154.472" y="1017.992" type="line"/>
      <point x="1185.7" y="977.494" type="line"/>
      <point x="1183.7" y="481.65" type="line"/>
      <point x="1185.7" y="162.186" type="line"/>
      <point x="1332.316" y="132.186" type="line"/>
      <point x="1332.316" y="31.232" type="line"/>
      <point x="972.592" y="-2.768" type="line"/>
      <point x="929.98" y="31.152" type="line"/>
      <point x="905.98" y="142.502" type="line"/>
      <point x="844.136" y="68.194"/>
      <point x="636.798" y="-21.692"/>
      <point x="520.266" y="-21.692" type="qcurve" smooth="yes"/>
      <point x="354.848" y="-21.692"/>
      <point x="190.16" y="132.498"/>
      <point x="190.16" y="262.844" type="qcurve" smooth="yes"/>
      <point x="190.16" y="334.152"/>
      <point x="194.122" y="474.988"/>
      <point x="194.122" y="491.338" type="qcurve" smooth="yes"/>
      <point x="189.814" y="847.19" type="line"/>
    </contour>
  </outline>
</glyph>
<glyph name="v" format="2">
  <advance width="1162"/>
  <unicode hex="0076"/>
  <outline>
    <contour>
      <point x="-6.54" y="910.0" type="line"/>
      <point x="-6.54" y="1017.3" type="line"/>
      <point x="541.328" y="1017.3" type="line"/>
      <point x="541.328" y="910.0" type="line"/>
      <point x="412.826" y="873.346" type="line"/>
      <point x="532.058" y="555.76" type="line"/>
      <point x="650.8299999999999" y="242.36" type="line"/>
      <point x="769.4879999999999" y="560.49" type="line"/>
      <point x="881.492" y="878.27" type="line"/>
      <point x="748.644" y="910.0" type="line"/>
      <point x="748.644" y="1017.3" type="line"/>
      <point x="1177.792" y="1017.3" type="line"/>
      <point x="1177.792" y="910.0" type="line"/>
      <point x="1033.598" y="875.0" type="line"/>
      <point x="891.134" y="520.182" type="line"/>
      <point x="697.8679999999999" y="-5.232" type="line"/>
      <point x="471.03" y="-5.232" type="line"/>
      <point x="280.186" y="482.384" type="line"/>
      <point x="117.342" y="875.0" type="line"/>
    </contour>
  </outline>
</glyph>
<glyph name="w" format="2">
  <advance width="1730"/>
  <unicode hex="0077"/>
  <outline>
    <contour>
      <point x="-6.54" y="910.0" type="line"/>
      <point x="-6.54" y="1017.3" type="line"/>
      <point x="514.686" y="1017.3" type="line"/>
      <point x="514.686" y="910.0" type="line"/>
      <point x="392.066" y="873.692" type="line"/>
      <point x="496.61" y="548.988" type="line"/>
      <point x="610.424" y="234.322" type="line"/>
      <point x="706.314" y="500.296" type="line"/>
      <point x="822.432" y="860.49" type="line"/>
      <point x="923.04" y="758.414" type="line"/>
      <point x="808.344" y="444.40999999999997" type="line"/>
      <point x="653.344" y="-5.232" type="line"/>
      <point x="431.198" y="-5.232" type="line"/>
      <point x="254.62" y="495.68399999999997" type="line"/>
      <point x="110.422" y="875.0" type="line"/>
    </contour>
    <contour>
      <point x="652.15" y="910.0" type="line"/>
      <point x="652.15" y="1017.3" type="line"/>
      <point x="1153.228" y="1017.3" type="line"/>
      <point x="1153.228" y="910.0" type="line"/>
      <point x="1034.414" y="873.692" type="line"/>
      <point x="1152.768" y="512.022" type="line"/>
      <point x="1251.696" y="240.82" type="line"/>
      <point x="1363.05" y="553.49" type="line"/>
      <point x="1468.556" y="878.27" type="line"/>
      <point x="1343.666" y="910.0" type="line"/>
      <point x="1343.666" y="1017.3" type="line"/>
      <point x="1746.244" y="1017.3" type="line"/>
      <point x="1746.244" y="910.0" type="line"/>
      <point x="1607.586" y="875.0" type="line"/>
      <point x="1474.54" y="516.334" type="line"/>
      <point x="1303.384" y="-5.232" type="line"/>
      <point x="1081.238" y="-5.232" type="line"/>
      <point x="917.162" y="470.406" type="line"/>
      <point x="765.652" y="875.0" type="line"/>
    </contour>
  </outline>
</glyph>
<glyph name="braceright" format="2">
  <advance width="731"/>
  <unicode hex="007D"/>
  <outline>
    <contour>
      <point x="15.692" y="-483.308" type="qcurve"/>
      <point x="15.692" y="-371.308" type="line"/>
      <point x="64.232" y="-373.308"/>
      <point x="108.27" y="-373.308"/>
      <point x="154.156" y="-373.308" type="qcurve" smooth="yes"/>
      <point x="232.696" y="-373.308"/>
      <point x="322.122" y="-278.692"/>
      <point x="322.122" y="-181.384" type="qcurve" smooth="yes"/>
      <point x="322.122" y="-80.076"/>
      <point x="205.708" y="225.422"/>
      <point x="205.708" y="319.882" type="qcurve" smooth="yes"/>
      <point x="205.708" y="392.304"/>
      <point x="277.046" y="521.19"/>
      <point x="361.152" y="551.384" type="qcurve"/>
      <point x="286.624" y="572.73"/>
      <point x="205.708" y="697.0"/>
      <point x="205.708" y="792.0" type="qcurve" smooth="yes"/>
      <point x="205.708" y="883.0"/>
      <point x="325.202" y="1098.498"/>
      <point x="325.202" y="1200.152" type="qcurve" smooth="yes"/>
      <point x="325.202" y="1297.46"/>
      <point x="239.392" y="1388.0"/>
      <point x="161.544" y="1388.0" type="qcurve" smooth="yes"/>
      <point x="115.658" y="1388.0"/>
      <point x="59.924" y="1388.0"/>
      <point x="11.384" y="1386.0" type="qcurve"/>
      <point x="11.384" y="1500.0" type="line"/>
      <point x="45.962" y="1503.0"/>
      <point x="185.052" y="1510.0"/>
      <point x="251.208" y="1510.0" type="qcurve" smooth="yes"/>
      <point x="398.904" y="1510.0"/>
      <point x="581.668" y="1343.0"/>
      <point x="581.668" y="1184.0" type="qcurve" smooth="yes"/>
      <point x="581.668" y="1066.0"/>
      <point x="445.094" y="835.73"/>
      <point x="445.094" y="724.65" type="qcurve" smooth="yes"/>
      <point x="445.094" y="662.422"/>
      <point x="505.166" y="605.422"/>
      <point x="559.782" y="600.73" type="qcurve" smooth="yes"/>
      <point x="676.596" y="590.73" type="line"/>
      <point x="676.596" y="479.27" type="line"/>
      <point x="446.094" y="479.27" type="line"/>
      <point x="446.094" y="364.0" type="line"/>
      <point x="446.094" y="246.0"/>
      <point x="578.588" y="-50.0"/>
      <point x="578.588" y="-168.0" type="qcurve" smooth="yes"/>
      <point x="578.588" y="-327.0"/>
      <point x="395.668" y="-495.0"/>
      <point x="236.554" y="-495.0" type="qcurve" smooth="yes"/>
      <point x="170.398" y="-495.0"/>
      <point x="50.27" y="-486.308"/>
    </contour>
  </outline>
</glyph>
<glyph name="exclamdown" format="2">
  <advance width="662"/>
  <unicode hex="00A1"/>
  <outline>
    <contour>
      <point x="500.668" y="1184.24" type="qcurve" smooth="yes"/>
      <point x="500.668" y="1117.244"/>
      <point x="404.444" y="1019.826"/>
      <point x="328.988" y="1019.826" type="qcurve" smooth="yes"/>
      <point x="253.532" y="1019.826"/>
      <point x="157.308" y="1117.244"/>
      <point x="157.308" y="1184.24" type="qcurve" smooth="yes"/>
      <point x="157.308" y="1250.582"/>
      <point x="253.532" y="1348.0"/>
      <point x="328.988" y="1348.0" type="qcurve" smooth="yes"/>
      <point x="404.444" y="1348.0"/>
      <point x="500.668" y="1250.582"/>
    </contour>
    <contour>
      <point x="468.31399999999996" y="-66.28200000000001" type="line" smooth="yes"/>
      <point x="471.65999999999997" y="-140.164"/>
      <point x="400.174" y="-236.852"/>
      <point x="332.372" y="-237.506" type="qcurve" smooth="yes"/>
      <point x="264.224" y="-238.506"/>
      <point x="188.046" y="-141.472"/>
      <point x="191.392" y="-66.936" type="qcurve" smooth="yes"/>
      <point x="204.7" y="218.0" type="line"/>
      <point x="246.46" y="526.0" type="line"/>
      <point x="273.3" y="870.24" type="line"/>
      <point x="388.06" y="870.24" type="line"/>
      <point x="414.9" y="526.0" type="line"/>
      <point x="455.006" y="218.0" type="line"/>
    </contour>
  </outline>
</glyph>
<glyph name="ordfeminine" format="2">
  <advance width="1054"/>
  <unicode hex="00AA"/>
  <outline>
    <contour>
      <point x="71.076" y="889.962" type="qcurve" smooth="yes"/>
      <point x="71.076" y="1011.536"/>
      <point x="359.308" y="1178.886"/>
      <point x="662.646" y="1207.734" type="qcurve"/>
      <point x="670.3" y="1115.89" type="line"/>
      <point x="500.752" y="1097.426"/>
      <point x="304.158" y="1004.388"/>
      <point x="304.85" y="899.0" type="qcurve" smooth="yes"/>
      <point x="305.196" y="840.806"/>
      <point x="383.74" y="785.806"/>
      <point x="438.972" y="785.806" type="qcurve" smooth="yes"/>
      <point x="496.63" y="785.806"/>
      <point x="617.026" y="853.426"/>
      <point x="641.182" y="895.658" type="qcurve"/>
      <point x="643.182" y="1191.62" type="line" smooth="yes"/>
      <point x="644.182" y="1332.316"/>
      <point x="554.49" y="1424.122"/>
      <point x="466.3" y="1424.122" type="qcurve" smooth="yes"/>
      <point x="398.718" y="1424.122"/>
      <point x="302.178" y="1395.004"/>
      <point x="278.022" y="1377.118" type="qcurve"/>
      <point x="294.292" y="1361.194"/>
      <point x="314.562" y="1324.194"/>
      <point x="315.908" y="1305.118" type="qcurve" smooth="yes"/>
      <point x="322.216" y="1266.928"/>
      <point x="277.68" y="1217.122"/>
      <point x="234.106" y="1215.738" type="qcurve" smooth="yes"/>
      <point x="189.84" y="1214.354"/>
      <point x="133.114" y="1281.43"/>
      <point x="133.114" y="1339.198" type="qcurve" smooth="yes"/>
      <point x="133.114" y="1423.08"/>
      <point x="345.528" y="1543.0"/>
      <point x="518.512" y="1543.0" type="qcurve" smooth="yes"/>
      <point x="699.192" y="1543.0"/>
      <point x="875.336" y="1384.962"/>
      <point x="876.99" y="1201.958" type="qcurve" smooth="yes"/>
      <point x="881.298" y="782.422" type="line"/>
      <point x="1008.876" y="753.422" type="line"/>
      <point x="1008.876" y="675.696" type="line"/>
      <point x="705.414" y="675.696" type="line"/>
      <point x="661.76" y="725.696" type="line"/>
      <point x="652.798" y="775.084" type="line"/>
      <point x="612.836" y="731.392"/>
      <point x="447.216" y="661.696"/>
      <point x="346.68" y="661.696" type="qcurve" smooth="yes"/>
      <point x="215.958" y="661.696"/>
      <point x="71.076" y="794.35"/>
    </contour>
  </outline>
</glyph>
<glyph name="logicalnot" format="2">
  <advance width="1044"/>
  <unicode hex="00AC"/>
  <outline>
    <contour>
      <point x="64.308" y="747.444" type="line"/>
      <point x="953.566" y="747.444" type="line"/>
      <point x="953.566" y="204.152" type="line"/>
      <point x="734.746" y="204.152" type="line"/>
      <point x="734.746" y="551.156" type="line"/>
      <point x="64.308" y="551.156" type="line"/>
    </contour>
  </outline>
</glyph>
<glyph name="registered" format="2">
  <advance width="2048"/>
  <unicode hex="00AE"/>
  <outline>
    <contour>
      <point x="101.0" y="685.0" type="qcurve" smooth="yes"/>
      <point x="101.0" y="1061.0"/>
      <point x="622.0" y="1570.0"/>
      <point x="1026.0" y="1570.0" type="qcurve" smooth="yes"/>
      <point x="1428.0" y="1570.0"/>
      <point x="1947.0" y="1087.0"/>
      <point x="1947.0" y="706.0" type="qcurve" smooth="yes"/>
      <point x="1947.0" y="288.0"/>
      <point x="1435.0" y="-242.0"/>
      <point x="1038.0" y="-242.0" type="qcurve" smooth="yes"/>
      <point x="629.0" y="-242.0"/>
      <point x="101.0" y="276.0"/>
    </contour>
    <contour>
      <point x="281.57" y="680.654" type="qcurve" smooth="yes"/>
      <point x="281.57" y="341.92"/>
      <point x="729.228" y="-101.738"/>
      <point x="1053.308" y="-101.738" type="qcurve" smooth="yes"/>
      <point x="1367.734" y="-101.738"/>
      <point x="1766.43" y="366.228"/>
      <point x="1766.43" y="697.308" type="qcurve" smooth="yes"/>
      <point x="1766.43" y="999.734"/>
      <point x="1345.08" y="1429.738"/>
      <point x="1006.346" y="1429.738" type="qcurve" smooth="yes"/>
      <point x="685.266" y="1429.738"/>
      <point x="281.57" y="991.08"/>
    </contour>
    <contour>
      <point x="591.54" y="176.0" type="line"/>
      <point x="585.0" y="266.0" type="line"/>
      <point x="695.08" y="290.0" type="line"/>
      <point x="706.08" y="723.0" type="line"/>
      <point x="695.08" y="1081.08" type="line"/>
      <point x="575.0" y="1104.08" type="line"/>
      <point x="575.0" y="1209.0" type="line"/>
      <point x="1054.92" y="1209.0" type="line" smooth="yes"/>
      <point x="1212.92" y="1209.0"/>
      <point x="1376.3" y="1075.08"/>
      <point x="1376.3" y="954.16" type="qcurve" smooth="yes"/>
      <point x="1376.3" y="818.856"/>
      <point x="1178.92" y="646.7"/>
      <point x="1052.92" y="646.7" type="qcurve" smooth="yes"/>
      <point x="1001.92" y="646.7"/>
      <point x="872.3" y="655.7"/>
      <point x="848.3" y="655.7" type="qcurve"/>
      <point x="848.3" y="751.08" type="line"/>
      <point x="984.54" y="751.08" type="line" smooth="yes"/>
      <point x="1103.54" y="751.08"/>
      <point x="1187.54" y="854.16"/>
      <point x="1187.54" y="945.16" type="qcurve" smooth="yes"/>
      <point x="1187.54" y="1028.62"/>
      <point x="1099.0" y="1097.62"/>
      <point x="996.0" y="1097.62" type="qcurve" smooth="yes"/>
      <point x="906.3" y="1097.62" type="line"/>
      <point x="885.3" y="1084.62" type="line"/>
      <point x="872.3" y="716.08" type="line"/>
      <point x="883.3" y="290.0" type="line"/>
      <point x="1004.92" y="266.0" type="line"/>
      <point x="1004.92" y="176.0" type="line"/>
    </contour>
    <contour>
      <point x="952.46" y="703.08" type="line"/>
      <point x="1127.68" y="731.08" type="line"/>
      <point x="1360.38" y="393.0" type="line" smooth="yes"/>
      <point x="1428.612" y="293.616"/>
      <point x="1509.08" y="266.0"/>
      <point x="1551.08" y="266.0" type="qcurve"/>
      <point x="1551.08" y="176.0" type="line"/>
      <point x="1342.78" y="176.0" type="line"/>
      <point x="1300.78" y="190.0" type="line"/>
    </contour>
  </outline>
</glyph>
<glyph name="macron" format="2">
  <advance width="1024"/>
  <unicode hex="00AF"/>
  <outline>
    <contour>
      <point x="207.088" y="1228.0" type="line"/>
      <point x="207.088" y="1382.76" type="line"/>
      <point x="837.84" y="1382.76" type="line"/>
      <point x="837.84" y="1228.0" type="line"/>
    </contour>
  </outline>
</glyph>
<glyph name="paragraph" format="2">
  <advance width="1186"/>
  <unicode hex="00B6"/>
  <outline>
    <contour>
      <point x="1069.132" y="110.38" type="line"/>
      <point x="1069.132" y="0.0" type="line"/>
      <point x="278.072" y="0.0" type="line"/>
      <point x="278.072" y="110.726" type="line"/>
      <point x="773.372" y="141.688" type="line"/>
      <point x="775.372" y="766.24" type="line"/>
      <point x="736.372" y="760.24"/>
      <point x="529.072" y="752.24"/>
      <point x="470.072" y="752.24" type="qcurve" smooth="yes"/>
      <point x="277.072" y="752.24"/>
      <point x="43.072" y="964.78"/>
      <point x="43.072" y="1144.62" type="qcurve" smooth="yes"/>
      <point x="43.072" y="1315.62"/>
      <point x="265.072" y="1500.0"/>
      <point x="457.072" y="1500.0" type="qcurve" smooth="yes"/>
      <point x="1122.132" y="1500.0" type="line"/>
      <point x="1122.132" y="1375.62" type="line"/>
      <point x="921.132" y="1341.62" type="line"/>
      <point x="919.132" y="754.0" type="line"/>
      <point x="921.132" y="144.958" type="line"/>
    </contour>
    <contour>
      <point x="620.372" y="61.379999999999995" type="line"/>
      <point x="466.072" y="56.379999999999995" type="line"/>
      <point x="468.072" y="766.24" type="line"/>
      <point x="618.372" y="773.24" type="line"/>
    </contour>
  </outline>
</glyph>
<glyph name="periodcentered" format="2">
  <advance width="615"/>
  <unicode hex="00B7"/>
  <outline>
    <contour>
      <point x="128.278" y="662.582" type="qcurve" smooth="yes"/>
      <point x="128.278" y="733.384"/>
      <point x="229.0" y="837.722"/>
      <point x="307.224" y="837.722" type="qcurve" smooth="yes"/>
      <point x="385.448" y="837.722"/>
      <point x="486.516" y="733.384"/>
      <point x="486.516" y="662.582" type="qcurve" smooth="yes"/>
      <point x="486.516" y="593.472"/>
      <point x="385.448" y="488.788"/>
      <point x="307.224" y="488.788" type="qcurve" smooth="yes"/>
      <point x="229.0" y="488.788"/>
      <point x="128.278" y="593.472"/>
    </contour>
  </outline>
</glyph>
<glyph name="cedilla" format="2">
  <advance width="1024"/>
  <unicode hex="00B8"/>
  <outline>
    <contour>
      <point x="576.806" y="-3.73" type="line"/>
      <point x="504.962" y="-129.076" type="line"/>
      <point x="523.692" y="-122.73"/>
      <point x="588.958" y="-111.806"/>
      <point x="622.072" y="-111.806" type="qcurve" smooth="yes"/>
      <point x="707.068" y="-111.806"/>
      <point x="828.102" y="-202.498"/>
      <point x="828.102" y="-296.342" type="qcurve" smooth="yes"/>
      <point x="828.102" y="-394.456"/>
      <point x="671.916" y="-515.03"/>
      <point x="558.426" y="-515.03" type="qcurve" smooth="yes"/>
      <point x="461.122" y="-515.03"/>
      <point x="299.278" y="-469.3"/>
      <point x="242.088" y="-425.916" type="qcurve"/>
      <point x="296.51" y="-318.992" type="line"/>
      <point x="338.31600000000003" y="-350.3"/>
      <point x="450.776" y="-390.84"/>
      <point x="521.004" y="-390.84" type="qcurve" smooth="yes"/>
      <point x="572.616" y="-390.84"/>
      <point x="645.346" y="-342.802"/>
      <point x="645.346" y="-295.418" type="qcurve" smooth="yes"/>
      <point x="645.346" y="-253.802"/>
      <point x="584.962" y="-214.996"/>
      <point x="532.962" y="-214.996" type="qcurve" smooth="yes"/>
      <point x="499.194" y="-214.996"/>
      <point x="446.388" y="-222.996"/>
      <point x="428.35" y="-229.34199999999998" type="qcurve"/>
      <point x="363.468" y="-154.92" type="line"/>
      <point x="477.502" y="51.0" type="line"/>
    </contour>
  </outline>
</glyph>
<glyph name="guillemetright" format="2">
  <advance width="1377"/>
  <unicode hex="00BB"/>
  <outline>
    <contour>
      <point x="1347.078" y="583.46" type="line"/>
      <point x="1266.192" y="534.768"/>
      <point x="769.192" y="223.616"/>
      <point x="700.998" y="180.0" type="qcurve" smooth="yes"/>
      <point x="618.888" y="127.004"/>
      <point x="529.968" y="251.684"/>
      <point x="608.078" y="305.296" type="qcurve" smooth="yes"/>
      <point x="717.4159999999999" y="380.714"/>
      <point x="1032.284" y="583.304"/>
      <point x="1063.668" y="600.688" type="qcurve"/>
      <point x="1032.976" y="621.304"/>
      <point x="696.04" y="846.966"/>
      <point x="604.078" y="910.62" type="qcurve" smooth="yes"/>
      <point x="527.314" y="963.27"/>
      <point x="601.732" y="1087.376"/>
      <point x="681.998" y="1043.84" type="qcurve" smooth="yes"/>
      <point x="746.268" y="1009.494"/>
      <point x="1272.078" y="678.38"/>
      <point x="1347.078" y="630.38" type="qcurve"/>
    </contour>
    <contour>
      <point x="832.064" y="583.46" type="line"/>
      <point x="751.178" y="534.768"/>
      <point x="254.178" y="223.616"/>
      <point x="185.98399999999998" y="180.0" type="qcurve" smooth="yes"/>
      <point x="103.874" y="127.004"/>
      <point x="14.953999999999997" y="251.684"/>
      <point x="93.064" y="305.296" type="qcurve" smooth="yes"/>
      <point x="202.402" y="380.714"/>
      <point x="517.27" y="583.304"/>
      <point x="548.654" y="600.688" type="qcurve"/>
      <point x="517.962" y="621.304"/>
      <point x="181.026" y="846.966"/>
      <point x="89.064" y="910.62" type="qcurve" smooth="yes"/>
      <point x="12.299999999999997" y="963.27"/>
      <point x="86.71799999999999" y="1087.376"/>
      <point x="166.98399999999998" y="1043.84" type="qcurve" smooth="yes"/>
      <point x="231.254" y="1009.494"/>
      <point x="757.064" y="678.38"/>
      <point x="832.064" y="630.38" type="qcurve"/>
    </contour>
  </outline>
</glyph>
<glyph name="questiondown" format="2">
  <advance width="1003"/>
  <unicode hex="00BF"/>
  <outline>
    <contour>
      <point x="792.268" y="1183.202" type="qcurve" smooth="yes"/>
      <point x="792.268" y="1116.206"/>
      <point x="696.044" y="1018.788"/>
      <point x="620.588" y="1018.788" type="qcurve" smooth="yes"/>
      <point x="545.132" y="1018.788"/>
      <point x="448.908" y="1116.206"/>
      <point x="448.908" y="1183.202" type="qcurve" smooth="yes"/>
      <point x="448.908" y="1249.544"/>
      <point x="545.132" y="1346.962"/>
      <point x="620.588" y="1346.962" type="qcurve" smooth="yes"/>
      <point x="696.044" y="1346.962"/>
      <point x="792.268" y="1249.544"/>
    </contour>
    <contour>
      <point x="970.546" y="104.456" type="qcurve" smooth="yes"/>
      <point x="970.546" y="-41.658"/>
      <point x="731.318" y="-215.038"/>
      <point x="515.208" y="-215.038" type="qcurve" smooth="yes"/>
      <point x="293.988" y="-215.038"/>
      <point x="36.608" y="-23.038"/>
      <point x="36.608" y="161.962" type="qcurve" smooth="yes"/>
      <point x="36.608" y="347.696"/>
      <point x="247.734" y="547.042"/>
      <point x="359.376" y="592.46" type="qcurve" smooth="yes"/>
      <point x="435.03" y="622.806"/>
      <point x="573.208" y="713.042"/>
      <point x="573.208" y="796.042" type="qcurve" smooth="yes"/>
      <point x="573.208" y="869.202" type="line"/>
      <point x="690.508" y="869.202" type="line"/>
      <point x="705.508" y="785.202" type="line" smooth="yes"/>
      <point x="720.93" y="698.092"/>
      <point x="622.968" y="527.788"/>
      <point x="511.65999999999997" y="463.442" type="qcurve" smooth="yes"/>
      <point x="428.58" y="415.248"/>
      <point x="307.648" y="295.206"/>
      <point x="307.648" y="170.122" type="qcurve" smooth="yes"/>
      <point x="307.648" y="51.038"/>
      <point x="445.888" y="-86.046"/>
      <point x="565.854" y="-86.046" type="qcurve" smooth="yes"/>
      <point x="679.204" y="-86.046"/>
      <point x="805.094" y="-7.004000000000001"/>
      <point x="805.094" y="44.266" type="qcurve" smooth="yes"/>
      <point x="805.094" y="75.342"/>
      <point x="686.516" y="132.726"/>
      <point x="685.208" y="188.992" type="qcurve" smooth="yes"/>
      <point x="683.246" y="231.76"/>
      <point x="747.36" y="300.258"/>
      <point x="811.512" y="300.258" type="qcurve" smooth="yes"/>
      <point x="882.01" y="300.258"/>
      <point x="970.546" y="200.684"/>
    </contour>
  </outline>
</glyph>
<glyph name="AE" format="2">
  <advance width="2087"/>
  <unicode hex="00C6"/>
  <outline>
    <contour>
      <point x="-14.012" y="0.0" type="line"/>
      <point x="-14.012" y="110.726" type="line"/>
      <point x="180.216" y="145.034" type="line"/>
      <point x="419.988" y="540.0" type="line"/>
      <point x="890.992" y="1351.776" type="line"/>
      <point x="765.688" y="1375.966" type="line"/>
      <point x="765.688" y="1500.0" type="line"/>
      <point x="1941.48" y="1500.0" type="line"/>
      <point x="1941.48" y="1147.502" type="line"/>
      <point x="1815.218" y="1147.502" type="line"/>
      <point x="1780.218" y="1368.16" type="line"/>
      <point x="1340.156" y="1368.16" type="line"/>
      <point x="1302.16" y="1346.776" type="line"/>
      <point x="1300.16" y="783.0" type="line"/>
      <point x="1302.16" y="149.646" type="line"/>
      <point x="1338.734" y="125.3" type="line"/>
      <point x="1839.412" y="125.3" type="line"/>
      <point x="1914.028" y="385.958" type="line"/>
      <point x="2039.944" y="385.958" type="line"/>
      <point x="2000.636" y="0.0" type="line"/>
      <point x="814.128" y="0.0" type="line"/>
      <point x="814.128" y="110.38" type="line"/>
      <point x="1011.748" y="146.688" type="line"/>
      <point x="1013.748" y="783.0" type="line"/>
      <point x="1011.748" y="1266.0" type="line"/>
      <point x="987.748" y="1292.0" type="line"/>
      <point x="545.748" y="503.0" type="line"/>
      <point x="350.976" y="141.764" type="line"/>
      <point x="522.748" y="110.726" type="line"/>
      <point x="522.748" y="0.0" type="line"/>
    </contour>
    <contour>
      <point x="441.288" y="465.3" type="line"/>
      <point x="514.208" y="594.68" type="line"/>
      <point x="772.748" y="579.68" type="line"/>
      <point x="772.748" y="465.3" type="line"/>
    </contour>
    <contour>
      <point x="772.748" y="579.68" type="line"/>
      <point x="1116.748" y="595.68" type="line"/>
      <point x="1116.748" y="465.3" type="line"/>
      <point x="772.748" y="465.3" type="line"/>
    </contour>
    <contour>
      <point x="1158.108" y="731.08" type="line"/>
      <point x="1158.108" y="840.92" type="line"/>
      <point x="1659.8220000000001" y="850.92" type="line"/>
      <point x="1692.054" y="1004.346" type="line"/>
      <point x="1813.818" y="1004.346" type="line"/>
      <point x="1813.818" y="565.232" type="line"/>
      <point x="1692.054" y="565.232" type="line"/>
      <point x="1659.8220000000001" y="721.08" type="line"/>
    </contour>
  </outline>
</glyph>
<glyph name="multiply" format="2">
  <advance width="1044"/>
  <unicode hex="00D7"/>
  <outline>
    <contour>
      <point x="267.38" y="241.4" type="line"/>
      <point x="131.78" y="377.346" type="line"/>
      <point x="777.38" y="1022.946" type="line"/>
      <point x="912.98" y="887.0" type="line"/>
    </contour>
    <contour>
      <point x="774.11" y="238.13" type="line"/>
      <point x="128.51" y="883.73" type="line"/>
      <point x="270.65" y="1026.216" type="line"/>
      <point x="916.25" y="380.616" type="line"/>
    </contour>
  </outline>
</glyph>
<glyph name="ae" format="2">
  <advance width="1814"/>
  <unicode hex="00E6"/>
  <outline>
    <contour>
      <point x="70.582" y="257.726" type="qcurve" smooth="yes"/>
      <point x="70.582" y="404.068"/>
      <point x="390.422" y="591.338"/>
      <point x="761.22" y="631.726" type="qcurve"/>
      <point x="769.874" y="531.924" type="line"/>
      <point x="566.44" y="509.498"/>
      <point x="347.462" y="396.536"/>
      <point x="347.462" y="274.338" type="qcurve" smooth="yes"/>
      <point x="347.462" y="204.144"/>
      <point x="425.272" y="126.026"/>
      <point x="502.622" y="126.026" type="qcurve" smooth="yes"/>
      <point x="584.1659999999999" y="126.026"/>
      <point x="744.178" y="214.376"/>
      <point x="781.49" y="271.148" type="qcurve"/>
      <point x="766.836" y="301.532"/>
      <point x="744.988" y="427.73"/>
      <point x="744.988" y="488.768" type="qcurve" smooth="yes"/>
      <point x="744.988" y="615.27" type="line" smooth="yes"/>
      <point x="744.988" y="783.312"/>
      <point x="635.642" y="899.08"/>
      <point x="532.338" y="899.08" type="qcurve" smooth="yes"/>
      <point x="453.756" y="899.08"/>
      <point x="340.832" y="862.346"/>
      <point x="313.676" y="837.882" type="qcurve"/>
      <point x="332.6" y="818.958"/>
      <point x="355.562" y="774.612"/>
      <point x="358.562" y="751.844" type="qcurve" smooth="yes"/>
      <point x="365.216" y="706.27"/>
      <point x="312.912" y="646.08"/>
      <point x="261.916" y="644.35" type="qcurve" smooth="yes"/>
      <point x="209.882" y="642.62"/>
      <point x="143.696" y="723.08"/>
      <point x="143.696" y="792.232" type="qcurve" smooth="yes"/>
      <point x="143.696" y="892.844"/>
      <point x="388.722" y="1041.684"/>
      <point x="584.858" y="1041.684" type="qcurve" smooth="yes"/>
      <point x="716.436" y="1041.684"/>
      <point x="878.466" y="955.102"/>
      <point x="911.694" y="894.828" type="qcurve"/>
      <point x="918.732" y="894.828" type="line"/>
      <point x="953.424" y="943.794"/>
      <point x="1143.732" y="1041.03"/>
      <point x="1280.036" y="1041.03" type="qcurve" smooth="yes"/>
      <point x="1488.876" y="1041.03"/>
      <point x="1735.054" y="806.148"/>
      <point x="1754.708" y="596.996" type="qcurve"/>
      <point x="1754.708" y="522.81" type="line"/>
      <point x="973.678" y="522.81" type="line"/>
      <point x="973.678" y="631.266" type="line"/>
      <point x="1503.668" y="631.266" type="line"/>
      <point x="1490.858" y="775.11"/>
      <point x="1369.462" y="913.19"/>
      <point x="1267.842" y="913.19" type="qcurve" smooth="yes"/>
      <point x="1148.18" y="913.19"/>
      <point x="1014.978" y="727.334"/>
      <point x="1015.978" y="532.456" type="qcurve" smooth="yes"/>
      <point x="1016.978" y="328.342"/>
      <point x="1199.294" y="129.452"/>
      <point x="1357.412" y="129.452" type="qcurve" smooth="yes"/>
      <point x="1463.872" y="129.452"/>
      <point x="1610.982" y="183.178"/>
      <point x="1657.712" y="223.98399999999998" type="qcurve"/>
      <point x="1717.016" y="148.06799999999998" type="line"/>
      <point x="1667.594" y="78.494"/>
      <point x="1461.146" y="-23.73"/>
      <point x="1302.12" y="-23.73" type="qcurve" smooth="yes"/>
      <point x="1127.774" y="-23.73"/>
      <point x="902.478" y="84.776"/>
      <point x="850.638" y="163.004" type="qcurve"/>
      <point x="791.064" y="98.582"/>
      <point x="557.832" y="-16.346"/>
      <point x="399.874" y="-16.346" type="qcurve" smooth="yes"/>
      <point x="230.19" y="-16.346"/>
      <point x="70.582" y="142.692"/>
    </contour>
  </outline>
</glyph>
<glyph name="divide" format="2">
  <advance width="1044"/>
  <unicode hex="00F7"/>
  <outline>
    <contour>
      <point x="74.118" y="533.856" type="line"/>
      <point x="74.118" y="730.144" type="line"/>
      <point x="970.296" y="730.144" type="line"/>
      <point x="970.296" y="533.856" type="line"/>
    </contour>
    <contour>
      <point x="367.468" y="279.32" type="qcurve" smooth="yes"/>
      <point x="367.468" y="340.662"/>
      <point x="453.962" y="433.54"/>
      <point x="521.688" y="433.54" type="qcurve" smooth="yes"/>
      <point x="589.414" y="433.54"/>
      <point x="675.908" y="340.662"/>
      <point x="675.908" y="279.32" type="qcurve" smooth="yes"/>
      <point x="675.908" y="218.632"/>
      <point x="589.414" y="126.1"/>
      <point x="521.688" y="126.1" type="qcurve" smooth="yes"/>
      <point x="453.962" y="126.1"/>
      <point x="367.468" y="218.632"/>
    </contour>
    <contour>
      <point x="367.468" y="984.988" type="qcurve" smooth="yes"/>
      <point x="367.468" y="1046.676"/>
      <point x="453.962" y="1139.208"/>
      <point x="521.688" y="1139.208" type="qcurve" smooth="yes"/>
      <point x="589.414" y="1139.208"/>
      <point x="675.908" y="1046.676"/>
      <point x="675.908" y="984.988" type="qcurve" smooth="yes"/>
      <point x="675.908" y="924.646"/>
      <point x="589.414" y="831.768"/>
      <point x="521.688" y="831.768" type="qcurve" smooth="yes"/>
      <point x="453.962" y="831.768"/>
      <point x="367.468" y="924.646"/>
    </contour>
  </outline>
</glyph>
<glyph name="idotless" format="2">
  <advance width="712"/>
  <unicode hex="0131"/>
  <outline>
    <contour>
      <point x="65.236" y="0.0" type="line"/>
      <point x="65.236" y="93.84" type="line"/>
      <point x="226.316" y="128.84" type="line"/>
      <point x="228.316" y="535.65" type="line"/>
      <point x="223.046" y="847.19" type="line"/>
      <point x="61.966" y="877.19" type="line"/>
      <point x="61.966" y="984.684" type="line"/>
      <point x="423.698" y="1017.992" type="line"/>
      <point x="481.424" y="1017.992" type="line"/>
      <point x="511.344" y="975.532" type="line"/>
      <point x="504.344" y="535.65" type="line"/>
      <point x="506.344" y="128.84" type="line"/>
      <point x="667.424" y="93.84" type="line"/>
      <point x="667.424" y="0.0" type="line"/>
    </contour>
  </outline>
</glyph>
<glyph name="OE" format="2">
  <advance width="2191"/>
  <unicode hex="0152"/>
  <outline>
    <contour>
      <point x="74.81" y="739.076" type="qcurve" smooth="yes"/>
      <point x="74.81" y="1070.076"/>
      <point x="495.76" y="1521.114"/>
      <point x="853.52" y="1521.114" type="qcurve" smooth="yes"/>
      <point x="917.288" y="1521.114"/>
      <point x="1157.612" y="1504.498"/>
      <point x="1214.844" y="1500.0" type="qcurve" smooth="yes"/>
      <point x="2045.438" y="1500.0" type="line"/>
      <point x="2045.438" y="1147.502" type="line"/>
      <point x="1919.176" y="1147.502" type="line"/>
      <point x="1884.176" y="1368.16" type="line"/>
      <point x="1463.734" y="1368.16" type="line"/>
      <point x="1425.738" y="1346.776" type="line"/>
      <point x="1423.738" y="783.0" type="line"/>
      <point x="1425.738" y="149.646" type="line"/>
      <point x="1462.312" y="125.3" type="line"/>
      <point x="1943.37" y="125.3" type="line"/>
      <point x="2017.9859999999999" y="385.958" type="line"/>
      <point x="2143.902" y="385.958" type="line"/>
      <point x="2104.594" y="0.0" type="line"/>
      <point x="1250.278" y="0.0" type="line" smooth="yes"/>
      <point x="1191.776" y="-4.151999999999999"/>
      <point x="931.794" y="-25.654"/>
      <point x="854.406" y="-25.654" type="qcurve" smooth="yes"/>
      <point x="501.186" y="-25.654"/>
      <point x="74.81" y="398.076"/>
    </contour>
    <contour>
      <point x="388.294" y="769.962" type="qcurve" smooth="yes"/>
      <point x="388.294" y="461.392"/>
      <point x="649.116" y="112.916"/>
      <point x="872.8199999999999" y="112.916" type="qcurve" smooth="yes"/>
      <point x="954.972" y="112.916"/>
      <point x="1084.938" y="134.49"/>
      <point x="1135.326" y="152.60399999999998" type="qcurve"/>
      <point x="1137.326" y="772.966" type="line"/>
      <point x="1135.326" y="1334.742" type="line"/>
      <point x="1098.71" y="1349.392"/>
      <point x="947.474" y="1377.274"/>
      <point x="865.208" y="1377.274" type="qcurve" smooth="yes"/>
      <point x="628.884" y="1377.274"/>
      <point x="388.294" y="1061.65"/>
    </contour>
    <contour>
      <point x="1281.686" y="731.08" type="line"/>
      <point x="1281.686" y="840.92" type="line"/>
      <point x="1763.78" y="850.92" type="line"/>
      <point x="1796.012" y="1004.346" type="line"/>
      <point x="1917.776" y="1004.346" type="line"/>
      <point x="1917.776" y="565.232" type="line"/>
      <point x="1796.012" y="565.232" type="line"/>
      <point x="1763.78" y="721.08" type="line"/>
    </contour>
  </outline>
</glyph>
<glyph name="oe" format="2">
  <advance width="2007"/>
  <unicode hex="0153"/>
  <outline>
    <contour>
      <point x="59.848" y="508.65" type="qcurve" smooth="yes"/>
      <point x="59.848" y="736.376"/>
      <point x="383.908" y="1040.684"/>
      <point x="646.702" y="1040.684" type="qcurve" smooth="yes"/>
      <point x="801.516" y="1040.684"/>
      <point x="1020.824" y="929.44"/>
      <point x="1077.432" y="862.744" type="qcurve"/>
      <point x="1088.048" y="862.744" type="line"/>
      <point x="1131.964" y="931.056"/>
      <point x="1323.884" y="1041.03"/>
      <point x="1456.0819999999999" y="1041.03" type="qcurve" smooth="yes"/>
      <point x="1678.416" y="1041.03"/>
      <point x="1927.75" y="806.148"/>
      <point x="1947.404" y="596.996" type="qcurve"/>
      <point x="1947.404" y="522.81" type="line"/>
      <point x="1166.374" y="522.81" type="line"/>
      <point x="1166.374" y="631.266" type="line"/>
      <point x="1696.364" y="631.266" type="line"/>
      <point x="1683.554" y="775.11"/>
      <point x="1562.158" y="913.19"/>
      <point x="1460.538" y="913.19" type="qcurve" smooth="yes"/>
      <point x="1340.876" y="913.19"/>
      <point x="1209.636" y="727.334"/>
      <point x="1210.636" y="532.456" type="qcurve" smooth="yes"/>
      <point x="1211.636" y="328.342"/>
      <point x="1391.99" y="129.452"/>
      <point x="1550.108" y="129.452" type="qcurve" smooth="yes"/>
      <point x="1656.568" y="129.452"/>
      <point x="1803.6779999999999" y="183.178"/>
      <point x="1850.408" y="223.98399999999998" type="qcurve"/>
      <point x="1909.712" y="148.06799999999998" type="line"/>
      <point x="1860.29" y="78.494"/>
      <point x="1653.842" y="-23.73"/>
      <point x="1485.006" y="-23.73" type="qcurve" smooth="yes"/>
      <point x="1352.31" y="-23.73"/>
      <point x="1119.846" y="84.552"/>
      <point x="1064.698" y="163.096" type="qcurve"/>
      <point x="1059.66" y="163.096" type="line"/>
      <point x="1015.208" y="90.476"/>
      <point x="797.322" y="-23.73"/>
      <point x="653.394" y="-23.73" type="qcurve" smooth="yes"/>
      <point x="389.6" y="-23.73"/>
      <point x="59.848" y="264.578"/>
    </contour>
    <contour>
      <point x="356.104" y="526.92" type="qcurve" smooth="yes"/>
      <point x="357.104" y="330.004"/>
      <point x="514.116" y="97.342"/>
      <point x="645.74" y="97.342" type="qcurve" smooth="yes"/>
      <point x="787.326" y="97.342"/>
      <point x="937.722" y="308.35"/>
      <point x="937.722" y="512.92" type="qcurve" smooth="yes"/>
      <point x="937.722" y="702.836"/>
      <point x="780.364" y="910.152"/>
      <point x="647.74" y="910.152" type="qcurve" smooth="yes"/>
      <point x="504.5" y="910.152"/>
      <point x="355.104" y="722.49"/>
    </contour>
  </outline>
</glyph>
<glyph name="Schwa" format="2">
  <advance width="1481"/>
  <unicode hex="018F"/>
  <outline>
    <contour>
      <point x="64.346" y="1209.034" type="line"/>
      <point x="154.042" y="1357.038"/>
      <point x="448.194" y="1519.0"/>
      <point x="665.886" y="1519.0" type="qcurve" smooth="yes"/>
      <point x="1004.422" y="1519.0"/>
      <point x="1406.482" y="1111.646"/>
      <point x="1406.482" y="778.62" type="qcurve" smooth="yes"/>
      <point x="1406.482" y="427.008"/>
      <point x="1002.76" y="-28.962"/>
      <point x="691.308" y="-28.962" type="qcurve" smooth="yes"/>
      <point x="401.468" y="-28.962"/>
      <point x="81.24000000000001" y="281.0"/>
      <point x="81.24000000000001" y="578.0" type="qcurve" smooth="yes"/>
      <point x="81.24000000000001" y="686.0" type="line"/>
      <point x="1228.0" y="686.0" type="line"/>
      <point x="1228.0" y="543.62" type="line"/>
      <point x="665.0" y="551.62" type="line"/>
      <point x="325.68" y="545.62" type="line"/>
      <point x="325.68" y="481.0" type="line" smooth="yes"/>
      <point x="325.68" y="322.612"/>
      <point x="501.27" y="114.99199999999999"/>
      <point x="682.97" y="114.99199999999999" type="qcurve" smooth="yes"/>
      <point x="869.442" y="114.99199999999999"/>
      <point x="1094.998" y="436.742"/>
      <point x="1093.69" y="742.426" type="qcurve" smooth="yes"/>
      <point x="1092.382" y="1062.57"/>
      <point x="817.442" y="1355.624"/>
      <point x="620.898" y="1355.624" type="qcurve" smooth="yes"/>
      <point x="462.772" y="1355.624"/>
      <point x="230.802" y="1230.194"/>
      <point x="170.148" y="1128.076" type="qcurve"/>
    </contour>
  </outline>
</glyph>
<glyph name="florin" format="2">
  <advance width="753"/>
  <unicode hex="0192"/>
  <outline>
    <contour>
      <point x="511.644" y="-37.978" type="line" smooth="yes"/>
      <point x="513.298" y="-156.7"/>
      <point x="363.69" y="-309.346"/>
      <point x="229.78199999999998" y="-309.346" type="qcurve" smooth="yes"/>
      <point x="172.908" y="-309.346"/>
      <point x="66.46" y="-296.118"/>
      <point x="32.27" y="-285.312" type="qcurve" smooth="yes"/>
      <point x="10.232" y="-278.582" type="line"/>
      <point x="20.696" y="-154.62800000000001" type="line"/>
      <point x="40.544" y="-160.936" type="line" smooth="yes"/>
      <point x="50.966" y="-164.32"/>
      <point x="92.346" y="-171.39600000000002"/>
      <point x="111.114" y="-171.39600000000002" type="qcurve" smooth="yes"/>
      <point x="174.924" y="-171.39600000000002"/>
      <point x="243.734" y="-94.662"/>
      <point x="242.426" y="-26.852" type="qcurve" smooth="yes"/>
      <point x="227.578" y="857.924" type="line"/>
      <point x="33.228" y="873.038" type="line"/>
      <point x="26.688" y="980.532" type="line"/>
      <point x="222.692" y="1001.3" type="line"/>
      <point x="216.692" y="1264.556" type="line" smooth="yes"/>
      <point x="213.308" y="1383.278"/>
      <point x="365.954" y="1522.844"/>
      <point x="499.86199999999997" y="1522.844" type="qcurve" smooth="yes"/>
      <point x="556.736" y="1522.844"/>
      <point x="663.184" y="1508.308"/>
      <point x="697.374" y="1498.81" type="qcurve" smooth="yes"/>
      <point x="719.412" y="1492.08" type="line"/>
      <point x="708.948" y="1368.126" type="line"/>
      <point x="689.1" y="1374.434" type="line" smooth="yes"/>
      <point x="678.678" y="1377.818"/>
      <point x="637.298" y="1384.894"/>
      <point x="618.53" y="1384.894" type="qcurve" smooth="yes"/>
      <point x="554.72" y="1384.894"/>
      <point x="486.64" y="1321.24"/>
      <point x="488.948" y="1253.43" type="qcurve" smooth="yes"/>
      <point x="497.834" y="998.494" type="line"/>
      <point x="712.758" y="998.494" type="line"/>
      <point x="712.758" y="879.194" type="line"/>
      <point x="497.488" y="869.578" type="line"/>
    </contour>
  </outline>
</glyph>
<glyph name="primemod" format="2">
  <advance width="608"/>
  <unicode hex="02B9"/>
  <outline>
    <contour>
      <point x="230.228" y="1502.0" type="line"/>
      <point x="462.824" y="1502.0" type="line"/>
      <point x="315.798" y="950.864" type="line"/>
      <point x="174.422" y="955.864" type="line"/>
    </contour>
  </outline>
</glyph>
<glyph name="caron" format="2">
  <advance width="1024"/>
  <unicode hex="02C7"/>
  <outline>
    <contour>
      <point x="512.0" y="1152.38" type="qcurve" smooth="yes"/>
      <point x="475.578" y="1152.38"/>
      <point x="423.312" y="1187.186"/>
      <point x="387.468" y="1234.03" type="qcurve" smooth="yes"/>
      <point x="177.202" y="1490.1779999999999" type="line"/>
      <point x="260.738" y="1568.368" type="line"/>
      <point x="512.0" y="1348.87" type="line"/>
      <point x="763.262" y="1568.368" type="line"/>
      <point x="846.798" y="1490.1779999999999" type="line"/>
      <point x="636.532" y="1234.03" type="line" smooth="yes"/>
      <point x="593.11" y="1181.224"/>
      <point x="548.422" y="1152.38"/>
    </contour>
  </outline>
</glyph>
<glyph name="tilde" format="2">
  <advance width="1024"/>
  <unicode hex="02DC"/>
  <outline>
    <contour>
      <point x="123.426" y="1314.27" type="line"/>
      <point x="158.772" y="1382.114"/>
      <point x="297.734" y="1494.38"/>
      <point x="373.578" y="1494.38" type="qcurve" smooth="yes"/>
      <point x="417.27" y="1494.38"/>
      <point x="492.962" y="1467.418"/>
      <point x="533.346" y="1441.418" type="qcurve" smooth="yes"/>
      <point x="563.422" y="1423.034"/>
      <point x="654.422" y="1372.764"/>
      <point x="698.114" y="1372.764" type="qcurve" smooth="yes"/>
      <point x="740.806" y="1372.764"/>
      <point x="821.19" y="1425.072"/>
      <point x="845.536" y="1462.764" type="qcurve"/>
      <point x="910.574" y="1378.574" type="line"/>
      <point x="870.882" y="1297.73"/>
      <point x="743.266" y="1208.81"/>
      <point x="680.768" y="1208.81" type="qcurve" smooth="yes"/>
      <point x="630.076" y="1208.81"/>
      <point x="529.346" y="1253.81"/>
      <point x="499.654" y="1273.118" type="qcurve" smooth="yes"/>
      <point x="463.232" y="1296.464"/>
      <point x="386.924" y="1330.426"/>
      <point x="356.232" y="1330.426" type="qcurve" smooth="yes"/>
      <point x="305.54" y="1330.426"/>
      <point x="213.81" y="1258.772"/>
      <point x="194.464" y="1230.426" type="qcurve"/>
    </contour>
  </outline>
</glyph>
<glyph name="hungarumlaut" format="2">
  <advance width="1024"/>
  <unicode hex="02DD"/>
  <outline>
    <contour>
      <point x="628.174" y="1478.144" type="qcurve" smooth="yes"/>
      <point x="628.174" y="1433.566"/>
      <point x="583.79" y="1385.148"/>
      <point x="542.33" y="1352.148" type="qcurve" smooth="yes"/>
      <point x="277.878" y="1144.11" type="line"/>
      <point x="202.148" y="1221.148" type="line"/>
      <point x="383.224" y="1456.798" type="line" smooth="yes"/>
      <point x="417.992" y="1501.642"/>
      <point x="484.756" y="1566.1779999999999"/>
      <point x="524.524" y="1566.1779999999999" type="qcurve" smooth="yes"/>
      <point x="562.676" y="1566.1779999999999"/>
      <point x="628.174" y="1514.528"/>
    </contour>
    <contour>
      <point x="1028.554" y="1478.144" type="qcurve" smooth="yes"/>
      <point x="1028.554" y="1433.566"/>
      <point x="984.17" y="1385.148"/>
      <point x="942.71" y="1352.148" type="qcurve" smooth="yes"/>
      <point x="678.258" y="1144.11" type="line"/>
      <point x="602.528" y="1221.148" type="line"/>
      <point x="784.258" y="1456.798" type="line" smooth="yes"/>
      <point x="819.026" y="1501.642"/>
      <point x="885.136" y="1566.1779999999999"/>
      <point x="924.904" y="1566.1779999999999" type="qcurve" smooth="yes"/>
      <point x="963.056" y="1566.1779999999999"/>
      <point x="1028.554" y="1514.528"/>
    </contour>
  </outline>
</glyph>
<glyph name="hookabovecomb" format="2">
  <advance width="1024"/>
  <unicode hex="0309"/>
  <outline>
    <contour>
      <point x="387.696" y="1047.346" type="line"/>
      <point x="387.696" y="1167.368" type="line"/>
      <point x="466.35" y="1253.292" type="line"/>
      <point x="484.388" y="1247.292"/>
      <point x="521.578" y="1241.6"/>
      <point x="536.27" y="1241.6" type="qcurve" smooth="yes"/>
      <point x="579.692" y="1241.6"/>
      <point x="630.692" y="1287.33"/>
      <point x="630.692" y="1328.292" type="qcurve" smooth="yes"/>
      <point x="630.692" y="1368.984"/>
      <point x="571.54" y="1411.676"/>
      <point x="522.426" y="1411.676" type="qcurve" smooth="yes"/>
      <point x="473.004" y="1411.676"/>
      <point x="370.122" y="1386.984"/>
      <point x="329.046" y="1367.984" type="qcurve"/>
      <point x="280.894" y="1485.478" type="line"/>
      <point x="340.202" y="1513.554"/>
      <point x="469.118" y="1547.63"/>
      <point x="525.308" y="1547.63" type="qcurve" smooth="yes"/>
      <point x="654.068" y="1547.63"/>
      <point x="801.064" y="1435.018"/>
      <point x="801.064" y="1324.752" type="qcurve" smooth="yes"/>
      <point x="801.064" y="1233.1779999999999"/>
      <point x="692.878" y="1118.912"/>
      <point x="613.038" y="1118.912" type="qcurve" smooth="yes"/>
      <point x="585.27" y="1118.912"/>
      <point x="539.0" y="1126.182"/>
      <point x="522.654" y="1130.182" type="qcurve"/>
      <point x="522.654" y="1047.346" type="line"/>
    </contour>
  </outline>
</glyph>
<glyph name="dblgravecomb" format="2">
  <advance width="1024"/>
  <unicode hex="0311"/>
  <outline>
    <contour>
      <point x="77.44200000000001" y="1489.262" type="qcurve"/>
      <point x="77.44200000000001" y="1528.916"/>
      <point x="140.324" y="1581.874"/>
      <point x="179.784" y="1581.874" type="qcurve" smooth="yes"/>
      <point x="222.822" y="1581.874"/>
      <point x="290.894" y="1521.262"/>
      <point x="326.97" y="1472.494" type="qcurve" smooth="yes"/>
      <point x="509.354" y="1223.11" type="line"/>
      <point x="425.122" y="1144.11" type="line"/>
      <point x="171.13400000000001" y="1348.878" type="line" smooth="yes"/>
      <point x="132.94400000000002" y="1379.916"/>
      <point x="77.44200000000001" y="1450.57"/>
    </contour>
    <contour>
      <point x="482.4" y="1489.262" type="qcurve"/>
      <point x="482.4" y="1528.916"/>
      <point x="545.282" y="1581.874"/>
      <point x="584.742" y="1581.874" type="qcurve" smooth="yes"/>
      <point x="627.78" y="1581.874"/>
      <point x="696.506" y="1520.608"/>
      <point x="732.582" y="1471.84" type="qcurve" smooth="yes"/>
      <point x="914.312" y="1223.11" type="line"/>
      <point x="830.08" y="1144.11" type="line"/>
      <point x="576.092" y="1348.878" type="line" smooth="yes"/>
      <point x="537.902" y="1379.916"/>
      <point x="482.4" y="1450.57"/>
    </contour>
  </outline>
</glyph>
<glyph name="dotbelowcomb" format="2">
  <advance width="1024"/>
  <unicode hex="0323"/>
  <outline>
    <contour>
      <point x="380.852" y="-292.84" type="qcurve" smooth="yes"/>
      <point x="380.852" y="-230.92"/>
      <point x="448.118" y="-164.346"/>
      <point x="512.346" y="-164.346" type="qcurve" smooth="yes"/>
      <point x="572.574" y="-164.346"/>
      <point x="643.84" y="-235.612"/>
      <point x="643.84" y="-292.84" type="qcurve" smooth="yes"/>
      <point x="643.84" y="-355.068"/>
      <point x="577.266" y="-421.988"/>
      <point x="512.346" y="-421.988" type="qcurve" smooth="yes"/>
      <point x="452.118" y="-421.988"/>
      <point x="380.852" y="-351.068"/>
    </contour>
  </outline>
</glyph>
<glyph name="dieresisbelowcomb" format="2">
  <advance width="1024"/>
  <unicode hex="0324"/>
  <outline>
    <contour>
      <point x="152.852" y="-331.114" type="qcurve" smooth="yes"/>
      <point x="152.852" y="-270.578"/>
      <point x="218.734" y="-206.042"/>
      <point x="280.616" y="-206.042" type="qcurve" smooth="yes"/>
      <point x="339.152" y="-206.042"/>
      <point x="408.38" y="-275.27"/>
      <point x="408.38" y="-331.114" type="qcurve" smooth="yes"/>
      <point x="408.38" y="-390.996"/>
      <point x="343.152" y="-455.878"/>
      <point x="280.616" y="-455.878" type="qcurve" smooth="yes"/>
      <point x="222.08" y="-455.878"/>
      <point x="152.852" y="-387.65"/>
    </contour>
    <contour>
      <point x="615.62" y="-331.114" type="qcurve" smooth="yes"/>
      <point x="615.62" y="-270.578"/>
      <point x="681.848" y="-206.042"/>
      <point x="743.384" y="-206.042" type="qcurve" smooth="yes"/>
      <point x="801.92" y="-206.042"/>
      <point x="871.148" y="-275.27"/>
      <point x="871.148" y="-331.114" type="qcurve" smooth="yes"/>
      <point x="871.148" y="-390.996"/>
      <point x="806.266" y="-455.878"/>
      <point x="743.384" y="-455.878" type="qcurve" smooth="yes"/>
      <point x="684.848" y="-455.878"/>
      <point x="615.62" y="-387.65"/>
    </contour>
  </outline>
</glyph>
<glyph name="commaaccentcomb" format="2">
  <advance width="1024"/>
  <unicode hex="0326"/>
  <outline>
    <contour>
      <point x="362.692" y="-628.996" type="line"/>
      <point x="404.768" y="-600.38"/>
      <point x="502.502" y="-495.068"/>
      <point x="521.346" y="-432.992" type="qcurve"/>
      <point x="456.118" y="-432.338"/>
      <point x="378.772" y="-354.802"/>
      <point x="378.772" y="-296.072" type="qcurve" smooth="yes"/>
      <point x="378.772" y="-238.688"/>
      <point x="459.54" y="-153.228"/>
      <point x="524.692" y="-153.228" type="qcurve" smooth="yes"/>
      <point x="586.536" y="-153.228"/>
      <point x="673.034" y="-229.688"/>
      <point x="673.034" y="-306.802" type="qcurve" smooth="yes"/>
      <point x="673.034" y="-422.072"/>
      <point x="513.46" y="-636.148"/>
      <point x="413.616" y="-689.612" type="qcurve"/>
    </contour>
  </outline>
</glyph>
<glyph name="tonos" format="2">
  <advance width="901"/>
  <unicode hex="0384"/>
  <anchor x="389.924" y="1017.3" name="_GRKtop"/>
  <outline>
    <contour>
      <point x="422.418" y="1153.46" type="line"/>
      <point x="322.422" y="1189.92" type="line"/>
      <point x="427.384" y="1644.406" type="line"/>
      <point x="614.756" y="1615.334" type="line"/>
      <point x="652.52" y="1563.76" type="line"/>
    </contour>
  </outline>
</glyph>
<glyph name="Delta" format="2">
  <advance width="1554"/>
  <unicode hex="0394"/>
  <outline>
    <contour>
      <point x="135.0" y="0.0" type="line"/>
      <point x="135.0" y="117.266" type="line"/>
      <point x="319.92" y="592.512" type="line"/>
      <point x="654.4" y="1505.232" type="line"/>
      <point x="893.694" y="1505.232" type="line"/>
      <point x="1241.638" y="603.66" type="line"/>
      <point x="1431.056" y="117.266" type="line"/>
      <point x="1431.056" y="0.0" type="line"/>
    </contour>
    <contour>
      <point x="306.494" y="147.954" type="line"/>
      <point x="697.21" y="144.262" type="line"/>
      <point x="1104.032" y="148.608" type="line"/>
      <point x="958.42" y="546.436" type="line"/>
      <point x="703.4" y="1208.902" type="line"/>
      <point x="451.338" y="556.1659999999999" type="line"/>
    </contour>
  </outline>
</glyph>
<glyph name="Phi" format="2">
  <advance width="1843"/>
  <unicode hex="03A6"/>
  <outline>
    <contour>
      <point x="602.71" y="-33.688" type="line"/>
      <point x="602.71" y="82.232" type="line"/>
      <point x="784.17" y="116.232" type="line"/>
      <point x="787.17" y="260.0" type="line"/>
      <point x="797.17" y="260.0" type="line"/>
      <point x="799.17" y="734.81" type="line"/>
      <point x="1042.97" y="734.81" type="line"/>
      <point x="1044.97" y="261.0" type="line"/>
      <point x="1054.97" y="260.0" type="line"/>
      <point x="1057.97" y="116.232" type="line"/>
      <point x="1239.43" y="82.232" type="line"/>
      <point x="1239.43" y="-33.688" type="line"/>
    </contour>
    <contour>
      <point x="799.17" y="734.81" type="line"/>
      <point x="797.17" y="1223.582" type="line"/>
      <point x="787.17" y="1224.582" type="line"/>
      <point x="784.17" y="1370.08" type="line"/>
      <point x="602.71" y="1404.08" type="line"/>
      <point x="602.71" y="1520.0" type="line"/>
      <point x="1239.43" y="1520.0" type="line"/>
      <point x="1239.43" y="1404.08" type="line"/>
      <point x="1057.97" y="1370.08" type="line"/>
      <point x="1054.97" y="1224.582" type="line"/>
      <point x="1044.97" y="1224.582" type="line"/>
      <point x="1042.97" y="734.81" type="line"/>
    </contour>
    <contour>
      <point x="843.36" y="218.08" type="line"/>
      <point x="425.718" y="218.08"/>
      <point x="74.81" y="488.042"/>
      <point x="74.81" y="716.46" type="qcurve" smooth="yes"/>
      <point x="74.81" y="972.46"/>
      <point x="444.38" y="1259.502"/>
      <point x="843.36" y="1268.502" type="qcurve"/>
      <point x="843.36" y="1138.468" type="line"/>
      <point x="601.884" y="1136.468"/>
      <point x="380.64" y="923.806"/>
      <point x="380.64" y="726.076" type="qcurve" smooth="yes"/>
      <point x="380.64" y="542.92"/>
      <point x="606.382" y="340.114"/>
      <point x="843.36" y="340.114" type="qcurve"/>
    </contour>
    <contour>
      <point x="998.78" y="218.08" type="qcurve"/>
      <point x="998.78" y="339.422" type="line"/>
      <point x="1240.91" y="341.422"/>
      <point x="1462.154" y="561.004"/>
      <point x="1462.154" y="758.734" type="qcurve" smooth="yes"/>
      <point x="1462.154" y="941.89"/>
      <point x="1236.412" y="1137.776"/>
      <point x="998.78" y="1137.776" type="qcurve"/>
      <point x="998.78" y="1268.502" type="line"/>
      <point x="1417.076" y="1268.502"/>
      <point x="1767.984" y="998.54"/>
      <point x="1767.984" y="770.122" type="qcurve" smooth="yes"/>
      <point x="1767.984" y="514.122"/>
      <point x="1398.414" y="227.08"/>
    </contour>
  </outline>
</glyph>
<glyph name="Psi" format="2">
  <advance width="2017"/>
  <unicode hex="03A8"/>
  <outline>
    <contour>
      <point x="662.406" y="0.0" type="line"/>
      <point x="662.406" y="110.38" type="line"/>
      <point x="870.026" y="145.726" type="line"/>
      <point x="871.026" y="510.0" type="line"/>
      <point x="876.026" y="510.0" type="line"/>
      <point x="876.026" y="811.0" type="line"/>
      <point x="870.026" y="1341.62" type="line"/>
      <point x="698.946" y="1375.62" type="line"/>
      <point x="698.946" y="1500.0" type="line"/>
      <point x="1317.9859999999999" y="1500.0" type="line"/>
      <point x="1317.9859999999999" y="1375.62" type="line"/>
      <point x="1146.906" y="1341.62" type="line"/>
      <point x="1140.906" y="811.0" type="line"/>
      <point x="1140.906" y="510.0" type="line"/>
      <point x="1145.906" y="510.0" type="line"/>
      <point x="1146.906" y="146.034" type="line"/>
      <point x="1354.526" y="110.38" type="line"/>
      <point x="1354.526" y="0.0" type="line"/>
    </contour>
    <contour>
      <point x="942.786" y="458.54" type="line"/>
      <point x="554.068" y="463.772"/>
      <point x="271.388" y="710.464"/>
      <point x="250.928" y="990.738" type="qcurve" smooth="yes"/>
      <point x="221.966" y="1341.966" type="line"/>
      <point x="50.506" y="1375.966" type="line"/>
      <point x="50.506" y="1500.0" type="line"/>
      <point x="460.76599999999996" y="1500.0" type="line"/>
      <point x="493.76599999999996" y="1477.0" type="line"/>
      <point x="527.884" y="994.662" type="line" smooth="yes"/>
      <point x="547.694" y="731.266"/>
      <point x="734.668" y="583.92"/>
      <point x="942.786" y="583.92" type="qcurve"/>
    </contour>
    <contour>
      <point x="1074.492" y="458.54" type="qcurve"/>
      <point x="1074.492" y="583.92" type="line"/>
      <point x="1282.61" y="583.92"/>
      <point x="1473.508" y="731.266"/>
      <point x="1489.394" y="994.662" type="qcurve" smooth="yes"/>
      <point x="1523.512" y="1477.0" type="line"/>
      <point x="1556.512" y="1500.0" type="line"/>
      <point x="1966.772" y="1500.0" type="line"/>
      <point x="1966.772" y="1375.966" type="line"/>
      <point x="1795.312" y="1341.966" type="line"/>
      <point x="1766.35" y="990.738" type="line" smooth="yes"/>
      <point x="1740.658" y="711.118"/>
      <point x="1463.21" y="463.772"/>
    </contour>
  </outline>
</glyph>
<glyph name="alpha" format="2">
  <advance width="1395"/>
  <unicode hex="03B1"/>
  <anchor x="561.946" y="1017.3" name="GRKtop"/>
  <outline>
    <contour>
      <point x="513.634" y="-9.346" type="qcurve" smooth="yes"/>
      <point x="314.178" y="-9.346"/>
      <point x="60.886" y="262.152"/>
      <point x="60.886" y="495.958" type="qcurve" smooth="yes"/>
      <point x="60.886" y="735.764"/>
      <point x="332.756" y="1036.608"/>
      <point x="551.942" y="1036.608" type="qcurve" smooth="yes"/>
      <point x="745.55" y="1036.608"/>
      <point x="949.39" y="791.026"/>
      <point x="987.192" y="552.65" type="qcurve"/>
      <point x="1051.868" y="552.65" type="line"/>
      <point x="1117.248" y="269.152"/>
      <point x="1198.602" y="134.262"/>
      <point x="1260.408" y="134.262" type="qcurve" smooth="yes"/>
      <point x="1347.21" y="134.262" type="line"/>
      <point x="1347.21" y="32.616" type="line"/>
      <point x="1111.698" y="-10.422" type="line"/>
      <point x="1007.398" y="-11.114"/>
      <point x="921.516" y="113.73"/>
      <point x="868.402" y="403.228" type="qcurve"/>
      <point x="855.824" y="403.228" type="line"/>
      <point x="788.562" y="718.174"/>
      <point x="664.436" y="914.578"/>
      <point x="572.158" y="914.578" type="qcurve" smooth="yes"/>
      <point x="470.842" y="914.578"/>
      <point x="360.796" y="705.144"/>
      <point x="360.796" y="517.304" type="qcurve" smooth="yes"/>
      <point x="360.796" y="334.874"/>
      <point x="468.922" y="136.03"/>
      <point x="561.812" y="136.03" type="qcurve" smooth="yes"/>
      <point x="661.28" y="136.03"/>
      <point x="806.326" y="370.886"/>
      <point x="873.706" y="608.528" type="qcurve"/>
      <point x="902.208" y="608.528" type="line"/>
      <point x="1040.208" y="997.338" type="line"/>
      <point x="1279.058" y="1018.338" type="line"/>
      <point x="1316.826" y="983.726" type="line"/>
      <point x="1043.176" y="407.228" type="line"/>
      <point x="951.968" y="407.228" type="line"/>
      <point x="883.466" y="208.616"/>
      <point x="670.744" y="-9.346"/>
    </contour>
  </outline>
</glyph>
<glyph name="delta" format="2">
  <advance width="1227"/>
  <unicode hex="03B4"/>
  <outline>
    <contour>
      <point x="614.2" y="-23.73" type="qcurve" smooth="yes"/>
      <point x="351.524" y="-23.73"/>
      <point x="60.54" y="225.924"/>
      <point x="60.54" y="432.0" type="qcurve" smooth="yes"/>
      <point x="60.54" y="639.304"/>
      <point x="346.95" y="912.882"/>
      <point x="583.17" y="946.038" type="qcurve"/>
      <point x="739.834" y="946.73" type="line"/>
      <point x="739.834" y="887.236" type="line"/>
      <point x="569.302" y="852.278"/>
      <point x="348.032" y="613.358"/>
      <point x="346.07" y="423.662" type="qcurve" smooth="yes"/>
      <point x="344.108" y="268.156"/>
      <point x="497.73199999999997" y="97.342"/>
      <point x="615.892" y="97.342" type="qcurve" smooth="yes"/>
      <point x="744.554" y="97.342"/>
      <point x="889.486" y="286.08"/>
      <point x="889.486" y="433.122" type="qcurve" smooth="yes"/>
      <point x="889.486" y="561.012"/>
      <point x="730.634" y="764.814"/>
      <point x="546.95" y="859.194" type="qcurve" smooth="yes"/>
      <point x="377.836" y="946.27"/>
      <point x="208.954" y="1115.27"/>
      <point x="208.954" y="1225.0" type="qcurve" smooth="yes"/>
      <point x="208.954" y="1372.19"/>
      <point x="455.056" y="1542.536"/>
      <point x="683.428" y="1542.536" type="qcurve" smooth="yes"/>
      <point x="829.994" y="1542.536"/>
      <point x="1061.298" y="1475.304"/>
      <point x="1098.526" y="1438.92" type="qcurve"/>
      <point x="1078.18" y="1137.316" type="line"/>
      <point x="959.15" y="1137.316" type="line"/>
      <point x="916.496" y="1315.932" type="line"/>
      <point x="893.61" y="1349.126"/>
      <point x="764.952" y="1390.472"/>
      <point x="681.568" y="1390.472" type="qcurve" smooth="yes"/>
      <point x="585.028" y="1390.472"/>
      <point x="474.948" y="1313.468"/>
      <point x="474.948" y="1241.54" type="qcurve" smooth="yes"/>
      <point x="474.948" y="1185.46"/>
      <point x="549.99" y="1101.646"/>
      <point x="738.884" y="996.486" type="qcurve" smooth="yes"/>
      <point x="955.062" y="877.608"/>
      <point x="1166.67" y="622.612"/>
      <point x="1166.67" y="462.54" type="qcurve" smooth="yes"/>
      <point x="1166.67" y="244.848"/>
      <point x="851.846" y="-23.73"/>
    </contour>
  </outline>
</glyph>
<glyph name="epsilon" format="2">
  <advance width="1100"/>
  <unicode hex="03B5"/>
  <anchor x="597.334" y="1017.3" name="GRKtop"/>
  <outline>
    <contour>
      <point x="532.688" y="-23.384" type="qcurve" smooth="yes"/>
      <point x="308.89" y="-23.384"/>
      <point x="59.088" y="122.578"/>
      <point x="59.088" y="260.0" type="qcurve" smooth="yes"/>
      <point x="59.088" y="407.806"/>
      <point x="411.784" y="585.726"/>
      <point x="645.608" y="613.3" type="qcurve" smooth="yes"/>
      <point x="716.288" y="621.76" type="line"/>
      <point x="748.824" y="581.262" type="line"/>
      <point x="675.482" y="399.08" type="line"/>
      <point x="630.102" y="406.08" type="line" smooth="yes"/>
      <point x="386.89" y="444.35"/>
      <point x="103.00800000000001" y="610.65"/>
      <point x="103.00800000000001" y="735.38" type="qcurve" smooth="yes"/>
      <point x="103.00800000000001" y="865.418"/>
      <point x="346.19" y="1041.376"/>
      <point x="583.908" y="1041.376" type="qcurve" smooth="yes"/>
      <point x="709.908" y="1041.376"/>
      <point x="925.242" y="983.722"/>
      <point x="968.892" y="947.376" type="qcurve"/>
      <point x="968.892" y="657.806" type="line"/>
      <point x="853.9" y="657.806" type="line"/>
      <point x="802.128" y="855.08" type="line"/>
      <point x="776.1659999999999" y="877.118"/>
      <point x="667.702" y="902.464"/>
      <point x="615.93" y="902.464" type="qcurve" smooth="yes"/>
      <point x="497.736" y="902.464"/>
      <point x="376.234" y="808.734"/>
      <point x="376.234" y="725.194" type="qcurve" smooth="yes"/>
      <point x="376.234" y="662.0"/>
      <point x="473.93399999999997" y="567.384"/>
      <point x="649.212" y="506.806" type="qcurve"/>
      <point x="637.634" y="478.38" type="line"/>
      <point x="496.812" y="463.764"/>
      <point x="355.69399999999996" y="366.11"/>
      <point x="355.69399999999996" y="288.38" type="qcurve" smooth="yes"/>
      <point x="355.69399999999996" y="207.84"/>
      <point x="494.006" y="127.75999999999999"/>
      <point x="596.048" y="127.75999999999999" type="qcurve" smooth="yes"/>
      <point x="718.17" y="127.75999999999999"/>
      <point x="914.634" y="208.646"/>
      <point x="1001.668" y="295.68" type="qcurve"/>
      <point x="1066.508" y="217.34199999999998" type="line"/>
      <point x="983.508" y="99.342"/>
      <point x="715.668" y="-23.384"/>
    </contour>
  </outline>
</glyph>
<glyph name="eta" format="2">
  <advance width="1337"/>
  <unicode hex="03B7"/>
  <anchor x="606.554" y="1017.3" name="GRKtop"/>
  <outline>
    <contour>
      <point x="930.988" y="-480.0" type="line"/>
      <point x="893.22" y="-445.388" type="line"/>
      <point x="911.414" y="397.512" type="line"/>
      <point x="911.414" y="629.992" type="line" smooth="yes"/>
      <point x="911.414" y="743.924"/>
      <point x="826.212" y="855.202"/>
      <point x="737.36" y="855.202" type="qcurve"/>
      <point x="658.584" y="855.202"/>
      <point x="526.846" y="768.08"/>
      <point x="487.424" y="703.962" type="qcurve"/>
      <point x="485.078" y="536.814" type="line"/>
      <point x="496.116" y="21.384" type="line"/>
      <point x="243.548" y="0.0" type="line"/>
      <point x="205.78" y="34.612" type="line"/>
      <point x="214.39600000000002" y="708.814" type="line"/>
      <point x="213.434" y="789.24"/>
      <point x="186.084" y="858.0"/>
      <point x="135.78" y="868.73" type="qcurve" smooth="yes"/>
      <point x="70.05" y="882.422" type="line"/>
      <point x="70.05" y="989.916" type="line"/>
      <point x="340.28" y="1024.262" type="line"/>
      <point x="397.086" y="1024.262"/>
      <point x="469.196" y="941.566"/>
      <point x="483.234" y="849.186" type="qcurve"/>
      <point x="484.58" y="849.186" type="line"/>
      <point x="532.998" y="924.494"/>
      <point x="725.7239999999999" y="1038.646"/>
      <point x="849.298" y="1038.646" type="qcurve" smooth="yes"/>
      <point x="1015.062" y="1038.646"/>
      <point x="1180.636" y="854.802"/>
      <point x="1187.404" y="670.684" type="qcurve" smooth="yes"/>
      <point x="1185.442" y="416.466" type="line"/>
      <point x="1193.366" y="-458.616" type="line"/>
    </contour>
  </outline>
</glyph>
<glyph name="theta" format="2">
  <advance width="1301"/>
  <unicode hex="03B8"/>
  <outline>
    <contour>
      <point x="645.204" y="-29.924" type="qcurve" smooth="yes"/>
      <point x="338.072" y="-27.502000000000002"/>
      <point x="77.388" y="342.57"/>
      <point x="76.388" y="730.92" type="qcurve" smooth="yes"/>
      <point x="75.388" y="1136.418"/>
      <point x="360.106" y="1547.38"/>
      <point x="659.162" y="1547.38" type="qcurve" smooth="yes"/>
      <point x="947.762" y="1547.38"/>
      <point x="1224.016" y="1197.958"/>
      <point x="1225.016" y="781.0" type="qcurve" smooth="yes"/>
      <point x="1226.016" y="387.848"/>
      <point x="929.534" y="-32.0"/>
    </contour>
    <contour>
      <point x="649.318" y="97.996" type="qcurve" smooth="yes"/>
      <point x="798.866" y="97.996"/>
      <point x="936.95" y="387.05"/>
      <point x="936.95" y="769.254" type="qcurve" smooth="yes"/>
      <point x="936.95" y="1150.992"/>
      <point x="801.364" y="1406.0"/>
      <point x="653.702" y="1406.0" type="qcurve" smooth="yes"/>
      <point x="495.808" y="1406.0"/>
      <point x="364.454" y="1127.604"/>
      <point x="364.454" y="785.95" type="qcurve" smooth="yes"/>
      <point x="364.454" y="356.742"/>
      <point x="498.656" y="97.996"/>
    </contour>
    <contour>
      <point x="287.28" y="613.214" type="line"/>
      <point x="287.28" y="879.702" type="line"/>
      <point x="647.394" y="810.722" type="line"/>
      <point x="1006.508" y="879.702" type="line"/>
      <point x="1006.508" y="613.214" type="line"/>
      <point x="647.394" y="682.194" type="line"/>
    </contour>
  </outline>
</glyph>
<glyph name="lambda" format="2">
  <advance width="1143"/>
  <unicode hex="03BB"/>
  <outline>
    <contour>
      <point x="886.7139999999999" y="-10.422" type="line"/>
      <point x="829.794" y="-11.46"/>
      <point x="749.532" y="36.502"/>
      <point x="728.456" y="101.19" type="qcurve" smooth="yes"/>
      <point x="476.22" y="868.0" type="line"/>
      <point x="333.3" y="1222.0" type="line" smooth="yes"/>
      <point x="295.144" y="1318.084"/>
      <point x="213.608" y="1363.776"/>
      <point x="164.38" y="1374.506" type="qcurve" smooth="yes"/>
      <point x="62.379999999999995" y="1395.506" type="line"/>
      <point x="62.379999999999995" y="1503.0" type="line"/>
      <point x="336.534" y="1537.346" type="line"/>
      <point x="429.644" y="1537.346"/>
      <point x="535.792" y="1427.578"/>
      <point x="568.1" y="1332.0" type="qcurve" smooth="yes"/>
      <point x="711.1" y="909.0" type="line"/>
      <point x="963.332" y="231.532" type="line" smooth="yes"/>
      <point x="982.062" y="181.034"/>
      <point x="1026.062" y="134.262"/>
      <point x="1075.1" y="134.262" type="qcurve" smooth="yes"/>
      <point x="1146.1" y="134.262" type="line"/>
      <point x="1146.1" y="32.616" type="line"/>
    </contour>
    <contour>
      <point x="27.46" y="0.0" type="line"/>
      <point x="-10.654" y="34.612" type="line"/>
      <point x="217.81" y="541.354" type="line"/>
      <point x="458.996" y="1100.0" type="line"/>
      <point x="544.06" y="936.0" type="line"/>
      <point x="409.052" y="502.666" type="line"/>
      <point x="272.538" y="21.384" type="line"/>
    </contour>
  </outline>
</glyph>
<glyph name="nu" format="2">
  <advance width="1138"/>
  <unicode hex="03BD"/>
  <outline>
    <contour>
      <point x="475.536" y="1.308" type="line"/>
      <point x="291.962" y="482.384" type="line"/>
      <point x="171.654" y="792.776" type="line" smooth="yes"/>
      <point x="158.194" y="827.042"/>
      <point x="130.312" y="856.076"/>
      <point x="92.046" y="864.844" type="qcurve" smooth="yes"/>
      <point x="6.54" y="882.422" type="line"/>
      <point x="6.54" y="989.916" type="line"/>
      <point x="285.154" y="1024.262" type="line"/>
      <point x="336.382" y="1025.3"/>
      <point x="403.952" y="971.034"/>
      <point x="435.18" y="878.578" type="qcurve" smooth="yes"/>
      <point x="544.838" y="555.76" type="line"/>
      <point x="657.534" y="208.714" type="line"/>
      <point x="637.842" y="208.368" type="line"/>
      <point x="745.812" y="557.03" type="line"/>
      <point x="857.744" y="999.722" type="line"/>
      <point x="1076.872" y="1017.992" type="line"/>
      <point x="1114.9859999999999" y="983.38" type="line"/>
      <point x="917.602" y="520.182" type="line"/>
      <point x="719.3779999999999" y="1.308" type="line"/>
    </contour>
  </outline>
</glyph>
<glyph name="pi" format="2">
  <advance width="1372"/>
  <unicode hex="03C0"/>
  <outline>
    <contour>
      <point x="1304.366" y="794.86" type="line"/>
      <point x="42.274" y="818.59" type="line"/>
      <point x="42.274" y="926.43" type="line"/>
      <point x="195.194" y="1002.11" type="line"/>
      <point x="1296.48" y="1031.798" type="line"/>
      <point x="1326.248" y="1000.22" type="line"/>
    </contour>
    <contour>
      <point x="245.89" y="0.0" type="line"/>
      <point x="208.122" y="34.612" type="line"/>
      <point x="278.422" y="499.372" type="line"/>
      <point x="333.574" y="911.464" type="line"/>
      <point x="515.082" y="911.464" type="line"/>
      <point x="505.196" y="495.448" type="line"/>
      <point x="501.348" y="21.384" type="line"/>
    </contour>
    <contour>
      <point x="1034.972" y="-10.422" type="line"/>
      <point x="940.596" y="-10.422"/>
      <point x="855.68" y="96.232"/>
      <point x="859.102" y="251.092" type="qcurve" smooth="yes"/>
      <point x="877.98" y="911.464" type="line"/>
      <point x="1099.252" y="911.464" type="line"/>
      <point x="1106.442" y="276.004" type="line" smooth="yes"/>
      <point x="1106.788" y="199.882"/>
      <point x="1162.674" y="136.224"/>
      <point x="1198.172" y="134.262" type="qcurve"/>
      <point x="1290.206" y="134.262" type="line"/>
      <point x="1290.206" y="32.616" type="line"/>
    </contour>
  </outline>
</glyph>
<glyph name="finalsigma" format="2">
  <advance width="1016"/>
  <unicode hex="03C2"/>
  <outline>
    <contour>
      <point x="770.694" y="-313.0" type="line"/>
      <point x="735.58" y="-130.27" type="line" smooth="yes"/>
      <point x="723.58" y="-68.73"/>
      <point x="694.2719999999999" y="-35.156"/>
      <point x="650.55" y="-32.81" type="qcurve" smooth="yes"/>
      <point x="599.25" y="-29.810000000000002" type="line" smooth="yes"/>
      <point x="320.954" y="-11.27"/>
      <point x="59.848" y="264.608"/>
      <point x="59.848" y="493.414" type="qcurve" smooth="yes"/>
      <point x="59.848" y="750.034"/>
      <point x="357.646" y="1041.376"/>
      <point x="593.44" y="1041.376" type="qcurve"/>
      <point x="725.162" y="1041.376"/>
      <point x="935.34" y="969.612"/>
      <point x="973.838" y="932.46" type="qcurve"/>
      <point x="973.838" y="657.46" type="line"/>
      <point x="858.846" y="657.46" type="line"/>
      <point x="812.956" y="862.0" type="line"/>
      <point x="787.956" y="878.0"/>
      <point x="712.496" y="901.806"/>
      <point x="655.572" y="901.806" type="qcurve" smooth="yes"/>
      <point x="520.336" y="901.806"/>
      <point x="350.948" y="720.878"/>
      <point x="350.948" y="529.098" type="qcurve" smooth="yes"/>
      <point x="350.948" y="378.87"/>
      <point x="510.64" y="186.744"/>
      <point x="711.466" y="177.398" type="qcurve" smooth="yes"/>
      <point x="777.846" y="173.668" type="line" smooth="yes"/>
      <point x="854.998" y="169.284"/>
      <point x="926.644" y="100.136"/>
      <point x="927.374" y="38.873999999999995" type="qcurve"/>
      <point x="878.188" y="-313.0" type="line"/>
    </contour>
  </outline>
</glyph>
<glyph name="sigma" format="2">
  <advance width="1331"/>
  <unicode hex="03C3"/>
  <outline>
    <contour>
      <point x="610.31" y="-23.384" type="qcurve" smooth="yes"/>
      <point x="353.022" y="-23.384"/>
      <point x="60.54" y="247.574"/>
      <point x="60.54" y="464.38" type="qcurve" smooth="yes"/>
      <point x="60.54" y="697.148"/>
      <point x="385.448" y="991.224"/>
      <point x="717.048" y="1009.262" type="qcurve" smooth="yes"/>
      <point x="1269.616" y="1038.338" type="line"/>
      <point x="1298.73" y="1006.76" type="line"/>
      <point x="1276.848" y="801.4" type="line"/>
      <point x="809.238" y="812.13" type="line" smooth="yes"/>
      <point x="552.302" y="818.092"/>
      <point x="356.142" y="625.236"/>
      <point x="356.488" y="447.696" type="qcurve" smooth="yes"/>
      <point x="356.834" y="281.962"/>
      <point x="503.306" y="97.996"/>
      <point x="615.656" y="97.996" type="qcurve" smooth="yes"/>
      <point x="745.318" y="97.996"/>
      <point x="886.094" y="304.312"/>
      <point x="886.094" y="469.966" type="qcurve" smooth="yes"/>
      <point x="886.094" y="606.966"/>
      <point x="796.512" y="798.548"/>
      <point x="722.048" y="856.704" type="qcurve"/>
      <point x="722.048" y="914.084" type="line"/>
      <point x="807.88" y="914.084" type="line"/>
      <point x="988.8679999999999" y="829.654"/>
      <point x="1165.586" y="604.928"/>
      <point x="1165.586" y="466.16" type="qcurve" smooth="yes"/>
      <point x="1165.586" y="248.928"/>
      <point x="865.18" y="-23.384"/>
    </contour>
  </outline>
</glyph>
<glyph name="upsilon" format="2">
  <advance width="1259"/>
  <unicode hex="03C5"/>
  <anchor x="617.858" y="1017.3" name="GRKtop"/>
  <outline>
    <contour>
      <point x="643.12" y="-21.692" type="qcurve" smooth="yes"/>
      <point x="409.452" y="-21.692"/>
      <point x="167.928" y="212.874"/>
      <point x="176.966" y="433.634" type="qcurve" smooth="yes"/>
      <point x="187.89" y="680.0" type="line" smooth="yes"/>
      <point x="191.89" y="779.0"/>
      <point x="163.65800000000002" y="856.692"/>
      <point x="108.658" y="868.73" type="qcurve"/>
      <point x="43.89" y="882.422" type="line"/>
      <point x="43.89" y="989.916" type="line"/>
      <point x="314.774" y="1024.262" type="line"/>
      <point x="387.306" y="1024.262"/>
      <point x="468.264" y="910.456"/>
      <point x="465.264" y="791.0" type="qcurve" smooth="yes"/>
      <point x="454.99399999999997" y="411.22" type="line" smooth="yes"/>
      <point x="451.686" y="279.178"/>
      <point x="562.728" y="153.482"/>
      <point x="665.002" y="153.482" type="qcurve" smooth="yes"/>
      <point x="768.774" y="153.482"/>
      <point x="909.1659999999999" y="310.14"/>
      <point x="909.1659999999999" y="502.844" type="qcurve" smooth="yes"/>
      <point x="909.1659999999999" y="633.802"/>
      <point x="839.204" y="848.422"/>
      <point x="758.778" y="963.308" type="qcurve"/>
      <point x="946.826" y="1051.144" type="line"/>
      <point x="1065.362" y="942.178"/>
      <point x="1189.312" y="684.912"/>
      <point x="1188.966" y="531.418" type="qcurve" smooth="yes"/>
      <point x="1188.62" y="291.418"/>
      <point x="898.796" y="-21.692"/>
    </contour>
  </outline>
</glyph>
<glyph name="phi" format="2">
  <advance width="1548"/>
  <unicode hex="03C6"/>
  <outline>
    <contour>
      <point x="719.116" y="-23.0" type="line"/>
      <point x="382.87" y="-14.654"/>
      <point x="53.308" y="268.342"/>
      <point x="53.308" y="492.3" type="qcurve" smooth="yes"/>
      <point x="53.308" y="744.992"/>
      <point x="404.638" y="1040.3"/>
      <point x="725.002" y="1040.3" type="qcurve"/>
      <point x="725.002" y="917.0" type="line"/>
      <point x="541.454" y="917.0"/>
      <point x="353.332" y="701.92"/>
      <point x="353.332" y="508.3" type="qcurve" smooth="yes"/>
      <point x="353.332" y="318.262"/>
      <point x="530.34" y="109.75999999999999"/>
      <point x="719.116" y="106.3" type="qcurve"/>
    </contour>
    <contour>
      <point x="836.552" y="-23.0" type="qcurve"/>
      <point x="836.552" y="106.3" type="line"/>
      <point x="1012.248" y="109.75999999999999"/>
      <point x="1194.834" y="324.148"/>
      <point x="1194.834" y="523.996" type="qcurve" smooth="yes"/>
      <point x="1194.834" y="707.806"/>
      <point x="1004.332" y="917.0"/>
      <point x="826.088" y="917.0" type="qcurve"/>
      <point x="826.088" y="1040.3" type="line"/>
      <point x="1148.342" y="1035.068"/>
      <point x="1494.858" y="754.148"/>
      <point x="1494.858" y="525.0" type="qcurve" smooth="yes"/>
      <point x="1494.858" y="277.498"/>
      <point x="1152.524" y="-19.886"/>
    </contour>
    <contour>
      <point x="665.702" y="-480.0" type="line"/>
      <point x="627.934" y="-445.388" type="line"/>
      <point x="646.508" y="38.882" type="line"/>
      <point x="656.698" y="38.882" type="line"/>
      <point x="677.078" y="970.0" type="line"/>
      <point x="672.078" y="970.0" type="line"/>
      <point x="675.078" y="1407.0" type="line"/>
      <point x="836.6279999999999" y="1421.038" type="line"/>
      <point x="874.396" y="1386.426" type="line"/>
      <point x="879.358" y="970.0" type="line"/>
      <point x="874.358" y="970.0" type="line"/>
      <point x="898.97" y="38.882" type="line"/>
      <point x="909.16" y="38.882" type="line"/>
      <point x="928.0799999999999" y="-458.616" type="line"/>
    </contour>
  </outline>
</glyph>
<glyph name="chi" format="2">
  <advance width="1123"/>
  <unicode hex="03C7"/>
  <outline>
    <contour>
      <point x="928.254" y="-490.076" type="line"/>
      <point x="871.258" y="-490.076"/>
      <point x="802.38" y="-452.536"/>
      <point x="781.536" y="-412.0" type="qcurve" smooth="yes"/>
      <point x="507.764" y="183.20600000000002" type="line"/>
      <point x="232.78" y="709.3" type="line" smooth="yes"/>
      <point x="181.468" y="809.848"/>
      <point x="116.856" y="857.806"/>
      <point x="64.97" y="869.076" type="qcurve" smooth="yes"/>
      <point x="0.9700000000000024" y="882.422" type="line"/>
      <point x="-0.759999999999998" y="989.916" type="line"/>
      <point x="272.394" y="1024.262" type="line"/>
      <point x="338.436" y="1024.262"/>
      <point x="404.702" y="940.212"/>
      <point x="441.09" y="861.858" type="qcurve" smooth="yes"/>
      <point x="663.352" y="383.022" type="line"/>
      <point x="1009.7239999999999" y="-287.814" type="line" smooth="yes"/>
      <point x="1027.838" y="-323.312"/>
      <point x="1066.066" y="-342.122"/>
      <point x="1096.796" y="-345.392" type="qcurve"/>
      <point x="1173.298" y="-345.392" type="line"/>
      <point x="1174.682" y="-447.038" type="line"/>
    </contour>
    <contour>
      <point x="59.848" y="-480.0" type="line"/>
      <point x="21.388" y="-445.388" type="line"/>
      <point x="313.658" y="14.396" type="line"/>
      <point x="515.448" y="351.802" type="line"/>
      <point x="593.786" y="201.236" type="line"/>
      <point x="471.752" y="-72.09" type="line"/>
      <point x="301.12" y="-458.616" type="line"/>
    </contour>
    <contour>
      <point x="654.508" y="228.05" type="line"/>
      <point x="576.17" y="378.27" type="line"/>
      <point x="676.466" y="610.428" type="line"/>
      <point x="847.444" y="996.954" type="line"/>
      <point x="1088.716" y="1018.338" type="line"/>
      <point x="1127.176" y="983.726" type="line"/>
      <point x="834.906" y="523.942" type="line"/>
    </contour>
  </outline>
</glyph>
<glyph name="omega" format="2">
  <advance width="1643"/>
  <unicode hex="03C9"/>
  <anchor x="837.386" y="1017.3" name="GRKtop"/>
  <outline>
    <contour>
      <point x="512.63" y="-22.0" type="qcurve" smooth="yes"/>
      <point x="284.642" y="-22.0"/>
      <point x="70.54" y="250.304"/>
      <point x="70.54" y="447.566" type="qcurve" smooth="yes"/>
      <point x="70.54" y="656.098"/>
      <point x="281.756" y="977.444"/>
      <point x="469.166" y="1039.87" type="qcurve"/>
      <point x="584.222" y="985.684" type="line"/>
      <point x="456.99" y="875.106"/>
      <point x="350.61" y="600.878"/>
      <point x="350.61" y="435.186" type="qcurve" smooth="yes"/>
      <point x="350.61" y="294.144"/>
      <point x="449.96" y="146.752"/>
      <point x="544.922" y="146.752" type="qcurve" smooth="yes"/>
      <point x="640.5" y="146.752"/>
      <point x="746.196" y="319.604"/>
      <point x="753.31" y="468.798" type="qcurve"/>
      <point x="891.96" y="468.798" type="line"/>
      <point x="906.226" y="294.688"/>
      <point x="1004.074" y="146.752"/>
      <point x="1086.462" y="146.752" type="qcurve" smooth="yes"/>
      <point x="1182.618" y="146.752"/>
      <point x="1291.0819999999999" y="319.84"/>
      <point x="1291.0819999999999" y="472.73" type="qcurve" smooth="yes"/>
      <point x="1291.0819999999999" y="632.954"/>
      <point x="1178.782" y="886.258"/>
      <point x="1082.854" y="974.726" type="qcurve"/>
      <point x="1258.446" y="1066.022" type="line"/>
      <point x="1420.358" y="960.212"/>
      <point x="1572.19" y="661.794"/>
      <point x="1572.19" y="509.262" type="qcurve" smooth="yes"/>
      <point x="1572.19" y="275.578"/>
      <point x="1329.392" y="-22.0"/>
      <point x="1143.016" y="-22.0" type="qcurve" smooth="yes"/>
      <point x="915.952" y="-22.0"/>
      <point x="681.672" y="371.502"/>
      <point x="681.672" y="658.304" type="qcurve" smooth="yes"/>
      <point x="681.672" y="733.642" type="line"/>
      <point x="920.8679999999999" y="753.988" type="line"/>
      <point x="958.636" y="719.376" type="line"/>
      <point x="957.944" y="657.612" type="line" smooth="yes"/>
      <point x="955.8679999999999" y="384.49"/>
      <point x="734.192" y="-22.0"/>
    </contour>
  </outline>
</glyph>
<glyph name="kaisymbol" format="2">
  <advance width="1322"/>
  <unicode hex="03D7"/>
  <outline>
    <contour>
      <point x="579.892" y="-530.76" type="qcurve" smooth="yes"/>
      <point x="361.49" y="-530.76"/>
      <point x="39.198" y="-336.122"/>
      <point x="-45.418" y="-187.08" type="qcurve"/>
      <point x="42.848" y="-112.894" type="line"/>
      <point x="104.616" y="-199.24"/>
      <point x="369.832" y="-354.696"/>
      <point x="570.862" y="-354.696" type="qcurve" smooth="yes"/>
      <point x="828.6179999999999" y="-354.696"/>
      <point x="1075.952" y="-55.396"/>
      <point x="1071.378" y="133.916" type="qcurve"/>
      <point x="1264.5819999999999" y="133.916" type="line"/>
      <point x="1277.738" y="-133.498"/>
      <point x="903.336" y="-530.76"/>
    </contour>
    <component base="kappa" yOffset="-0.346"/>
  </outline>
</glyph>
<glyph name="Dje" format="2">
  <advance width="1746"/>
  <unicode hex="0402"/>
  <guideline x="568.0" y="625.0" angle="90.0" identifier="YDADns81zF"/>
  <outline>
    <contour>
      <point x="1196.832" y="0.0" type="qcurve"/>
      <point x="1196.832" y="110.38" type="line"/>
      <point x="1291.836" y="119.80199999999999"/>
      <point x="1389.802" y="286.266"/>
      <point x="1389.802" y="417.844" type="qcurve" smooth="yes"/>
      <point x="1389.802" y="561.388"/>
      <point x="1235.7718504672614" y="724.894"/>
      <point x="1090.444" y="724.894" type="qcurve" smooth="yes"/>
      <point x="957.8624497607934" y="724.894"/>
      <point x="764.7252881222768" y="682.0017627074474"/>
      <point x="657.908" y="645.704" type="qcurve"/>
      <point x="657.908" y="786.544" type="line"/>
      <point x="765.7149936808673" y="823.4633477883134"/>
      <point x="986.2172676055989" y="875.464"/>
      <point x="1143.77" y="875.464" type="qcurve" smooth="yes"/>
      <point x="1404.0671501976283" y="875.464"/>
      <point x="1687.9859999999999" y="640.768"/>
      <point x="1687.9859999999999" y="436.616" type="qcurve" smooth="yes"/>
      <point x="1687.9859999999999" y="236.274"/>
      <point x="1437.618" y="0.0"/>
    </contour>
    <contour>
      <point x="40.0" y="1053.384" type="line"/>
      <point x="40.0" y="1500.0" type="line"/>
      <point x="1316.162" y="1500.0" type="line"/>
      <point x="1316.162" y="1086.464" type="line"/>
      <point x="1193.706" y="1086.464" type="line"/>
      <point x="1156.976" y="1368.16" type="line"/>
      <point x="820.538" y="1368.16" type="line"/>
      <point x="803.268" y="1349.544" type="line"/>
      <point x="801.614" y="754.0" type="line"/>
      <point x="803.268" y="146.034" type="line"/>
      <point x="1003.314" y="110.38" type="line"/>
      <point x="1003.314" y="0.0" type="line"/>
      <point x="303.928" y="0.0" type="line"/>
      <point x="303.928" y="110.38" type="line"/>
      <point x="512.202" y="146.034" type="line"/>
      <point x="514.202" y="754.0" type="line"/>
      <point x="512.202" y="1349.544" type="line"/>
      <point x="501.472" y="1368.16" type="line"/>
      <point x="198.84" y="1368.16" type="line"/>
      <point x="162.11" y="1053.384" type="line"/>
    </contour>
  </outline>
</glyph>
<glyph name="Ieukran" format="2">
  <advance width="1495"/>
  <unicode hex="0404"/>
  <guideline x="211.0" y="787.0" angle="90.0" identifier="mFTeE97JTj"/>
  <outline>
    <contour>
      <point x="231.36" y="707.81" type="line"/>
      <point x="231.36" y="817.65" type="line"/>
      <point x="901.132" y="827.65" type="line"/>
      <point x="933.364" y="981.076" type="line"/>
      <point x="1055.128" y="981.076" type="line"/>
      <point x="1055.128" y="541.962" type="line"/>
      <point x="933.364" y="541.962" type="line"/>
      <point x="901.132" y="697.81" type="line"/>
    </contour>
    <contour>
      <point x="74.81" y="699.308" type="qcurve" smooth="yes"/>
      <point x="74.81" y="1055.072"/>
      <point x="496.688" y="1520.0"/>
      <point x="853.376" y="1520.0" type="qcurve" smooth="yes"/>
      <point x="987.182" y="1520.0"/>
      <point x="1174.84" y="1462.152"/>
      <point x="1229.186" y="1424.768" type="qcurve"/>
      <point x="1260.494" y="1500.0" type="line"/>
      <point x="1374.908" y="1500.0" type="line"/>
      <point x="1374.908" y="1034.738" type="line"/>
      <point x="1240.84" y="1034.738" type="line"/>
      <point x="1210.224" y="1166.852" type="line" smooth="yes"/>
      <point x="1184.3" y="1279.738"/>
      <point x="1029.908" y="1379.89"/>
      <point x="900.524" y="1379.89" type="qcurve" smooth="yes"/>
      <point x="663.162" y="1379.89"/>
      <point x="385.948" y="1069.304"/>
      <point x="387.256" y="740.0" type="qcurve" smooth="yes"/>
      <point x="388.56399999999996" y="427.468"/>
      <point x="663.85" y="130.954"/>
      <point x="898.208" y="130.954" type="qcurve" smooth="yes"/>
      <point x="1069.41" y="130.954"/>
      <point x="1297.376" y="251.954"/>
      <point x="1356.11" y="339.072" type="qcurve"/>
      <point x="1457.992" y="247.076" type="line"/>
      <point x="1362.296" y="113.114"/>
      <point x="1054.68" y="-28.962"/>
      <point x="852.346" y="-28.962" type="qcurve" smooth="yes"/>
      <point x="501.996" y="-28.962"/>
      <point x="74.81" y="372.73"/>
    </contour>
  </outline>
</glyph>
<glyph name="Lje" format="2">
  <advance width="2170"/>
  <unicode hex="0409"/>
  <outline>
    <contour>
      <point x="833.662" y="0.0" type="line"/>
      <point x="833.662" y="110.38" type="line"/>
      <point x="1031.282" y="145.38" type="line"/>
      <point x="1033.282" y="742.228" type="line"/>
      <point x="1031.282" y="1341.544" type="line"/>
      <point x="986.438" y="1368.16" type="line"/>
      <point x="646.574" y="1368.16" type="line"/>
      <point x="601.73" y="1341.544" type="line"/>
      <point x="558.726" y="779.258" type="line" smooth="yes"/>
      <point x="524.224" y="315.65"/>
      <point x="355.65" y="-19.768"/>
      <point x="147.304" y="-19.768" type="qcurve" smooth="yes"/>
      <point x="116.73" y="-19.768"/>
      <point x="75.54" y="-11.038"/>
      <point x="46.54" y="0.0" type="qcurve"/>
      <point x="46.54" y="229.70999999999998" type="line"/>
      <point x="70.54" y="221.70999999999998"/>
      <point x="109.502" y="216.70999999999998"/>
      <point x="131.54" y="216.70999999999998" type="qcurve" smooth="yes"/>
      <point x="265.274" y="216.70999999999998"/>
      <point x="369.042" y="495.22"/>
      <point x="390.928" y="784.448" type="qcurve" smooth="yes"/>
      <point x="433.932" y="1341.62" type="line"/>
      <point x="236.312" y="1375.62" type="line"/>
      <point x="236.312" y="1500.0" type="line"/>
      <point x="1526.196" y="1500.0" type="line"/>
      <point x="1526.196" y="1375.62" type="line"/>
      <point x="1322.348" y="1341.62" type="line"/>
      <point x="1319.964" y="917.076" type="line"/>
      <point x="1328.618" y="904.46" type="line"/>
      <point x="1591.66" y="904.46" type="line" smooth="yes"/>
      <point x="1859.032" y="904.46"/>
      <point x="2121.142" y="684.308"/>
      <point x="2121.142" y="465.734" type="qcurve" smooth="yes"/>
      <point x="2121.142" y="263.54"/>
      <point x="1866.868" y="0.0"/>
      <point x="1616.488" y="0.0" type="qcurve" smooth="yes"/>
    </contour>
    <contour>
      <point x="1320.618" y="765.696" type="line"/>
      <point x="1321.964" y="143.84" type="line"/>
      <point x="1352.504" y="122.532" type="line"/>
      <point x="1503.904" y="122.532" type="line" smooth="yes"/>
      <point x="1661.064" y="122.532"/>
      <point x="1820.612" y="298.118"/>
      <point x="1820.612" y="468.156" type="qcurve" smooth="yes"/>
      <point x="1820.612" y="625.578"/>
      <point x="1655.87" y="778.658"/>
      <point x="1516.976" y="778.658" type="qcurve" smooth="yes"/>
      <point x="1329.964" y="778.658" type="line"/>
    </contour>
  </outline>
</glyph>
<glyph name="Tshe" format="2">
  <advance width="1910"/>
  <unicode hex="040B"/>
  <outline>
    <contour>
      <point x="1851.91" y="110.38" type="line"/>
      <point x="1851.91" y="0.0" type="line"/>
      <point x="1362.57" y="0.0" type="line"/>
      <point x="1363.916" y="389.46" type="line" smooth="yes"/>
      <point x="1364.262" y="561.734"/>
      <point x="1226.5356923076856" y="724.894"/>
      <point x="1087.174" y="724.894" type="qcurve" smooth="yes"/>
      <point x="956.0591593945535" y="724.894"/>
      <point x="764.0711247163874" y="682.0035828126644"/>
      <point x="657.908" y="645.012" type="qcurve"/>
      <point x="657.908" y="785.852" type="line"/>
      <point x="765.0606800322773" y="823.4651495063858"/>
      <point x="980.7009999999497" y="875.464"/>
      <point x="1140.5" y="875.464" type="qcurve" smooth="yes"/>
      <point x="1383.1020991735547" y="875.464"/>
      <point x="1652.906" y="645.114"/>
      <point x="1653.598" y="384.882" type="qcurve" smooth="yes"/>
      <point x="1654.29" y="145.726" type="line"/>
    </contour>
    <contour>
      <point x="40.0" y="1053.384" type="line"/>
      <point x="40.0" y="1500.0" type="line"/>
      <point x="1316.162" y="1500.0" type="line"/>
      <point x="1316.162" y="1086.464" type="line"/>
      <point x="1193.706" y="1086.464" type="line"/>
      <point x="1156.976" y="1368.16" type="line"/>
      <point x="820.538" y="1368.16" type="line"/>
      <point x="803.268" y="1349.544" type="line"/>
      <point x="801.614" y="754.0" type="line"/>
      <point x="803.268" y="146.034" type="line"/>
      <point x="1011.542" y="110.38" type="line"/>
      <point x="1011.542" y="0.0" type="line"/>
      <point x="303.928" y="0.0" type="line"/>
      <point x="303.928" y="110.38" type="line"/>
      <point x="512.202" y="146.034" type="line"/>
      <point x="514.202" y="754.0" type="line"/>
      <point x="512.202" y="1349.544" type="line"/>
      <point x="501.472" y="1368.16" type="line"/>
      <point x="198.84" y="1368.16" type="line"/>
      <point x="162.11" y="1053.384" type="line"/>
    </contour>
  </outline>
</glyph>
<glyph name="Dzhe" format="2">
  <advance width="1793"/>
  <unicode hex="040F"/>
  <outline>
    <contour>
      <point x="827.026" y="-338.0" type="line"/>
      <point x="767.646" y="0.0" type="line"/>
      <point x="68.16" y="0.0" type="line"/>
      <point x="68.16" y="115.224" type="line"/>
      <point x="265.78" y="149.878" type="line"/>
      <point x="267.78" y="739.46" type="line"/>
      <point x="265.78" y="1346.118" type="line"/>
      <point x="68.16" y="1380.464" type="line"/>
      <point x="68.16" y="1500.0" type="line"/>
      <point x="753.774" y="1500.0" type="line"/>
      <point x="753.774" y="1380.464" type="line"/>
      <point x="556.846" y="1346.118" type="line"/>
      <point x="554.846" y="739.46" type="line"/>
      <point x="556.846" y="151.916" type="line"/>
      <point x="601.69" y="125.3" type="line"/>
      <point x="1191.662" y="125.3" type="line"/>
      <point x="1236.506" y="151.916" type="line"/>
      <point x="1238.506" y="739.46" type="line"/>
      <point x="1236.506" y="1346.118" type="line"/>
      <point x="1039.578" y="1380.464" type="line"/>
      <point x="1039.578" y="1500.0" type="line"/>
      <point x="1725.192" y="1500.0" type="line"/>
      <point x="1725.192" y="1380.464" type="line"/>
      <point x="1527.572" y="1346.118" type="line"/>
      <point x="1525.572" y="739.46" type="line"/>
      <point x="1527.572" y="149.878" type="line"/>
      <point x="1725.192" y="115.224" type="line"/>
      <point x="1725.192" y="0.0" type="line"/>
      <point x="1025.706" y="0.0" type="line"/>
      <point x="966.326" y="-338.0" type="line"/>
    </contour>
  </outline>
</glyph>
<glyph name="De" format="2">
  <advance width="1673"/>
  <unicode hex="0414"/>
  <outline>
    <contour>
      <point x="1472.33" y="-338.0" type="line"/>
      <point x="1392.95" y="0.0" type="line"/>
      <point x="260.03" y="0.0" type="line"/>
      <point x="180.65" y="-338.0" type="line"/>
      <point x="41.35" y="-338.0" type="line"/>
      <point x="51.35" y="125.3" type="line"/>
      <point x="1601.63" y="125.3" type="line"/>
      <point x="1611.63" y="-338.0" type="line"/>
    </contour>
    <contour>
      <point x="377.198" y="810.608" type="qcurve" smooth="yes"/>
      <point x="417.586" y="1341.62" type="line"/>
      <point x="219.966" y="1375.62" type="line"/>
      <point x="219.966" y="1500.0" type="line"/>
      <point x="1601.63" y="1500.0" type="line"/>
      <point x="1601.63" y="1375.62" type="line"/>
      <point x="1404.01" y="1341.62" type="line"/>
      <point x="1402.01" y="754.0" type="line"/>
      <point x="1404.01" y="0.0" type="line"/>
      <point x="1112.944" y="0.0" type="line"/>
      <point x="1114.944" y="754.0" type="line"/>
      <point x="1112.944" y="1341.544" type="line"/>
      <point x="1068.1" y="1368.16" type="line"/>
      <point x="630.228" y="1368.16" type="line"/>
      <point x="585.384" y="1341.544" type="line"/>
      <point x="544.342" y="804.764" type="line" smooth="yes"/>
      <point x="523.494" y="529.296"/>
      <point x="453.072" y="196.764"/>
      <point x="392.958" y="73.646" type="qcurve"/>
      <point x="201.122" y="73.646" type="line"/>
      <point x="275.89" y="199.38"/>
      <point x="356.004" y="536.718"/>
    </contour>
  </outline>
</glyph>
<glyph name="Zhe" format="2">
  <advance width="2256"/>
  <unicode hex="0416"/>
  <guideline x="480.0" y="796.0" angle="90.0" identifier="vQLQteAbfW"/>
  <outline>
    <contour>
      <point x="792.478" y="0.0" type="line"/>
      <point x="792.478" y="110.38" type="line"/>
      <point x="990.098" y="145.38" type="line"/>
      <point x="992.098" y="754.0" type="line"/>
      <point x="990.098" y="1341.62" type="line"/>
      <point x="799.018" y="1375.62" type="line"/>
      <point x="799.018" y="1500.0" type="line"/>
      <point x="1471.206" y="1500.0" type="line"/>
      <point x="1471.206" y="1375.62" type="line"/>
      <point x="1280.818" y="1341.62" type="line"/>
      <point x="1278.818" y="754.0" type="line"/>
      <point x="1280.818" y="145.38" type="line"/>
      <point x="1460.446" y="110.38" type="line"/>
      <point x="1460.446" y="0.0" type="line"/>
    </contour>
    <contour>
      <point x="1135.458" y="709.08" type="line"/>
      <point x="1135.458" y="851.46" type="line"/>
      <point x="1442.252" y="846.768" type="line"/>
      <point x="1815.21" y="1333.156" type="line"/>
      <point x="1674.784" y="1375.966" type="line"/>
      <point x="1674.784" y="1500.0" type="line"/>
      <point x="2180.126" y="1500.0" type="line"/>
      <point x="2180.126" y="1375.966" type="line"/>
      <point x="2001.78" y="1333.156" type="line"/>
      <point x="1546.624" y="762.646" type="line"/>
      <point x="1488.708" y="709.08" type="line"/>
    </contour>
    <contour>
      <point x="1435.3319999999999" y="720.498" type="line"/>
      <point x="1629.604" y="920.77" type="line"/>
      <point x="2139.228" y="145.38" type="line"/>
      <point x="2279.62" y="110.38" type="line"/>
      <point x="2279.62" y="0.0" type="line"/>
      <point x="1665.656" y="0.0" type="line"/>
      <point x="1665.656" y="110.38" type="line"/>
      <point x="1813.242" y="145.38" type="line"/>
    </contour>
    <contour>
      <point x="1135.458" y="709.08" type="line"/>
      <point x="764.216" y="709.08" type="line"/>
      <point x="694.456" y="762.646" type="line"/>
      <point x="239.3" y="1333.156" type="line"/>
      <point x="64.75999999999999" y="1375.966" type="line"/>
      <point x="64.75999999999999" y="1500.0" type="line"/>
      <point x="578.14" y="1500.0" type="line"/>
      <point x="578.14" y="1375.966" type="line"/>
      <point x="437.714" y="1333.156" type="line"/>
      <point x="810.672" y="846.768" type="line"/>
      <point x="1135.458" y="851.46" type="line"/>
    </contour>
    <contour>
      <point x="817.592" y="720.498" type="line"/>
      <point x="439.682" y="145.38" type="line"/>
      <point x="587.268" y="110.38" type="line"/>
      <point x="587.268" y="0.0" type="line"/>
      <point x="-23.236" y="0.0" type="line"/>
      <point x="-23.236" y="110.38" type="line"/>
      <point x="126.038" y="145.38" type="line"/>
      <point x="635.662" y="920.77" type="line"/>
    </contour>
  </outline>
</glyph>
<glyph name="Ze" format="2">
  <advance width="1339"/>
  <unicode hex="0417"/>
  <outline>
    <contour>
      <point x="684.616" y="-28.924" type="qcurve" smooth="yes"/>
      <point x="551.156" y="-28.924"/>
      <point x="357.27" y="32.346"/>
      <point x="304.308" y="68.038" type="qcurve"/>
      <point x="273.0" y="-7.194000000000001" type="line"/>
      <point x="158.586" y="-7.194000000000001" type="line"/>
      <point x="158.586" y="464.608" type="line"/>
      <point x="292.654" y="464.608" type="line"/>
      <point x="323.27" y="325.954" type="line" smooth="yes"/>
      <point x="346.886" y="218.03"/>
      <point x="505.24" y="112.916"/>
      <point x="647.742" y="112.916" type="qcurve" smooth="yes"/>
      <point x="812.594" y="112.916"/>
      <point x="971.8340000000001" y="270.418"/>
      <point x="971.8340000000001" y="440.422" type="qcurve" smooth="yes"/>
      <point x="971.8340000000001" y="567.65"/>
      <point x="839.446" y="717.038"/>
      <point x="660.168" y="716.0" type="qcurve" smooth="yes"/>
      <point x="488.784" y="714.616" type="line"/>
      <point x="488.784" y="850.536" type="line"/>
      <point x="651.67" y="849.498" type="line" smooth="yes"/>
      <point x="785.556" y="848.806"/>
      <point x="908.948" y="990.721170212759"/>
      <point x="908.948" y="1123.308" type="qcurve" smooth="yes"/>
      <point x="908.948" y="1247.886"/>
      <point x="792.826" y="1379.89"/>
      <point x="664.05" y="1379.89" type="qcurve" smooth="yes"/>
      <point x="537.202" y="1379.89"/>
      <point x="383.848" y="1275.738"/>
      <point x="355.848" y="1166.852" type="qcurve" smooth="yes"/>
      <point x="325.232" y="1034.738" type="line"/>
      <point x="191.164" y="1034.738" type="line"/>
      <point x="191.164" y="1500.0" type="line"/>
      <point x="305.578" y="1500.0" type="line"/>
      <point x="336.886" y="1424.768" type="line"/>
      <point x="394.502" y="1463.46"/>
      <point x="587.308" y="1520.0"/>
      <point x="715.574" y="1520.0" type="qcurve" smooth="yes"/>
      <point x="957.448" y="1520.0"/>
      <point x="1199.322" y="1321.384"/>
      <point x="1199.322" y="1158.73" type="qcurve" smooth="yes"/>
      <point x="1199.322" y="1024.542774566491"/>
      <point x="1046.2436324335479" y="837.0179360512595"/>
      <point x="908.84" y="808.958" type="qcurve"/>
      <point x="908.84" y="801.958" type="line"/>
      <point x="1068.0264914156126" y="777.27880750763"/>
      <point x="1266.478" y="596.0120531915159"/>
      <point x="1266.478" y="424.886" type="qcurve" smooth="yes"/>
      <point x="1266.478" y="230.692"/>
      <point x="974.022" y="-28.924"/>
    </contour>
  </outline>
</glyph>
<glyph name="Icyr" format="2">
  <advance width="1826"/>
  <unicode hex="0418"/>
  <guideline x="739.0" y="930.0" angle="90.0" identifier="jpSOnFR6u4"/>
  <guideline x="895.224" y="793.726" angle="90.0" identifier="3fHus3tMSg"/>
  <guideline x="944.004" y="742.692" angle="0" identifier="rmoGi5h6UR"/>
  <outline>
    <contour>
      <point x="1072.658" y="0.0" type="line"/>
      <point x="1072.658" y="110.38" type="line"/>
      <point x="1269.586" y="145.38" type="line"/>
      <point x="1271.586" y="754.0" type="line"/>
      <point x="1269.586" y="1341.62" type="line"/>
      <point x="1072.658" y="1375.62" type="line"/>
      <point x="1072.658" y="1500.0" type="line"/>
      <point x="1758.272" y="1500.0" type="line"/>
      <point x="1758.272" y="1375.62" type="line"/>
      <point x="1560.652" y="1341.62" type="line"/>
      <point x="1558.652" y="754.0" type="line"/>
      <point x="1560.652" y="145.38" type="line"/>
      <point x="1758.272" y="110.38" type="line"/>
      <point x="1758.272" y="0.0" type="line"/>
    </contour>
    <contour>
      <point x="68.16" y="0.0" type="line"/>
      <point x="68.16" y="110.38" type="line"/>
      <point x="265.78" y="145.38" type="line"/>
      <point x="267.78" y="754.0" type="line"/>
      <point x="265.78" y="1341.62" type="line"/>
      <point x="68.16" y="1375.62" type="line"/>
      <point x="68.16" y="1500.0" type="line"/>
      <point x="753.774" y="1500.0" type="line"/>
      <point x="753.774" y="1375.62" type="line"/>
      <point x="556.846" y="1341.62" type="line"/>
      <point x="554.846" y="754.0" type="line"/>
      <point x="556.846" y="145.38" type="line"/>
      <point x="753.774" y="110.38" type="line"/>
      <point x="753.774" y="0.0" type="line"/>
    </contour>
    <contour>
      <point x="556.154" y="286.52" type="line"/>
      <point x="462.85" y="377.478" type="line"/>
      <point x="869.756" y="788.46" type="line"/>
      <point x="1269.932" y="1200.48" type="line"/>
      <point x="1362.89" y="1109.522" type="line"/>
      <point x="958.676" y="700.232" type="line"/>
    </contour>
  </outline>
</glyph>
<glyph name="El" format="2">
  <advance width="1680"/>
  <unicode hex="041B"/>
  <outline>
    <contour>
      <point x="390.928" y="784.448" type="qcurve" smooth="yes"/>
      <point x="433.932" y="1341.62" type="line"/>
      <point x="236.312" y="1375.62" type="line"/>
      <point x="236.312" y="1500.0" type="line"/>
      <point x="1609.208" y="1500.0" type="line"/>
      <point x="1609.208" y="1375.62" type="line"/>
      <point x="1411.588" y="1341.62" type="line"/>
      <point x="1409.588" y="754.0" type="line"/>
      <point x="1411.588" y="145.38" type="line"/>
      <point x="1609.208" y="110.38" type="line"/>
      <point x="1609.208" y="0.0" type="line"/>
      <point x="922.902" y="0.0" type="line"/>
      <point x="922.902" y="110.38" type="line"/>
      <point x="1120.522" y="145.38" type="line"/>
      <point x="1122.522" y="754.0" type="line"/>
      <point x="1120.522" y="1341.544" type="line"/>
      <point x="1075.678" y="1368.16" type="line"/>
      <point x="646.574" y="1368.16" type="line"/>
      <point x="601.73" y="1341.544" type="line"/>
      <point x="558.726" y="779.258" type="line" smooth="yes"/>
      <point x="525.4592115161524" y="329.3934174781008"/>
      <point x="355.8168361045272" y="-19.768"/>
      <point x="147.304" y="-19.768" type="qcurve" smooth="yes"/>
      <point x="116.73" y="-19.768"/>
      <point x="75.54" y="-11.038"/>
      <point x="46.54" y="0.0" type="qcurve"/>
      <point x="46.54" y="229.70999999999998" type="line"/>
      <point x="70.54" y="221.70999999999998"/>
      <point x="109.502" y="216.70999999999998"/>
      <point x="131.54" y="216.70999999999998" type="qcurve" smooth="yes"/>
      <point x="265.274" y="216.70999999999998"/>
      <point x="368.9333571369906" y="495.1572086832068"/>
    </contour>
  </outline>
</glyph>
<glyph name="Ucyr" format="2">
  <advance width="1424"/>
  <unicode hex="0423"/>
  <outline>
    <contour>
      <point x="771.9639999999999" y="579.196" type="qcurve" smooth="yes"/>
      <point x="954.17" y="973.076" type="line"/>
      <point x="1124.862" y="1345.89" type="line"/>
      <point x="959.66" y="1375.966" type="line"/>
      <point x="959.66" y="1500.0" type="line"/>
      <point x="1439.942" y="1500.0" type="line"/>
      <point x="1439.942" y="1375.966" type="line"/>
      <point x="1284.398" y="1346.544" type="line"/>
      <point x="1079.706" y="925.156" type="line"/>
      <point x="892.268" y="527.12" type="line" smooth="yes"/>
      <point x="763.668" y="260.84"/>
      <point x="542.752" y="-19.768"/>
      <point x="334.604" y="-19.768" type="qcurve" smooth="yes"/>
      <point x="300.224" y="-19.768"/>
      <point x="255.92" y="-11.038"/>
      <point x="226.92" y="0.0" type="qcurve"/>
      <point x="226.92" y="233.17" type="line"/>
      <point x="253.688" y="224.824"/>
      <point x="307.182" y="215.672"/>
      <point x="362.52" y="215.672" type="qcurve" smooth="yes"/>
      <point x="502.63" y="215.672"/>
      <point x="684.162" y="392.436"/>
    </contour>
    <contour>
      <point x="659.916" y="297.304" type="line"/>
      <point x="378.68399999999997" y="866.548" type="line"/>
      <point x="136.844" y="1347.198" type="line"/>
      <point x="-14.430000000000001" y="1375.966" type="line"/>
      <point x="-14.430000000000001" y="1500.0" type="line"/>
      <point x="607.72" y="1500.0" type="line"/>
      <point x="607.72" y="1375.966" type="line"/>
      <point x="462.138" y="1341.312" type="line"/>
      <point x="628.4879999999999" y="986.642" type="line"/>
      <point x="834.306" y="558.268" type="line"/>
    </contour>
  </outline>
</glyph>
<glyph name="Ef" format="2">
  <advance width="1881"/>
  <unicode hex="0424"/>
  <outline>
    <contour>
      <point x="997.746" y="215.0" type="qcurve"/>
      <point x="997.746" y="336.342" type="line"/>
      <point x="1305.93" y="338.342"/>
      <point x="1533.714" y="559.194"/>
      <point x="1533.714" y="763.734" type="qcurve" smooth="yes"/>
      <point x="1533.714" y="953.7"/>
      <point x="1301.432" y="1150.51"/>
      <point x="997.746" y="1150.51" type="qcurve"/>
      <point x="997.746" y="1281.236" type="line"/>
      <point x="1471.632" y="1281.236"/>
      <point x="1839.5439999999999" y="1009.696"/>
      <point x="1839.5439999999999" y="775.122" type="qcurve" smooth="yes"/>
      <point x="1839.5439999999999" y="511.966"/>
      <point x="1448.392" y="224.654"/>
    </contour>
    <contour>
      <point x="882.874" y="215.0" type="line"/>
      <point x="429.916" y="215.0"/>
      <point x="41.73" y="486.54"/>
      <point x="41.73" y="721.46" type="qcurve" smooth="yes"/>
      <point x="41.73" y="984.27"/>
      <point x="453.81" y="1271.582"/>
      <point x="882.874" y="1281.236" type="qcurve"/>
      <point x="882.874" y="1151.202" type="line"/>
      <point x="589.078" y="1149.202"/>
      <point x="347.56" y="935.616"/>
      <point x="347.56" y="731.076" type="qcurve" smooth="yes"/>
      <point x="347.56" y="540.764"/>
      <point x="593.576" y="337.034"/>
      <point x="882.874" y="337.034" type="qcurve"/>
    </contour>
    <contour>
      <point x="621.95" y="-29.536" type="line"/>
      <point x="621.95" y="86.384" type="line"/>
      <point x="803.41" y="120.384" type="line"/>
      <point x="806.41" y="260.0" type="line"/>
      <point x="815.102" y="260.0" type="line"/>
      <point x="817.102" y="738.08" type="line"/>
      <point x="1063.518" y="738.08" type="line"/>
      <point x="1065.518" y="261.0" type="line"/>
      <point x="1074.21" y="260.0" type="line"/>
      <point x="1077.21" y="120.384" type="line"/>
      <point x="1258.67" y="86.384" type="line"/>
      <point x="1258.67" y="-29.536" type="line"/>
    </contour>
    <contour>
      <point x="817.102" y="738.08" type="line"/>
      <point x="815.102" y="1230.122" type="line"/>
      <point x="806.41" y="1231.122" type="line"/>
      <point x="803.41" y="1370.08" type="line"/>
      <point x="621.95" y="1404.08" type="line"/>
      <point x="621.95" y="1520.0" type="line"/>
      <point x="1258.67" y="1520.0" type="line"/>
      <point x="1258.67" y="1404.08" type="line"/>
      <point x="1077.21" y="1370.08" type="line"/>
      <point x="1074.21" y="1231.122" type="line"/>
      <point x="1065.518" y="1231.122" type="line"/>
      <point x="1063.518" y="738.08" type="line"/>
    </contour>
  </outline>
</glyph>
<glyph name="Tse" format="2">
  <advance width="1797"/>
  <unicode hex="0426"/>
  <guideline x="1638.0" y="1367.0" angle="90.0" identifier="Ju90KfnAFs"/>
  <outline>
    <contour>
      <point x="1238.506" y="751.232" type="line"/>
      <point x="1236.506" y="1346.118" type="line"/>
      <point x="1039.578" y="1380.464" type="line"/>
      <point x="1039.578" y="1500.0" type="line"/>
      <point x="1725.192" y="1500.0" type="line"/>
      <point x="1725.192" y="1380.464" type="line"/>
      <point x="1527.572" y="1346.118" type="line"/>
      <point x="1525.572" y="751.232" type="line"/>
      <point x="1527.572" y="125.3" type="line"/>
      <point x="1725.192" y="125.3" type="line"/>
      <point x="1735.192" y="-338.0" type="line"/>
      <point x="1595.892" y="-338.0" type="line"/>
      <point x="1516.512" y="0.0" type="line"/>
      <point x="68.16" y="0.0" type="line"/>
      <point x="68.16" y="115.224" type="line"/>
      <point x="265.78" y="151.84" type="line"/>
      <point x="267.78" y="751.232" type="line"/>
      <point x="265.78" y="1346.118" type="line"/>
      <point x="68.16" y="1380.464" type="line"/>
      <point x="68.16" y="1500.0" type="line"/>
      <point x="753.774" y="1500.0" type="line"/>
      <point x="753.774" y="1380.464" type="line"/>
      <point x="556.846" y="1346.118" type="line"/>
      <point x="554.846" y="751.232" type="line"/>
      <point x="556.846" y="151.916" type="line"/>
      <point x="601.69" y="125.3" type="line"/>
      <point x="1191.662" y="125.3" type="line"/>
      <point x="1236.506" y="151.916" type="line"/>
    </contour>
  </outline>
</glyph>
<glyph name="Che" format="2">
  <advance width="1750"/>
  <unicode hex="0427"/>
  <guideline x="1330.0" y="777.0" angle="90.0" identifier="9CLqHZNG04"/>
  <outline>
    <contour>
      <point x="975.502" y="0.0" type="line"/>
      <point x="975.502" y="110.38" type="line"/>
      <point x="1193.122" y="145.38" type="line"/>
      <point x="1195.122" y="754.0" type="line"/>
      <point x="1193.122" y="1341.62" type="line"/>
      <point x="999.654" y="1375.62" type="line"/>
      <point x="999.654" y="1500.0" type="line"/>
      <point x="1681.462" y="1500.0" type="line"/>
      <point x="1681.462" y="1375.62" type="line"/>
      <point x="1483.842" y="1341.62" type="line"/>
      <point x="1481.842" y="754.0" type="line"/>
      <point x="1483.842" y="145.38" type="line"/>
      <point x="1681.462" y="110.38" type="line"/>
      <point x="1681.462" y="0.0" type="line"/>
    </contour>
    <contour>
      <point x="44.81" y="1375.62" type="line"/>
      <point x="44.81" y="1500.0" type="line"/>
      <point x="726.9639999999999" y="1500.0" type="line"/>
      <point x="726.9639999999999" y="1375.62" type="line"/>
      <point x="534.15" y="1341.62" type="line"/>
      <point x="532.804" y="1056.7" type="line" smooth="yes"/>
      <point x="531.804" y="880.384"/>
      <point x="702.55" y="734.726"/>
      <point x="900.178" y="734.726" type="qcurve" smooth="yes"/>
      <point x="1017.064" y="734.726"/>
      <point x="1224.6" y="778.646"/>
      <point x="1338.482" y="820.144" type="qcurve"/>
      <point x="1338.482" y="679.304" type="line"/>
      <point x="1221.562" y="634.114"/>
      <point x="1000.3" y="584.156"/>
      <point x="817.696" y="584.156" type="qcurve" smooth="yes"/>
      <point x="547.734" y="584.156"/>
      <point x="243.814" y="795.696"/>
      <point x="243.122" y="1061.278" type="qcurve" smooth="yes"/>
      <point x="242.43" y="1341.62" type="line"/>
    </contour>
  </outline>
</glyph>
<glyph name="Hard" format="2">
  <advance width="1601"/>
  <unicode hex="042A"/>
  <outline>
    <contour>
      <point x="751.382" y="917.076" type="line"/>
      <point x="760.036" y="904.46" type="line"/>
      <point x="1023.078" y="904.46" type="line" smooth="yes"/>
      <point x="1290.45" y="904.46"/>
      <point x="1552.56" y="684.308"/>
      <point x="1552.56" y="465.734" type="qcurve" smooth="yes"/>
      <point x="1552.56" y="263.54"/>
      <point x="1298.286" y="0.0"/>
      <point x="1047.906" y="0.0" type="qcurve" smooth="yes"/>
      <point x="265.08" y="0.0" type="line"/>
      <point x="265.08" y="110.38" type="line"/>
      <point x="462.7" y="145.38" type="line"/>
      <point x="464.7" y="742.228" type="line"/>
      <point x="462.7" y="1368.16" type="line"/>
      <point x="198.84" y="1368.16" type="line"/>
      <point x="162.11" y="1053.384" type="line"/>
      <point x="40.0" y="1053.384" type="line"/>
      <point x="40.0" y="1500.0" type="line"/>
      <point x="957.614" y="1500.0" type="line"/>
      <point x="957.614" y="1375.62" type="line"/>
      <point x="753.766" y="1341.62" type="line"/>
    </contour>
    <contour>
      <point x="752.036" y="765.696" type="line"/>
      <point x="753.382" y="143.84" type="line"/>
      <point x="783.922" y="122.532" type="line"/>
      <point x="935.322" y="122.532" type="line" smooth="yes"/>
      <point x="1092.482" y="122.532"/>
      <point x="1252.03" y="298.118"/>
      <point x="1252.03" y="468.156" type="qcurve" smooth="yes"/>
      <point x="1252.03" y="625.578"/>
      <point x="1087.288" y="778.658"/>
      <point x="948.394" y="778.658" type="qcurve" smooth="yes"/>
      <point x="761.382" y="778.658" type="line"/>
    </contour>
  </outline>
</glyph>
<glyph name="Ya" format="2">
  <advance width="1542"/>
  <unicode hex="042F"/>
  <outline>
    <contour>
      <point x="541.826" y="755.296" type="line"/>
      <point x="287.97" y="334.376" type="line" smooth="yes"/>
      <point x="204.35" y="196.182"/>
      <point x="84.232" y="112.764"/>
      <point x="23.08" y="110.38" type="qcurve"/>
      <point x="23.08" y="0.0" type="line"/>
      <point x="370.96" y="0.0" type="line"/>
      <point x="410.686" y="32.456" type="line"/>
      <point x="813.63" y="714.57" type="line"/>
    </contour>
    <contour>
      <point x="818.9" y="785.338" type="line" smooth="yes"/>
      <point x="666.584" y="785.338"/>
      <point x="513.61" y="935.426"/>
      <point x="513.61" y="1083.35" type="qcurve" smooth="yes"/>
      <point x="513.61" y="1227.118"/>
      <point x="669.4544948453462" y="1364.7"/>
      <point x="814.402" y="1364.7" type="qcurve" smooth="yes"/>
      <point x="954.798" y="1364.7" type="line"/>
      <point x="984.646" y="1344.776" type="line"/>
      <point x="987.3" y="765.696" type="line"/>
      <point x="985.646" y="143.418" type="line"/>
      <point x="774.254" y="110.38" type="line"/>
      <point x="774.254" y="0.0" type="line"/>
      <point x="1473.9859999999999" y="0.0" type="line"/>
      <point x="1473.9859999999999" y="110.38" type="line"/>
      <point x="1276.366" y="146.688" type="line"/>
      <point x="1274.366" y="760.54" type="line"/>
      <point x="1276.366" y="1341.62" type="line"/>
      <point x="1473.9859999999999" y="1375.62" type="line"/>
      <point x="1473.9859999999999" y="1500.0" type="line"/>
      <point x="749.798" y="1500.0" type="line" smooth="yes"/>
      <point x="468.088117647069" y="1500.0"/>
      <point x="208.236" y="1275.08"/>
      <point x="208.236" y="1080.232" type="qcurve" smooth="yes"/>
      <point x="208.236" y="884.4400943396066"/>
      <point x="469.7601119543652" y="666.8615860603456"/>
      <point x="679.396" y="664.384" type="qcurve"/>
      <point x="717.768" y="654.308" type="line"/>
      <point x="1130.66" y="665.0" type="line"/>
      <point x="1131.006" y="785.338" type="line"/>
    </contour>
  </outline>
</glyph>
<glyph name="icyr" format="2">
  <advance width="1421"/>
  <unicode hex="0438"/>
  <guideline x="441.784" y="590.4" angle="0" identifier="jHuxcyi1x5"/>
  <guideline x="782.354" y="551.232" angle="90.0" identifier="b1mHk7wgTR"/>
  <guideline x="837.3679999999999" y="588.292" angle="90.0" identifier="m4aYe0x4PZ"/>
  <outline>
    <contour>
      <point x="408.234" y="315.026" type="line"/>
      <point x="674.356" y="550.798" type="line"/>
      <point x="933.98" y="793.65" type="line"/>
      <point x="1015.128" y="706.08" type="line"/>
      <point x="745.85" y="464.882" type="line"/>
      <point x="489.382" y="227.456" type="line"/>
    </contour>
    <contour>
      <point x="214.43" y="508.65" type="line"/>
      <point x="212.43" y="888.46" type="line"/>
      <point x="64.43" y="923.46" type="line"/>
      <point x="64.43" y="1017.3" type="line"/>
      <point x="621.808" y="1017.3" type="line"/>
      <point x="621.808" y="923.46" type="line"/>
      <point x="491.074" y="888.46" type="line"/>
      <point x="488.728" y="508.65" type="line"/>
      <point x="491.074" y="128.84" type="line"/>
      <point x="621.808" y="93.84" type="line"/>
      <point x="621.808" y="0.0" type="line"/>
      <point x="64.43" y="0.0" type="line"/>
      <point x="64.43" y="93.84" type="line"/>
      <point x="212.43" y="128.84" type="line"/>
    </contour>
    <contour>
      <point x="1208.932" y="508.65" type="line"/>
      <point x="1210.932" y="128.84" type="line"/>
      <point x="1358.932" y="93.84" type="line"/>
      <point x="1358.932" y="0.0" type="line"/>
      <point x="801.554" y="0.0" type="line"/>
      <point x="801.554" y="93.84" type="line"/>
      <point x="932.288" y="128.84" type="line"/>
      <point x="934.634" y="508.65" type="line"/>
      <point x="932.288" y="888.46" type="line"/>
      <point x="801.554" y="923.46" type="line"/>
      <point x="801.554" y="1017.3" type="line"/>
      <point x="1358.932" y="1017.3" type="line"/>
      <point x="1358.932" y="923.46" type="line"/>
      <point x="1210.932" y="888.46" type="line"/>
    </contour>
  </outline>
</glyph>
<glyph name="em" format="2">
  <advance width="1698"/>
  <unicode hex="043C"/>
  <guideline x="1252.476" y="882.152" angle="0" identifier="6e2z48lNZ1"/>
  <outline>
    <contour>
      <point x="333.544" y="128.84" type="line"/>
      <point x="464.278" y="93.84" type="line"/>
      <point x="464.278" y="0.0" type="line"/>
      <point x="64.43" y="0.0" type="line"/>
      <point x="64.43" y="93.84" type="line"/>
      <point x="212.43" y="128.84" type="line"/>
      <point x="215.43" y="509.996" type="line"/>
      <point x="212.43" y="888.46" type="line"/>
      <point x="64.43" y="923.46" type="line"/>
      <point x="64.43" y="1017.3" type="line"/>
      <point x="538.542" y="1017.3" type="line"/>
      <point x="699.482" y="601.356" type="line"/>
      <point x="839.338" y="252.314" type="line"/>
      <point x="981.924" y="602.702" type="line"/>
      <point x="1144.864" y="1017.3" type="line"/>
      <point x="1633.162" y="1017.3" type="line"/>
      <point x="1633.162" y="923.46" type="line"/>
      <point x="1485.162" y="888.46" type="line"/>
      <point x="1483.162" y="509.304" type="line"/>
      <point x="1485.162" y="128.84" type="line"/>
      <point x="1633.162" y="93.84" type="line"/>
      <point x="1633.162" y="0.0" type="line"/>
      <point x="1082.704" y="0.0" type="line"/>
      <point x="1082.704" y="93.84" type="line"/>
      <point x="1213.438" y="128.84" type="line"/>
      <point x="1215.784" y="509.304" type="line"/>
      <point x="1213.438" y="871.802" type="line"/>
      <point x="1064.776" y="500.958" type="line"/>
      <point x="874.034" y="-4.654" type="line"/>
      <point x="668.91" y="-4.654" type="line"/>
      <point x="487.86" y="479.806" type="line"/>
      <point x="332.852" y="870.764" type="line"/>
      <point x="330.198" y="509.996" type="line"/>
    </contour>
  </outline>
</glyph>
<glyph name="en" format="2">
  <advance width="1410"/>
  <unicode hex="043D"/>
  <guideline x="302.0" y="625.0" angle="90.0" identifier="jHuxcyi1x5"/>
  <guideline x="953.0" y="554.0" angle="90.0" identifier="b1mHk7wgTR"/>
  <guideline x="627.0" y="553.0" angle="90.0" identifier="m4aYe0x4PZ"/>
  <outline>
    <contour>
      <point x="351.406" y="587.148" type="line"/>
      <point x="703.432" y="584.148" type="line"/>
      <point x="1058.496" y="587.148" type="line"/>
      <point x="1058.496" y="462.772" type="line"/>
      <point x="703.432" y="464.772" type="line"/>
      <point x="351.406" y="462.772" type="line"/>
    </contour>
    <contour>
      <point x="214.43" y="508.65" type="line"/>
      <point x="212.43" y="888.46" type="line"/>
      <point x="64.43" y="923.46" type="line"/>
      <point x="64.43" y="1017.3" type="line"/>
      <point x="621.462" y="1017.3" type="line"/>
      <point x="621.462" y="923.46" type="line"/>
      <point x="490.728" y="888.46" type="line"/>
      <point x="488.382" y="508.65" type="line"/>
      <point x="490.728" y="128.84" type="line"/>
      <point x="621.462" y="93.84" type="line"/>
      <point x="621.462" y="0.0" type="line"/>
      <point x="64.43" y="0.0" type="line"/>
      <point x="64.43" y="93.84" type="line"/>
      <point x="212.43" y="128.84" type="line"/>
    </contour>
    <contour>
      <point x="1195.472" y="508.65" type="line"/>
      <point x="1197.472" y="128.84" type="line"/>
      <point x="1345.472" y="93.84" type="line"/>
      <point x="1345.472" y="0.0" type="line"/>
      <point x="788.44" y="0.0" type="line"/>
      <point x="788.44" y="93.84" type="line"/>
      <point x="919.174" y="128.84" type="line"/>
      <point x="921.52" y="508.65" type="line"/>
      <point x="919.174" y="888.46" type="line"/>
      <point x="788.44" y="923.46" type="line"/>
      <point x="788.44" y="1017.3" type="line"/>
      <point x="1345.472" y="1017.3" type="line"/>
      <point x="1345.472" y="923.46" type="line"/>
      <point x="1197.472" y="888.46" type="line"/>
    </contour>
  </outline>
</glyph>
<glyph name="ef" format="2">
  <advance width="1602"/>
  <unicode hex="0444"/>
  <outline>
    <contour>
      <point x="929.966" y="527.0" type="line"/>
      <point x="930.966" y="61.3" type="line"/>
      <point x="940.502" y="43.646" type="line"/>
      <point x="941.502" y="-351.16" type="line"/>
      <point x="1084.156" y="-386.16" type="line"/>
      <point x="1084.156" y="-480.0" type="line"/>
      <point x="518.474" y="-480.0" type="line"/>
      <point x="518.474" y="-386.16" type="line"/>
      <point x="661.128" y="-351.16" type="line"/>
      <point x="662.128" y="46.186" type="line"/>
      <point x="671.664" y="60.84" type="line"/>
      <point x="672.664" y="527.0" type="line"/>
      <point x="671.664" y="971.958" type="line"/>
      <point x="662.128" y="985.612" type="line"/>
      <point x="661.128" y="1361.468" type="line"/>
      <point x="485.508" y="1391.468" type="line"/>
      <point x="485.508" y="1500.0" type="line"/>
      <point x="871.468" y="1534.0" type="line"/>
      <point x="903.468" y="1534.0" type="line"/>
      <point x="941.502" y="1496.81" type="line"/>
      <point x="940.502" y="987.072" type="line"/>
      <point x="930.966" y="970.688" type="line"/>
    </contour>
    <contour>
      <point x="752.128" y="-23.0" type="line"/>
      <point x="402.68399999999997" y="-14.654"/>
      <point x="60.54" y="268.342"/>
      <point x="60.54" y="492.3" type="qcurve" smooth="yes"/>
      <point x="60.54" y="744.992"/>
      <point x="423.1729315961042" y="1040.3"/>
      <point x="752.128" y="1040.3" type="qcurve"/>
      <point x="752.128" y="917.0" type="line"/>
      <point x="554.8097505773882" y="917.0"/>
      <point x="353.644" y="701.92"/>
      <point x="353.644" y="508.3" type="qcurve" smooth="yes"/>
      <point x="353.644" y="318.262"/>
      <point x="547.002" y="109.75999999999999"/>
      <point x="752.128" y="106.3" type="qcurve"/>
    </contour>
    <contour>
      <point x="858.004" y="-23.0" type="qcurve"/>
      <point x="858.004" y="106.3" type="line"/>
      <point x="1049.396" y="109.75999999999999"/>
      <point x="1248.9859999999999" y="324.148"/>
      <point x="1248.9859999999999" y="523.996" type="qcurve" smooth="yes"/>
      <point x="1248.9859999999999" y="707.806"/>
      <point x="1047.215854304604" y="917.0"/>
      <point x="858.004" y="917.0" type="qcurve"/>
      <point x="858.004" y="1040.3" type="line"/>
      <point x="1188.3314351222518" y="1035.199950540017"/>
      <point x="1542.09" y="754.148"/>
      <point x="1542.09" y="525.0" type="qcurve" smooth="yes"/>
      <point x="1542.09" y="277.498"/>
      <point x="1184.904" y="-19.886"/>
    </contour>
  </outline>
</glyph>
<glyph name="sha" format="2">
  <advance width="2050"/>
  <unicode hex="0448"/>
  <guideline x="302.0" y="625.0" angle="90.0" identifier="NJObwdl7Zg"/>
  <guideline x="953.0" y="554.0" angle="90.0" identifier="1530lh32tn"/>
  <guideline x="627.0" y="553.0" angle="90.0" identifier="24e3XVDPIE"/>
  <outline>
    <contour>
      <point x="1985.65" y="0.0" type="line"/>
      <point x="64.43" y="0.0" type="line"/>
      <point x="64.43" y="93.84" type="line"/>
      <point x="212.43" y="128.84" type="line"/>
      <point x="214.43" y="508.65" type="line"/>
      <point x="212.43" y="888.46" type="line"/>
      <point x="64.43" y="923.46" type="line"/>
      <point x="64.43" y="1017.3" type="line"/>
      <point x="612.812" y="1017.3" type="line"/>
      <point x="612.812" y="923.46" type="line"/>
      <point x="490.728" y="888.46" type="line"/>
      <point x="488.728" y="508.65" type="line"/>
      <point x="490.728" y="124.376" type="line"/>
      <point x="885.718" y="124.376" type="line"/>
      <point x="887.718" y="508.65" type="line"/>
      <point x="885.064" y="888.46" type="line"/>
      <point x="763.634" y="923.46" type="line"/>
      <point x="763.634" y="1017.3" type="line"/>
      <point x="1284.792" y="1017.3" type="line"/>
      <point x="1284.792" y="923.46" type="line"/>
      <point x="1163.362" y="888.46" type="line"/>
      <point x="1162.016" y="508.65" type="line"/>
      <point x="1164.016" y="124.376" type="line"/>
      <point x="1559.006" y="124.376" type="line"/>
      <point x="1561.006" y="508.65" type="line"/>
      <point x="1559.006" y="888.46" type="line"/>
      <point x="1436.922" y="923.46" type="line"/>
      <point x="1436.922" y="1017.3" type="line"/>
      <point x="1985.65" y="1017.3" type="line"/>
      <point x="1985.65" y="923.46" type="line"/>
      <point x="1837.304" y="888.46" type="line"/>
      <point x="1835.304" y="508.65" type="line"/>
      <point x="1837.304" y="128.84" type="line"/>
      <point x="1985.65" y="93.84" type="line"/>
    </contour>
  </outline>
</glyph>
<glyph name="shcha" format="2">
  <advance width="2061"/>
  <unicode hex="0449"/>
  <outline>
    <contour>
      <point x="1797.586" y="0.0" type="line"/>
      <point x="64.43" y="0.0" type="line"/>
      <point x="64.43" y="93.84" type="line"/>
      <point x="212.43" y="128.84" type="line"/>
      <point x="214.43" y="508.65" type="line"/>
      <point x="212.43" y="888.46" type="line"/>
      <point x="64.43" y="923.46" type="line"/>
      <point x="64.43" y="1017.3" type="line"/>
      <point x="612.812" y="1017.3" type="line"/>
      <point x="612.812" y="923.46" type="line"/>
      <point x="490.728" y="888.46" type="line"/>
      <point x="488.728" y="508.65" type="line"/>
      <point x="490.728" y="124.376" type="line"/>
      <point x="885.718" y="124.376" type="line"/>
      <point x="887.718" y="508.65" type="line"/>
      <point x="885.064" y="888.46" type="line"/>
      <point x="763.634" y="923.46" type="line"/>
      <point x="763.634" y="1017.3" type="line"/>
      <point x="1284.792" y="1017.3" type="line"/>
      <point x="1284.792" y="923.46" type="line"/>
      <point x="1163.362" y="888.46" type="line"/>
      <point x="1162.016" y="508.65" type="line"/>
      <point x="1164.016" y="124.376" type="line"/>
      <point x="1559.006" y="124.376" type="line"/>
      <point x="1561.006" y="508.65" type="line"/>
      <point x="1559.006" y="888.46" type="line"/>
      <point x="1436.922" y="923.46" type="line"/>
      <point x="1436.922" y="1017.3" type="line"/>
      <point x="1985.65" y="1017.3" type="line"/>
      <point x="1985.65" y="923.46" type="line"/>
      <point x="1837.304" y="888.46" type="line"/>
      <point x="1835.304" y="508.65" type="line"/>
      <point x="1837.304" y="124.376" type="line"/>
      <point x="1992.806" y="124.376" type="line"/>
      <point x="2002.806" y="-318.0" type="line"/>
      <point x="1890.046" y="-318.0" type="line"/>
    </contour>
  </outline>
</glyph>
<glyph name="hard" format="2">
  <advance width="1389"/>
  <unicode hex="044A"/>
  <guideline x="302.0" y="625.0" angle="90.0" identifier="0glbwjr6f1"/>
  <guideline x="953.0" y="554.0" angle="90.0" identifier="41A0uQDzZV"/>
  <guideline x="627.0" y="553.0" angle="90.0" identifier="rA3XBl1QkZ"/>
  <guideline x="302.0" y="625.0" angle="90.0" identifier="9bXjTXCOsd"/>
  <guideline x="953.0" y="554.0" angle="90.0" identifier="70YHiu6Ygv"/>
  <guideline x="627.0" y="553.0" angle="90.0" identifier="lr0dX83lJL"/>
  <outline>
    <contour>
      <point x="417.81" y="892.924" type="line"/>
      <point x="222.608" y="892.924" type="line"/>
      <point x="165.882" y="648.852" type="line"/>
      <point x="47.89" y="648.852" type="line"/>
      <point x="51.35" y="1017.3" type="line"/>
      <point x="847.222" y="1017.3" type="line"/>
      <point x="847.222" y="923.46" type="line"/>
      <point x="696.108" y="888.46" type="line"/>
      <point x="693.762" y="508.65" type="line"/>
      <point x="696.108" y="123.338" type="line"/>
      <point x="843.28" y="123.338" type="line" smooth="yes"/>
      <point x="963.09" y="123.338"/>
      <point x="1055.44" y="234.38"/>
      <point x="1055.44" y="322.996" type="qcurve" smooth="yes"/>
      <point x="1055.44" y="410.65"/>
      <point x="964.128" y="519.46"/>
      <point x="846.394" y="519.46" type="qcurve" smooth="yes"/>
      <point x="556.786" y="519.46" type="line"/>
      <point x="556.786" y="641.76" type="line"/>
      <point x="919.4" y="641.76" type="line" smooth="yes"/>
      <point x="1122.936" y="641.76"/>
      <point x="1343.164" y="474.722"/>
      <point x="1343.164" y="321.612" type="qcurve" smooth="yes"/>
      <point x="1343.164" y="173.038"/>
      <point x="1124.666" y="0.0"/>
      <point x="919.4" y="0.0" type="qcurve" smooth="yes"/>
      <point x="269.81" y="0.0" type="line"/>
      <point x="269.81" y="93.84" type="line"/>
      <point x="417.81" y="128.84" type="line"/>
      <point x="419.81" y="508.65" type="line"/>
    </contour>
  </outline>
</glyph>
<glyph name="yeru" format="2">
  <advance width="1786"/>
  <unicode hex="044B"/>
  <outline>
    <contour>
      <point x="1571.592" y="508.65" type="line"/>
      <point x="1573.592" y="128.84" type="line"/>
      <point x="1721.592" y="93.84" type="line"/>
      <point x="1721.592" y="0.0" type="line"/>
      <point x="1157.674" y="0.0" type="line"/>
      <point x="1157.674" y="93.84" type="line"/>
      <point x="1294.948" y="128.84" type="line"/>
      <point x="1297.294" y="508.65" type="line"/>
      <point x="1294.948" y="888.46" type="line"/>
      <point x="1157.674" y="923.46" type="line"/>
      <point x="1157.674" y="1017.3" type="line"/>
      <point x="1721.592" y="1017.3" type="line"/>
      <point x="1721.592" y="923.46" type="line"/>
      <point x="1573.592" y="888.46" type="line"/>
    </contour>
    <contour>
      <point x="351.406" y="519.46" type="line"/>
      <point x="351.406" y="641.76" type="line"/>
      <point x="714.02" y="641.76" type="line" smooth="yes"/>
      <point x="917.556" y="641.76"/>
      <point x="1137.784" y="474.722"/>
      <point x="1137.784" y="321.612" type="qcurve" smooth="yes"/>
      <point x="1137.784" y="173.038"/>
      <point x="919.2860000000001" y="0.0"/>
      <point x="714.02" y="0.0" type="qcurve" smooth="yes"/>
      <point x="64.43" y="0.0" type="line"/>
      <point x="64.43" y="93.84" type="line"/>
      <point x="212.43" y="128.84" type="line"/>
      <point x="214.43" y="508.65" type="line"/>
      <point x="212.43" y="888.46" type="line"/>
      <point x="64.43" y="923.46" type="line"/>
      <point x="64.43" y="1017.3" type="line"/>
      <point x="641.842" y="1017.3" type="line"/>
      <point x="641.842" y="923.46" type="line"/>
      <point x="490.728" y="888.46" type="line"/>
      <point x="488.382" y="508.65" type="line"/>
      <point x="490.728" y="123.338" type="line"/>
      <point x="637.9" y="123.338" type="line" smooth="yes"/>
      <point x="757.71" y="123.338"/>
      <point x="850.06" y="234.38"/>
      <point x="850.06" y="322.996" type="qcurve" smooth="yes"/>
      <point x="850.06" y="410.65"/>
      <point x="758.748" y="519.46"/>
      <point x="641.014" y="519.46" type="qcurve" smooth="yes"/>
    </contour>
  </outline>
</glyph>
<glyph name="soft" format="2">
  <advance width="1184"/>
  <unicode hex="044C"/>
  <guideline x="302.0" y="625.0" angle="90.0" identifier="A4qVwRmZ22"/>
  <guideline x="953.0" y="554.0" angle="90.0" identifier="h0tFJgBRAh"/>
  <guideline x="627.0" y="553.0" angle="90.0" identifier="x6MEKzPxp5"/>
  <guideline x="329.0" y="565.0" angle="0" identifier="Iz6BEWeM15"/>
  <outline>
    <contour>
      <point x="351.406" y="519.46" type="line"/>
      <point x="351.406" y="641.76" type="line"/>
      <point x="714.02" y="641.76" type="line" smooth="yes"/>
      <point x="917.556" y="641.76"/>
      <point x="1137.784" y="474.722"/>
      <point x="1137.784" y="321.612" type="qcurve" smooth="yes"/>
      <point x="1137.784" y="173.038"/>
      <point x="919.2860000000001" y="0.0"/>
      <point x="714.02" y="0.0" type="qcurve" smooth="yes"/>
      <point x="64.43" y="0.0" type="line"/>
      <point x="64.43" y="93.84" type="line"/>
      <point x="212.43" y="128.84" type="line"/>
      <point x="214.43" y="508.65" type="line"/>
      <point x="212.43" y="888.46" type="line"/>
      <point x="64.43" y="923.46" type="line"/>
      <point x="64.43" y="1017.3" type="line"/>
      <point x="641.842" y="1017.3" type="line"/>
      <point x="641.842" y="923.46" type="line"/>
      <point x="490.728" y="888.46" type="line"/>
      <point x="488.382" y="508.65" type="line"/>
      <point x="490.728" y="123.338" type="line"/>
      <point x="637.9" y="123.338" type="line" smooth="yes"/>
      <point x="757.71" y="123.338"/>
      <point x="850.06" y="234.38"/>
      <point x="850.06" y="322.996" type="qcurve" smooth="yes"/>
      <point x="850.06" y="410.65"/>
      <point x="758.748" y="519.46"/>
      <point x="641.014" y="519.46" type="qcurve" smooth="yes"/>
    </contour>
  </outline>
</glyph>
<glyph name="ecyr" format="2">
  <advance width="1142"/>
  <unicode hex="044D"/>
  <guideline x="180.0" y="548.0" angle="90.0" identifier="n4jm0tBg3Y"/>
  <outline>
    <contour>
      <point x="931.612" y="570.414" type="line"/>
      <point x="931.612" y="451.038" type="line"/>
      <point x="378.35" y="449.038" type="line"/>
      <point x="378.35" y="573.414" type="line"/>
    </contour>
    <contour>
      <point x="528.486" y="-24.384" type="qcurve" smooth="yes"/>
      <point x="433.642" y="-24.384"/>
      <point x="294.57" y="15.616"/>
      <point x="256.996" y="44.038" type="qcurve"/>
      <point x="233.65" y="-5.616" type="line"/>
      <point x="123.08" y="-5.616" type="line"/>
      <point x="123.08" y="345.38" type="line"/>
      <point x="238.072" y="345.38" type="line"/>
      <point x="255.764" y="275.038" type="line" smooth="yes"/>
      <point x="276.65" y="195.266"/>
      <point x="381.498" y="105.3"/>
      <point x="486.772" y="105.3" type="qcurve" smooth="yes"/>
      <point x="636.628" y="105.3"/>
      <point x="781.522" y="312.848"/>
      <point x="781.522" y="512.92" type="qcurve" smooth="yes"/>
      <point x="781.522" y="705.414"/>
      <point x="632.396" y="911.346"/>
      <point x="507.274" y="911.346" type="qcurve" smooth="yes"/>
      <point x="402.308" y="911.346"/>
      <point x="288.882" y="818.958"/>
      <point x="267.342" y="737.456" type="qcurve" smooth="yes"/>
      <point x="250.688" y="671.266" type="line"/>
      <point x="135.696" y="671.266" type="line"/>
      <point x="135.696" y="1022.262" type="line"/>
      <point x="246.266" y="1022.262" type="line"/>
      <point x="269.612" y="972.608" type="line"/>
      <point x="307.186" y="1001.03"/>
      <point x="456.448" y="1041.03"/>
      <point x="554.832" y="1041.03" type="qcurve" smooth="yes"/>
      <point x="799.942" y="1041.03"/>
      <point x="1081.702" y="754.684"/>
      <point x="1081.702" y="514.65" type="qcurve" smooth="yes"/>
      <point x="1081.702" y="288.27"/>
      <point x="787.364" y="-24.384"/>
    </contour>
  </outline>
</glyph>
<glyph name="yu" format="2">
  <advance width="1899"/>
  <unicode hex="044E"/>
  <guideline x="302.0" y="625.0" angle="90.0" identifier="jHuxcyi1x5"/>
  <guideline x="953.0" y="554.0" angle="90.0" identifier="b1mHk7wgTR"/>
  <guideline x="627.0" y="553.0" angle="90.0" identifier="m4aYe0x4PZ"/>
  <outline>
    <contour>
      <point x="351.406" y="587.148" type="line"/>
      <point x="828.902" y="584.148" type="line"/>
      <point x="828.902" y="464.772" type="line"/>
      <point x="351.406" y="462.772" type="line"/>
    </contour>
    <contour>
      <point x="214.43" y="508.65" type="line"/>
      <point x="212.43" y="888.46" type="line"/>
      <point x="64.43" y="923.46" type="line"/>
      <point x="64.43" y="1017.3" type="line"/>
      <point x="621.462" y="1017.3" type="line"/>
      <point x="621.462" y="923.46" type="line"/>
      <point x="490.728" y="888.46" type="line"/>
      <point x="488.382" y="508.65" type="line"/>
      <point x="490.728" y="128.84" type="line"/>
      <point x="621.462" y="93.84" type="line"/>
      <point x="621.462" y="0.0" type="line"/>
      <point x="64.43" y="0.0" type="line"/>
      <point x="64.43" y="93.84" type="line"/>
      <point x="212.43" y="128.84" type="line"/>
    </contour>
    <contour>
      <point x="680.774" y="508.65" type="qcurve" smooth="yes"/>
      <point x="680.774" y="736.376"/>
      <point x="998.834" y="1040.684"/>
      <point x="1257.628" y="1040.684" type="qcurve" smooth="yes"/>
      <point x="1517.422" y="1040.684"/>
      <point x="1838.828" y="756.722"/>
      <point x="1838.828" y="514.65" type="qcurve" smooth="yes"/>
      <point x="1838.828" y="287.924"/>
      <point x="1523.114" y="-23.73"/>
      <point x="1264.32" y="-23.73" type="qcurve" smooth="yes"/>
      <point x="1004.526" y="-23.73"/>
      <point x="680.774" y="264.578"/>
    </contour>
    <contour>
      <point x="977.03" y="526.92" type="qcurve" smooth="yes"/>
      <point x="978.03" y="330.004"/>
      <point x="1129.388" y="97.342"/>
      <point x="1256.666" y="97.342" type="qcurve" smooth="yes"/>
      <point x="1393.252" y="97.342"/>
      <point x="1538.648" y="308.35"/>
      <point x="1538.648" y="512.92" type="qcurve" smooth="yes"/>
      <point x="1538.648" y="702.836"/>
      <point x="1386.29" y="910.152"/>
      <point x="1258.666" y="910.152" type="qcurve" smooth="yes"/>
      <point x="1120.426" y="910.152"/>
      <point x="976.03" y="722.49"/>
    </contour>
  </outline>
</glyph>
<glyph name="ieukran" format="2">
  <advance width="1098"/>
  <unicode hex="0454"/>
  <guideline x="180.0" y="548.0" angle="90.0" identifier="n4jm0tBg3Y"/>
  <outline>
    <contour>
      <point x="208.322" y="570.414" type="line"/>
      <point x="739.302" y="573.414" type="line"/>
      <point x="739.302" y="449.038" type="line"/>
      <point x="208.322" y="451.038" type="line"/>
    </contour>
    <contour>
      <point x="59.848" y="493.498" type="qcurve" smooth="yes"/>
      <point x="59.848" y="737.148"/>
      <point x="353.718" y="1041.03"/>
      <point x="590.36" y="1041.03" type="qcurve" smooth="yes"/>
      <point x="691.47" y="1041.03"/>
      <point x="822.314" y="1001.03"/>
      <point x="859.888" y="972.608" type="qcurve"/>
      <point x="883.234" y="1022.262" type="line"/>
      <point x="993.804" y="1022.262" type="line"/>
      <point x="993.804" y="671.266" type="line"/>
      <point x="878.812" y="671.266" type="line"/>
      <point x="861.12" y="741.608" type="line" smooth="yes"/>
      <point x="841.5002448006718" y="817.1168863035718"/>
      <point x="734.31" y="911.346"/>
      <point x="639.884" y="911.346" type="qcurve" smooth="yes"/>
      <point x="514.3779999999999" y="911.346"/>
      <point x="356.45" y="727.574"/>
      <point x="356.45" y="515.304" type="qcurve" smooth="yes"/>
      <point x="356.45" y="311.574"/>
      <point x="538.762" y="127.722"/>
      <point x="685.652" y="127.722" type="qcurve" smooth="yes"/>
      <point x="787.694" y="127.722"/>
      <point x="938.542" y="194.992"/>
      <point x="990.774" y="245.992" type="qcurve"/>
      <point x="1055.614" y="167.654" type="line"/>
      <point x="999.116" y="90.886"/>
      <point x="777.8199999999999" y="-23.73"/>
      <point x="608.018" y="-23.73" type="qcurve" smooth="yes"/>
      <point x="376.528" y="-23.73"/>
      <point x="59.848" y="249.114"/>
    </contour>
  </outline>
</glyph>
<glyph name="Gheup" format="2">
  <advance width="1211"/>
  <unicode hex="0490"/>
  <outline>
    <contour>
      <point x="958.634" y="1500.0" type="line"/>
      <point x="1036.706" y="1831.46" type="line"/>
      <point x="1176.006" y="1831.46" type="line"/>
      <point x="1166.006" y="1368.16" type="line"/>
      <point x="595.496" y="1368.16" type="line"/>
      <point x="556.846" y="1346.776" type="line"/>
      <point x="556.922" y="760.0" type="line"/>
      <point x="558.922" y="143.418" type="line"/>
      <point x="771.006" y="110.726" type="line"/>
      <point x="771.006" y="0.0" type="line"/>
      <point x="68.16" y="0.0" type="line"/>
      <point x="68.16" y="110.38" type="line"/>
      <point x="265.78" y="146.688" type="line"/>
      <point x="267.78" y="757.924" type="line"/>
      <point x="265.78" y="1341.62" type="line"/>
      <point x="68.16" y="1375.62" type="line"/>
      <point x="68.16" y="1500.0" type="line"/>
    </contour>
  </outline>
</glyph>
<glyph name="gheup" format="2">
  <advance width="1006"/>
  <unicode hex="0491"/>
  <guideline x="302.0" y="625.0" angle="90.0" identifier="jHuxcyi1x5"/>
  <guideline x="953.0" y="554.0" angle="90.0" identifier="b1mHk7wgTR"/>
  <guideline x="627.0" y="553.0" angle="90.0" identifier="m4aYe0x4PZ"/>
  <outline>
    <contour>
      <point x="787.436" y="1017.3" type="line"/>
      <point x="851.774" y="1279.71" type="line"/>
      <point x="969.766" y="1279.71" type="line"/>
      <point x="966.306" y="892.924" type="line"/>
      <point x="491.074" y="892.924" type="line"/>
      <point x="488.728" y="508.65" type="line"/>
      <point x="491.074" y="128.84" type="line"/>
      <point x="656.998" y="93.84" type="line"/>
      <point x="656.998" y="0.0" type="line"/>
      <point x="64.43" y="0.0" type="line"/>
      <point x="64.43" y="93.84" type="line"/>
      <point x="212.43" y="128.84" type="line"/>
      <point x="214.43" y="508.65" type="line"/>
      <point x="212.43" y="888.46" type="line"/>
      <point x="64.43" y="923.46" type="line"/>
      <point x="64.43" y="1017.3" type="line"/>
    </contour>
  </outline>
</glyph>
<glyph name="Kabashkircyr" format="2">
  <advance width="1799"/>
  <unicode hex="04A0"/>
  <guideline x="480.0" y="796.0" angle="90.0" identifier="UonMLy8RzJ"/>
  <outline>
    <contour>
      <point x="651.14" y="709.08" type="line"/>
      <point x="651.14" y="851.46" type="line"/>
      <point x="958.28" y="846.768" type="line"/>
      <point x="1358.158" y="1333.156" type="line"/>
      <point x="1217.732" y="1375.966" type="line"/>
      <point x="1217.732" y="1500.0" type="line"/>
      <point x="1723.074" y="1500.0" type="line"/>
      <point x="1723.074" y="1375.966" type="line"/>
      <point x="1544.728" y="1333.156" type="line"/>
      <point x="1062.652" y="762.646" type="line"/>
      <point x="1004.736" y="709.08" type="line"/>
    </contour>
    <contour>
      <point x="951.36" y="720.498" type="line"/>
      <point x="1145.632" y="920.77" type="line"/>
      <point x="1682.176" y="145.38" type="line"/>
      <point x="1822.568" y="110.38" type="line"/>
      <point x="1822.568" y="0.0" type="line"/>
      <point x="1208.604" y="0.0" type="line"/>
      <point x="1208.604" y="110.38" type="line"/>
      <point x="1356.19" y="145.38" type="line"/>
    </contour>
    <contour>
      <point x="308.16" y="0.0" type="line"/>
      <point x="308.16" y="110.38" type="line"/>
      <point x="505.78" y="145.38" type="line"/>
      <point x="507.78" y="754.0" type="line"/>
      <point x="505.78" y="1368.16" type="line"/>
      <point x="198.84" y="1368.16" type="line"/>
      <point x="162.11" y="1053.384" type="line"/>
      <point x="40.0" y="1053.384" type="line"/>
      <point x="40.0" y="1500.0" type="line"/>
      <point x="986.888" y="1500.0" type="line"/>
      <point x="986.888" y="1375.62" type="line"/>
      <point x="796.5" y="1341.62" type="line"/>
      <point x="794.5" y="754.0" type="line"/>
      <point x="796.5" y="145.38" type="line"/>
      <point x="983.048" y="110.38" type="line"/>
      <point x="983.048" y="0.0" type="line"/>
    </contour>
  </outline>
</glyph>
<glyph name="Endescender" format="2">
  <advance width="1813"/>
  <unicode hex="04A2"/>
  <outline>
    <contour>
      <point x="1533.052" y="0.0" type="line"/>
      <point x="1056.464" y="0.0" type="line"/>
      <point x="1056.464" y="110.38" type="line"/>
      <point x="1253.392" y="145.38" type="line"/>
      <point x="1255.392" y="754.0" type="line"/>
      <point x="1253.392" y="1341.62" type="line"/>
      <point x="1056.464" y="1375.62" type="line"/>
      <point x="1056.464" y="1500.0" type="line"/>
      <point x="1741.732" y="1500.0" type="line"/>
      <point x="1741.732" y="1375.62" type="line"/>
      <point x="1544.112" y="1341.62" type="line"/>
      <point x="1542.112" y="754.0" type="line"/>
      <point x="1544.112" y="125.3" type="line"/>
      <point x="1741.732" y="125.3" type="line"/>
      <point x="1751.732" y="-338.0" type="line"/>
      <point x="1612.432" y="-338.0" type="line"/>
    </contour>
    <contour>
      <point x="68.16" y="0.0" type="line"/>
      <point x="68.16" y="110.38" type="line"/>
      <point x="265.78" y="145.38" type="line"/>
      <point x="267.78" y="754.0" type="line"/>
      <point x="265.78" y="1341.62" type="line"/>
      <point x="68.16" y="1375.62" type="line"/>
      <point x="68.16" y="1500.0" type="line"/>
      <point x="753.428" y="1500.0" type="line"/>
      <point x="753.428" y="1375.62" type="line"/>
      <point x="556.5" y="1341.62" type="line"/>
      <point x="554.5" y="754.0" type="line"/>
      <point x="556.5" y="145.38" type="line"/>
      <point x="753.428" y="110.38" type="line"/>
      <point x="753.428" y="0.0" type="line"/>
    </contour>
    <contour>
      <point x="411.14" y="709.08" type="line"/>
      <point x="411.14" y="851.46" type="line"/>
      <point x="905.292" y="843.46" type="line"/>
      <point x="1398.098" y="851.46" type="line"/>
      <point x="1398.098" y="709.08" type="line"/>
      <point x="905.292" y="709.08" type="line"/>
    </contour>
  </outline>
</glyph>
<glyph name="Ustraightstroke" format="2">
  <advance width="1359"/>
  <unicode hex="04B0"/>
  <outline>
    <contour>
      <point x="252.228" y="482.818" type="line"/>
      <point x="252.228" y="639.198" type="line"/>
      <point x="1114.998" y="639.198" type="line"/>
      <point x="1114.998" y="482.818" type="line"/>
    </contour>
    <contour>
      <point x="-16.16" y="1375.966" type="line"/>
      <point x="-16.16" y="1500.0" type="line"/>
      <point x="608.412" y="1500.0" type="line"/>
      <point x="608.412" y="1375.966" type="line"/>
      <point x="462.83" y="1341.312" type="line"/>
      <point x="606.99" y="1063.304" type="line"/>
      <point x="765.032" y="790.266" type="line"/>
      <point x="920.42" y="1074.194" type="line"/>
      <point x="1060.154" y="1345.89" type="line"/>
      <point x="894.952" y="1375.966" type="line"/>
      <point x="894.952" y="1500.0" type="line"/>
      <point x="1375.234" y="1500.0" type="line"/>
      <point x="1375.234" y="1375.966" type="line"/>
      <point x="1219.69" y="1346.544" type="line"/>
      <point x="1027.838" y="1014.114" type="line"/>
      <point x="827.838" y="639.198" type="line"/>
      <point x="829.492" y="145.034" type="line"/>
      <point x="1036.074" y="110.38" type="line"/>
      <point x="1036.074" y="0.0" type="line"/>
      <point x="327.806" y="0.0" type="line"/>
      <point x="327.806" y="110.38" type="line"/>
      <point x="537.388" y="145.034" type="line"/>
      <point x="539.388" y="639.198" type="line"/>
      <point x="344.814" y="982.228" type="line"/>
      <point x="133.73" y="1347.198" type="line"/>
    </contour>
  </outline>
</glyph>
